SplineFontDB: 3.0
FontName: Shabnam
FullName: Shabnam
FamilyName: Shabnam
Weight: Regular
Copyright: Copyright (c) 2003 by Bitstream, Inc. All Rights Reserved.\nDejaVu changes are in public domain\nCopyright (c) 2015 by Saber Rastikerdar. All Rights Reserved.\nNon-Arabic(Latin) glyphs and data are imported from Roboto font under the Apache License, Version 2.0.
Version: 4.0.0
ItalicAngle: 0
UnderlinePosition: -500
UnderlineWidth: 100
Ascent: 1638
Descent: 410
InvalidEm: 0
LayerCount: 2
Layer: 0 1 "Back" 1
Layer: 1 1 "Fore" 0
XUID: [1021 502 1027637223 10289273]
UniqueID: 4139606
UseUniqueID: 1
FSType: 0
OS2Version: 1
OS2_WeightWidthSlopeOnly: 0
OS2_UseTypoMetrics: 1
CreationTime: 1431850356
ModificationTime: 1530376016
PfmFamily: 33
TTFWeight: 400
TTFWidth: 5
LineGap: 0
VLineGap: 0
Panose: 2 11 6 3 3 8 4 2 2 4
OS2TypoAscent: 1900
OS2TypoAOffset: 0
OS2TypoDescent: -900
OS2TypoDOffset: 0
OS2TypoLinegap: 0
OS2WinAscent: 1900
OS2WinAOffset: 0
OS2WinDescent: 900
OS2WinDOffset: 0
HheadAscent: 1900
HheadAOffset: 0
HheadDescent: -900
HheadDOffset: 0
OS2SubXSize: 1331
OS2SubYSize: 1433
OS2SubXOff: 0
OS2SubYOff: 286
OS2SupXSize: 1331
OS2SupYSize: 1433
OS2SupXOff: 0
OS2SupYOff: 983
OS2StrikeYSize: 102
OS2StrikeYPos: 530
OS2Vendor: '    '
OS2CodePages: 00000041.20080000
OS2UnicodeRanges: 80002003.80000000.00000008.00000000
Lookup: 1 9 0 "'fina' Terminal Forms in Arabic lookup 9" { "'fina' Terminal Forms in Arabic lookup 9 subtable"  } ['fina' ('arab' <'KUR ' 'SND ' 'URD ' 'dflt' > ) ]
Lookup: 1 9 0 "'medi' Medial Forms in Arabic lookup 11" { "'medi' Medial Forms in Arabic lookup 11 subtable"  } ['medi' ('arab' <'KUR ' 'SND ' 'URD ' 'dflt' > ) ]
Lookup: 1 9 0 "'init' Initial Forms in Arabic lookup 13" { "'init' Initial Forms in Arabic lookup 13 subtable"  } ['init' ('arab' <'KUR ' 'SND ' 'URD ' 'dflt' > ) ]
Lookup: 4 1 1 "'rlig' Required Ligatures in Arabic lookup 14" { "'rlig' Required Ligatures in Arabic lookup 14 subtable"  } ['rlig' ('arab' <'KUR ' 'dflt' > ) ]

StartChar: exclam
Encoding: 33 33 1
Width: 568
VWidth: 2389
GlyphClass: 2
Flags: W
LayerCount: 2
Fore
SplineSet
152.919921875 130.381835938 m 128,-1,1
 152.919921875 183.553710938 152.919921875 183.553710938 190.333984375 220.967773438 c 128,-1,2
 227.755859375 258.389648438 227.755859375 258.389648438 281.419921875 258.881835938 c 0,3,4
 336.083984375 258.389648438 336.083984375 258.389648438 373.505859375 220.967773438 c 128,-1,5
 410.919921875 183.553710938 410.919921875 183.553710938 410.919921875 130.381835938 c 128,-1,6
 410.919921875 77.2099609375 410.919921875 77.2099609375 373.505859375 39.7958984375 c 128,-1,7
 336.084354829 2.37439389173 336.084354829 2.37439389173 282.419921875 1.8818359375 c 0,8,9
 227.755859375 2.3740234375 227.755859375 2.3740234375 190.333984375 39.7958984375 c 128,-1,0
 152.919921875 77.2099609375 152.919921875 77.2099609375 152.919921875 130.381835938 c 128,-1,1
178.567382812 1351.35449219 m 1,10,-1
 377.237304688 1351.35449219 l 1,11,-1
 355.676757812 422.609375 l 5,12,-1
 201.205078125 422.609375 l 5,13,-1
 178.567382812 1351.35449219 l 1,10,-1
EndSplineSet
EndChar

StartChar: period
Encoding: 46 46 2
Width: 572
VWidth: 2389
GlyphClass: 2
Flags: W
LayerCount: 2
Fore
SplineSet
158.255859375 127.43359375 m 128,-1,1
 158.255859375 180.60546875 158.255859375 180.60546875 195.669921875 218.01953125 c 128,-1,2
 233.091796875 255.44140625 233.091796875 255.44140625 286.755859375 255.93359375 c 0,3,4
 341.419921875 255.44140625 341.419921875 255.44140625 378.841796875 218.01953125 c 128,-1,5
 416.255859375 180.60546875 416.255859375 180.60546875 416.255859375 127.43359375 c 128,-1,6
 416.255859375 74.26171875 416.255859375 74.26171875 378.841796875 36.84765625 c 128,-1,7
 341.41537045 -0.574868743968 341.41537045 -0.574868743968 287.755859375 -1.06640625 c 4,8,9
 233.091796875 -0.57421875 233.091796875 -0.57421875 195.669921875 36.84765625 c 128,-1,0
 158.255859375 74.26171875 158.255859375 74.26171875 158.255859375 127.43359375 c 128,-1,1
EndSplineSet
EndChar

StartChar: colon
Encoding: 58 58 3
Width: 579
VWidth: 2389
GlyphClass: 2
Flags: W
LayerCount: 2
Fore
SplineSet
160.203125 832.43359375 m 128,-1,1
 160.203125 885.60546875 160.203125 885.60546875 197.6171875 923.01953125 c 128,-1,2
 235.0390625 960.44140625 235.0390625 960.44140625 288.703125 960.93359375 c 0,3,4
 343.368535627 960.440058123 343.368535627 960.440058123 380.7890625 923.01953125 c 132,-1,5
 418.203125 885.60546875 418.203125 885.60546875 418.203125 832.43359375 c 128,-1,6
 418.203125 779.26171875 418.203125 779.26171875 380.7890625 741.84765625 c 128,-1,7
 343.3671875 704.42578125 343.3671875 704.42578125 289.703125 703.93359375 c 0,8,9
 235.037714373 704.427129377 235.037714373 704.427129377 197.6171875 741.84765625 c 128,-1,0
 160.203125 779.26171875 160.203125 779.26171875 160.203125 832.43359375 c 128,-1,1
160.203125 127.43359375 m 128,-1,11
 160.203125 180.60546875 160.203125 180.60546875 197.6171875 218.01953125 c 128,-1,12
 235.0390625 255.44140625 235.0390625 255.44140625 288.703125 255.93359375 c 0,13,14
 343.3671875 255.44140625 343.3671875 255.44140625 380.7890625 218.01953125 c 128,-1,15
 418.203125 180.60546875 418.203125 180.60546875 418.203125 127.43359375 c 128,-1,16
 418.203125 74.26171875 418.203125 74.26171875 380.7890625 36.84765625 c 128,-1,17
 343.366573575 -0.57483267527 343.366573575 -0.57483267527 289.703125 -1.06640625 c 0,18,19
 235.0390625 -0.57421875 235.0390625 -0.57421875 197.6171875 36.84765625 c 128,-1,10
 160.203125 74.26171875 160.203125 74.26171875 160.203125 127.43359375 c 128,-1,11
EndSplineSet
EndChar

StartChar: afii57388
Encoding: 1548 1548 5
Width: 627
VWidth: 2396
GlyphClass: 2
Flags: W
LayerCount: 2
Fore
SplineSet
322.662109375 -1.06640625 m 0,0,1
 194.610351562 -1.0009765625 194.610351562 -1.0009765625 168.573242188 118.256835938 c 0,2,3
 156.05078125 174.989257812 156.05078125 174.989257812 178.934570312 273.681640625 c 0,4,5
 219.634765625 452.172851562 219.634765625 452.172851562 410.877929688 637.0859375 c 1,6,-1
 472.475585938 592.022460938 l 1,7,8
 392.182617188 507.48828125 392.182617188 507.48828125 349.188476562 427.563476562 c 128,-1,9
 306.194335938 347.638671875 306.194335938 347.638671875 300.368164062 271.92578125 c 2,10,-1
 300.200195312 269.7421875 l 1,11,-1
 302.390625 269.772460938 l 2,12,13
 459.015625 271.971679688 459.015625 271.971679688 460.09765625 127.530273438 c 0,14,15
 460.979492188 -0.0771484375 460.979492188 -0.0771484375 324.678710938 -1.05859375 c 0,16,17
 323.170898438 -1.064453125 323.170898438 -1.064453125 322.662109375 -1.06640625 c 0,0,1
EndSplineSet
EndChar

StartChar: uni0615
Encoding: 1557 1557 6
Width: 11
VWidth: 2551
GlyphClass: 4
Flags: W
AnchorPoint: "Anchor-10" 648 1488.29 mark 0
AnchorPoint: "Anchor-9" 648 1488.29 mark 0
AnchorPoint: "Anchor-1" 648 2304.6 basemark 0
AnchorPoint: "Anchor-1" 648 1488.29 mark 0
LayerCount: 2
Fore
SplineSet
791.159179688 1869.37109375 m 0,0,1
 753.11328125 1872.26171875 753.11328125 1872.26171875 697.624023438 1836.75683594 c 128,-1,2
 642.135742188 1801.25195312 642.135742188 1801.25195312 568.583007812 1727.41113281 c 2,3,-1
 528.93359375 1687.60644531 l 1,4,-1
 525.53515625 1684.1953125 l 1,5,-1
 530.350585938 1684.1953125 l 1,6,-1
 653.021484375 1684.1953125 l 2,7,8
 748.443359375 1684.09765625 748.443359375 1684.09765625 798.1796875 1706.88476562 c 128,-1,9
 847.916015625 1729.671875 847.916015625 1729.671875 850.995117188 1775.86035156 c 0,10,11
 857.1328125 1863.828125 857.1328125 1863.828125 791.159179688 1869.37109375 c 0,0,1
928.143554688 1834.63378906 m 0,12,13
 929.412109375 1821.02929688 929.412109375 1821.02929688 929.418945312 1808.2734375 c 0,14,15
 929.543945312 1612.640625 929.543945312 1612.640625 631.908203125 1612.640625 c 2,16,-1
 349.12109375 1612.640625 l 1,17,-1
 349.12109375 1684.1953125 l 1,18,-1
 448.844726562 1684.1953125 l 1,19,-1
 450.844726562 1684.1953125 l 1,20,-1
 450.844726562 1686.1953125 l 1,21,-1
 450.844726562 2185.28320312 l 1,22,-1
 523.657226562 2185.28320312 l 1,23,-1
 524 1781.99804688 l 1,24,-1
 524.00390625 1777.06054688 l 1,25,-1
 527.4375 1780.609375 l 1,26,-1
 561.737304688 1816.06542969 l 2,27,28
 690.856445312 1950.00585938 690.856445312 1950.00585938 784.01953125 1950.69824219 c 0,29,30
 917.1796875 1951.98242188 917.1796875 1951.98242188 928.143554688 1834.63378906 c 0,12,13
EndSplineSet
EndChar

StartChar: uni061B
Encoding: 1563 1563 7
Width: 627
VWidth: 2396
GlyphClass: 2
Flags: W
LayerCount: 2
Fore
SplineSet
322.744140625 442.862304688 m 0,0,1
 194.692382812 442.927734375 194.692382812 442.927734375 168.655273438 562.185546875 c 0,2,3
 156.1328125 618.91796875 156.1328125 618.91796875 179.016601562 717.610351562 c 0,4,5
 219.716796875 896.1015625 219.716796875 896.1015625 410.959960938 1081.01464844 c 1,6,-1
 472.557617188 1035.95117188 l 1,7,8
 432.416992188 993.689453125 432.416992188 993.689453125 401.618164062 952.614257812 c 128,-1,9
 370.819335938 911.5390625 370.819335938 911.5390625 349.299804688 871.543945312 c 128,-1,10
 327.780273438 831.549804688 327.780273438 831.549804688 315.572265625 792.638671875 c 128,-1,11
 303.365234375 753.728515625 303.365234375 753.728515625 300.450195312 715.854492188 c 2,12,-1
 300.282226562 713.670898438 l 1,13,-1
 302.47265625 713.701171875 l 2,14,15
 354.9453125 714.438476562 354.9453125 714.438476562 389.846679688 698.923828125 c 128,-1,16
 424.747070312 683.41015625 424.747070312 683.41015625 442.282226562 651.595703125 c 128,-1,17
 459.817382812 619.780273438 459.817382812 619.780273438 460.1796875 571.458984375 c 0,18,19
 460.40234375 539.192382812 460.40234375 539.192382812 451.997070312 515.09765625 c 128,-1,20
 443.591796875 491.00390625 443.591796875 491.00390625 426.456054688 474.942382812 c 128,-1,21
 409.319335938 458.880859375 409.319335938 458.880859375 383.422851562 450.879882812 c 128,-1,22
 357.526367188 442.87890625 357.526367188 442.87890625 322.744140625 442.862304688 c 0,0,1
186.907226562 127.43359375 m 128,-1,24
 186.907226562 180.60546875 186.907226562 180.60546875 224.321289062 218.01953125 c 128,-1,25
 261.743164062 255.44140625 261.743164062 255.44140625 315.407226562 255.93359375 c 0,26,27
 370.071289062 255.44140625 370.071289062 255.44140625 407.493164062 218.01953125 c 128,-1,28
 444.907226562 180.60546875 444.907226562 180.60546875 444.907226562 127.43359375 c 128,-1,29
 444.907226562 74.26171875 444.907226562 74.26171875 407.493164062 36.84765625 c 128,-1,30
 370.071289062 -0.57421875 370.071289062 -0.57421875 316.407226562 -1.06640625 c 0,31,32
 261.743164062 -0.57421875 261.743164062 -0.57421875 224.321289062 36.84765625 c 128,-1,23
 186.907226562 74.26171875 186.907226562 74.26171875 186.907226562 127.43359375 c 128,-1,24
EndSplineSet
EndChar

StartChar: uni061F
Encoding: 1567 1567 8
Width: 911
VWidth: 2396
GlyphClass: 2
Flags: W
LayerCount: 2
Fore
SplineSet
387.284179688 127.43359375 m 128,-1,1
 387.284179688 180.60546875 387.284179688 180.60546875 424.698242188 218.01953125 c 128,-1,2
 462.120117188 255.44140625 462.120117188 255.44140625 515.784179688 255.93359375 c 0,3,4
 570.448242188 255.44140625 570.448242188 255.44140625 607.870117188 218.01953125 c 128,-1,5
 645.284179688 180.60546875 645.284179688 180.60546875 645.284179688 127.43359375 c 128,-1,6
 645.284179688 74.26171875 645.284179688 74.26171875 607.870117188 36.84765625 c 128,-1,7
 570.447265625 -0.5751953125 570.447265625 -0.5751953125 516.784179688 -1.06640625 c 0,8,9
 462.120117188 -0.57421875 462.120117188 -0.57421875 424.698242188 36.84765625 c 128,-1,0
 387.284179688 74.26171875 387.284179688 74.26171875 387.284179688 127.43359375 c 128,-1,1
425.490234375 411.693359375 m 1,10,11
 425.490234375 446 l 6,12,13
 424.998755151 555.276782893 424.998755151 555.276782893 319.0625 644.694335938 c 2,14,-1
 261.833007812 693 l 2,15,16
 100 830 100 830 101 997.98046875 c 0,17,18
 102 1126 102 1126 166 1212 c 0,19,20
 264 1342 264 1342 449.00390625 1342.4453125 c 0,21,22
 714 1343 714 1343 794 1036 c 1,23,-1
 643.135742188 986.767578125 l 1,24,25
 579 1159 579 1159 453.989257812 1156.69824219 c 0,26,27
 361 1155 361 1155 315 1097.36816406 c 0,28,29
 278 1050 278 1050 277.5 990.033203125 c 0,30,31
 276.998293029 896.682390001 276.998293029 896.682390001 403 802.046875 c 2,32,-1
 447 769 l 2,33,34
 612.459960938 644.654332386 612.459960938 644.654332386 612.459960938 447 c 6,35,-1
 612.459960938 411.690429688 l 1,36,-1
 425.490234375 411.693359375 l 1,10,11
EndSplineSet
EndChar

StartChar: uni0621
Encoding: 1569 1569 9
Width: 807
VWidth: 2551
GlyphClass: 2
Flags: W
AnchorPoint: "Anchor-7" 470.143 -68.166 basechar 0
AnchorPoint: "Anchor-10" 322.188 1089.55 basechar 0
LayerCount: 2
Fore
SplineSet
444.82421875 670.458007812 m 4,0,1
 399.572265625 670.227539062 399.572265625 670.227539062 363.256835938 657.486328125 c 128,-1,2
 326.94140625 644.74609375 326.94140625 644.74609375 299.629882812 619.45703125 c 0,3,4
 254.99609375 576.852539062 254.99609375 576.852539062 255.30078125 504.004882812 c 0,5,6
 255.119290433 423.294160344 255.119290433 423.294160344 316.568359375 375.458007812 c 0,7,8
 390.600253678 317.826524552 390.600253678 317.826524552 497.71875 318.09765625 c 0,9,10
 571.397460938 318.000976562 571.397460938 318.000976562 667.073242188 367.491210938 c 1,11,-1
 712.856445312 213.206054688 l 1,12,-1
 168.0859375 4.5576171875 l 1,13,-1
 108.647460938 144.34765625 l 1,14,-1
 319.803710938 218.797851562 l 1,15,-1
 325.973632812 220.97265625 l 1,16,-1
 319.641601562 222.619140625 l 2,17,18
 93.0048828125 281.544921875 93.0048828125 281.544921875 93.69921875 513.697265625 c 0,19,20
 93.998046875 686.8828125 93.998046875 686.8828125 232.361328125 772.3046875 c 0,21,22
 316.579101562 825.002929688 316.579101562 825.002929688 436.3125 825.607421875 c 0,23,24
 480.547851562 825.80078125 480.547851562 825.80078125 520.248046875 817.491210938 c 128,-1,25
 559.94921875 809.182617188 559.94921875 809.182617188 595.30078125 792.423828125 c 1,26,-1
 595.30078125 644.798828125 l 1,27,28
 520.685520322 670.007258507 520.685520322 670.007258507 444.82421875 670.458007812 c 4,0,1
EndSplineSet
EndChar

StartChar: uni0627
Encoding: 1575 1575 15
Width: 469
VWidth: 2551
GlyphClass: 2
Flags: W
AnchorPoint: "Anchor-10" 235.338 1463.41 basechar 0
AnchorPoint: "Anchor-7" 239.805 -256.859 basechar 0
LayerCount: 2
Fore
SplineSet
160.299804688 1333.72753906 m 5,0,-1
 326.393554688 1333.72753906 l 5,1,-1
 326.393554688 0.6943359375 l 1,2,-1
 160.299804688 0.6943359375 l 1,3,-1
 160.299804688 1333.72753906 l 5,0,-1
EndSplineSet
Substitution2: "'fina' Terminal Forms in Arabic lookup 9 subtable" uniFE8E
EndChar

StartChar: uni062D
Encoding: 1581 1581 21
Width: 1319
VWidth: 2551
GlyphClass: 2
Flags: W
AnchorPoint: "Anchor-7" 471.334 -835.653 basechar 0
AnchorPoint: "Anchor-10" 552.649 1189.29 basechar 0
LayerCount: 2
Fore
SplineSet
1075.71289062 321.979492188 m 0,0,1
 813.798648302 284.864998722 813.798648302 284.864998722 631.2265625 213.908203125 c 0,2,3
 453 145 453 145 363.694335938 46.74609375 c 0,4,5
 274 -52 274 -52 273.6875 -179.765625 c 0,6,7
 271.997513476 -519.499860449 271.997513476 -519.499860449 804.4765625 -519.172851562 c 2,8,-1
 1216.33007812 -518.919921875 l 1,9,-1
 1216.33007812 -695.470703125 l 1,10,-1
 792.451171875 -694.58203125 l 2,11,12
 403 -694 403 -694 242.442382812 -540.393554688 c 0,13,14
 99 -402 99 -402 102.109375 -185.67578125 c 0,15,16
 108.004193588 340.374233217 108.004193588 340.374233217 924.297851562 463.022460938 c 2,17,-1
 929.958984375 463.873046875 l 1,18,-1
 924.999023438 466.732421875 l 1,19,-1
 806.702148438 534.927734375 l 2,20,21
 538.164900745 689.904833168 538.164900745 689.904833168 316.461914062 513.758789062 c 2,22,-1
 244.942382812 456.935546875 l 1,23,-1
 129.924804688 586.147460938 l 1,24,-1
 191.008789062 637.67578125 l 6,25,26
 504.966973948 902.972092813 504.966973948 902.972092813 845.700195312 706.46484375 c 2,27,-1
 1034.70214844 597.463867188 l 2,28,29
 1137.00109375 539 1137.00109375 539 1214.63 522.573242188 c 1,30,-1
 1214.63 340.947265625 l 1,31,32
 1146.426875 332 1146.426875 332 1075.71289062 321.979492188 c 0,0,1
EndSplineSet
Substitution2: "'fina' Terminal Forms in Arabic lookup 9 subtable" uniFEA2
Substitution2: "'medi' Medial Forms in Arabic lookup 11 subtable" uniFEA4
Substitution2: "'init' Initial Forms in Arabic lookup 13 subtable" uniFEA3
EndChar

StartChar: uni062F
Encoding: 1583 1583 23
Width: 1011
VWidth: 2551
GlyphClass: 2
Flags: W
AnchorPoint: "Anchor-10" 403.659 1298.16 basechar 0
AnchorPoint: "Anchor-7" 428.382 -244.53 basechar 0
LayerCount: 2
Fore
SplineSet
467.978515625 0 m 2,0,-1
 103.899414062 0 l 1,1,-1
 103.899414062 180 l 1,2,-1
 468.911132812 180 l 2,3,4
 731 180 731 180 731.720703125 307.103515625 c 4,5,6
 731.509280955 375.473127432 731.509280955 375.473127432 629.51171875 493.30859375 c 2,7,-1
 355.844726562 809.482421875 l 1,8,-1
 476.666015625 944.624023438 l 1,9,-1
 775.482421875 596.697265625 l 2,10,11
 908.99609375 441.262695312 908.99609375 441.262695312 908.288085938 295.008789062 c 0,12,13
 907.008789062 0 907.008789062 0 467.978515625 0 c 2,0,-1
EndSplineSet
Substitution2: "'fina' Terminal Forms in Arabic lookup 9 subtable" uniFEAA
EndChar

StartChar: uni0631
Encoding: 1585 1585 25
Width: 755
VWidth: 2551
GlyphClass: 2
Flags: W
AnchorPoint: "Anchor-7" 297.433 -669.366 basechar 0
AnchorPoint: "Anchor-10" 450.527 953.269 basechar 0
LayerCount: 2
Fore
SplineSet
94.1982421875 -284.440429688 m 6,0,1
 482.382162779 -284.818187493 482.382162779 -284.818187493 482.3828125 70.53125 c 6,2,-1
 482.383789062 604.638671875 l 1,3,-1
 656.180664062 605.672851562 l 1,4,-1
 656.180664062 68.02734375 l 6,5,6
 656.000002278 -456.993379728 656.000002278 -456.993379728 96.419921875 -461.412109375 c 6,7,-1
 23.94921875 -461.984375 l 5,8,-1
 23.9521484375 -284.372070312 l 5,9,-1
 94.1982421875 -284.440429688 l 6,0,1
EndSplineSet
PairPos2: "'kern' Horizontal Kerning lookup 15-2" uniFBFE dx=60 dy=0 dh=60 dv=0 dx=0 dy=0 dh=0 dv=0
PairPos2: "'kern' Horizontal Kerning lookup 15-1" uniFEFB dx=-100 dy=0 dh=-100 dv=0 dx=0 dy=0 dh=0 dv=0
PairPos2: "'kern' Horizontal Kerning lookup 15-1" uniFEDF dx=-100 dy=0 dh=-100 dv=0 dx=0 dy=0 dh=0 dv=0
PairPos2: "'kern' Horizontal Kerning lookup 15-1" uni062F dx=-100 dy=0 dh=-100 dv=0 dx=0 dy=0 dh=0 dv=0
PairPos2: "'kern' Horizontal Kerning lookup 15-2" uniFB90 dx=-142 dy=0 dh=-142 dv=0 dx=0 dy=0 dh=0 dv=0
PairPos2: "'kern' Horizontal Kerning lookup 15-2" uniFB8E dx=-142 dy=0 dh=-142 dv=0 dx=0 dy=0 dh=0 dv=0
PairPos2: "'kern' Horizontal Kerning lookup 15-2" uni06A9 dx=-142 dy=0 dh=-142 dv=0 dx=0 dy=0 dh=0 dv=0
PairPos2: "'kern' Horizontal Kerning lookup 15-2" uniFEEB dx=-100 dy=0 dh=-100 dv=0 dx=0 dy=0 dh=0 dv=0
PairPos2: "'kern' Horizontal Kerning lookup 15-2" uni0647 dx=-100 dy=0 dh=-100 dv=0 dx=0 dy=0 dh=0 dv=0
PairPos2: "'kern' Horizontal Kerning lookup 15-2" uniFEE7 dx=-100 dy=0 dh=-100 dv=0 dx=0 dy=0 dh=0 dv=0
PairPos2: "'kern' Horizontal Kerning lookup 15-2" uniFEE3 dx=-100 dy=0 dh=-100 dv=0 dx=0 dy=0 dh=0 dv=0
PairPos2: "'kern' Horizontal Kerning lookup 15-2" uni0645 dx=-100 dy=0 dh=-100 dv=0 dx=0 dy=0 dh=0 dv=0
PairPos2: "'kern' Horizontal Kerning lookup 15-2" uniFEDB dx=-100 dy=0 dh=-100 dv=0 dx=0 dy=0 dh=0 dv=0
PairPos2: "'kern' Horizontal Kerning lookup 15-2" uni0643 dx=-100 dy=0 dh=-100 dv=0 dx=0 dy=0 dh=0 dv=0
PairPos2: "'kern' Horizontal Kerning lookup 15-2" uniFED7 dx=-100 dy=0 dh=-100 dv=0 dx=0 dy=0 dh=0 dv=0
PairPos2: "'kern' Horizontal Kerning lookup 15-2" uniFED3 dx=-100 dy=0 dh=-100 dv=0 dx=0 dy=0 dh=0 dv=0
PairPos2: "'kern' Horizontal Kerning lookup 15-2" uni0641 dx=-100 dy=0 dh=-100 dv=0 dx=0 dy=0 dh=0 dv=0
PairPos2: "'kern' Horizontal Kerning lookup 15-2" uniFECF dx=-100 dy=0 dh=-100 dv=0 dx=0 dy=0 dh=0 dv=0
PairPos2: "'kern' Horizontal Kerning lookup 15-2" uniFECB dx=-100 dy=0 dh=-100 dv=0 dx=0 dy=0 dh=0 dv=0
PairPos2: "'kern' Horizontal Kerning lookup 15-2" uniFEC7 dx=-100 dy=0 dh=-100 dv=0 dx=0 dy=0 dh=0 dv=0
PairPos2: "'kern' Horizontal Kerning lookup 15-2" uni0638 dx=-100 dy=0 dh=-100 dv=0 dx=0 dy=0 dh=0 dv=0
PairPos2: "'kern' Horizontal Kerning lookup 15-2" uniFEC3 dx=-100 dy=0 dh=-100 dv=0 dx=0 dy=0 dh=0 dv=0
PairPos2: "'kern' Horizontal Kerning lookup 15-2" uni0637 dx=-100 dy=0 dh=-100 dv=0 dx=0 dy=0 dh=0 dv=0
PairPos2: "'kern' Horizontal Kerning lookup 15-2" uniFEBF dx=-100 dy=0 dh=-100 dv=0 dx=0 dy=0 dh=0 dv=0
PairPos2: "'kern' Horizontal Kerning lookup 15-2" uni0636 dx=-100 dy=0 dh=-100 dv=0 dx=0 dy=0 dh=0 dv=0
PairPos2: "'kern' Horizontal Kerning lookup 15-2" uniFEBB dx=-100 dy=0 dh=-100 dv=0 dx=0 dy=0 dh=0 dv=0
PairPos2: "'kern' Horizontal Kerning lookup 15-2" uni0635 dx=-100 dy=0 dh=-100 dv=0 dx=0 dy=0 dh=0 dv=0
PairPos2: "'kern' Horizontal Kerning lookup 15-2" uniFEB7 dx=-100 dy=0 dh=-100 dv=0 dx=0 dy=0 dh=0 dv=0
PairPos2: "'kern' Horizontal Kerning lookup 15-2" uni0634 dx=-100 dy=0 dh=-100 dv=0 dx=0 dy=0 dh=0 dv=0
PairPos2: "'kern' Horizontal Kerning lookup 15-2" uniFEB3 dx=-100 dy=0 dh=-100 dv=0 dx=0 dy=0 dh=0 dv=0
PairPos2: "'kern' Horizontal Kerning lookup 15-2" uni0633 dx=-100 dy=0 dh=-100 dv=0 dx=0 dy=0 dh=0 dv=0
PairPos2: "'kern' Horizontal Kerning lookup 15-2" uniFEA7 dx=-100 dy=0 dh=-100 dv=0 dx=0 dy=0 dh=0 dv=0
PairPos2: "'kern' Horizontal Kerning lookup 15-2" uniFEA3 dx=-100 dy=0 dh=-100 dv=0 dx=0 dy=0 dh=0 dv=0
PairPos2: "'kern' Horizontal Kerning lookup 15-2" uniFE9F dx=-100 dy=0 dh=-100 dv=0 dx=0 dy=0 dh=0 dv=0
PairPos2: "'kern' Horizontal Kerning lookup 15-2" uniFE9B dx=-100 dy=0 dh=-100 dv=0 dx=0 dy=0 dh=0 dv=0
PairPos2: "'kern' Horizontal Kerning lookup 15-2" uni062B dx=-100 dy=0 dh=-100 dv=0 dx=0 dy=0 dh=0 dv=0
PairPos2: "'kern' Horizontal Kerning lookup 15-2" uniFE97 dx=-100 dy=0 dh=-100 dv=0 dx=0 dy=0 dh=0 dv=0
PairPos2: "'kern' Horizontal Kerning lookup 15-2" uni062A dx=-100 dy=0 dh=-100 dv=0 dx=0 dy=0 dh=0 dv=0
PairPos2: "'kern' Horizontal Kerning lookup 15-2" uni0629 dx=-100 dy=0 dh=-100 dv=0 dx=0 dy=0 dh=0 dv=0
PairPos2: "'kern' Horizontal Kerning lookup 15-2" uniFE91 dx=-47 dy=0 dh=-47 dv=0 dx=0 dy=0 dh=0 dv=0
PairPos2: "'kern' Horizontal Kerning lookup 15-2" uni0628 dx=-100 dy=0 dh=-100 dv=0 dx=0 dy=0 dh=0 dv=0
PairPos2: "'kern' Horizontal Kerning lookup 15-2" uni0627 dx=-160 dy=0 dh=-160 dv=0 dx=0 dy=0 dh=0 dv=0
PairPos2: "'kern' Horizontal Kerning lookup 15-2" uni0622 dx=-160 dy=0 dh=-160 dv=0 dx=0 dy=0 dh=0 dv=0
PairPos2: "'kern' Horizontal Kerning lookup 15-2" uni0621 dx=-100 dy=0 dh=-100 dv=0 dx=0 dy=0 dh=0 dv=0
PairPos2: "'kern' Horizontal Kerning lookup 15-2" uniFB94 dx=-142 dy=0 dh=-142 dv=0 dx=0 dy=0 dh=0 dv=0
PairPos2: "'kern' Horizontal Kerning lookup 15-2" uniFB92 dx=-142 dy=0 dh=-142 dv=0 dx=0 dy=0 dh=0 dv=0
PairPos2: "'kern' Horizontal Kerning lookup 15-2" afii57509 dx=-142 dy=0 dh=-142 dv=0 dx=0 dy=0 dh=0 dv=0
PairPos2: "'kern' Horizontal Kerning lookup 15-2" uniFB7C dx=-100 dy=0 dh=-100 dv=0 dx=0 dy=0 dh=0 dv=0
PairPos2: "'kern' Horizontal Kerning lookup 15-2" afii57506 dx=-100 dy=0 dh=-100 dv=0 dx=0 dy=0 dh=0 dv=0
PairPos2: "'kern' Horizontal Kerning lookup 15-2" afii57440 dx=-94 dy=0 dh=-94 dv=0 dx=0 dy=0 dh=0 dv=0
Substitution2: "'fina' Terminal Forms in Arabic lookup 9 subtable" uniFEAE
EndChar

StartChar: uni0633
Encoding: 1587 1587 27
Width: 2484
VWidth: 2551
GlyphClass: 2
Flags: W
AnchorPoint: "Anchor-7" 691 -667.5 basechar 0
AnchorPoint: "Anchor-10" 1778.4 1063.57 basechar 0
LayerCount: 2
Fore
SplineSet
1533.38085938 -1.06640625 m 4,0,1
 1408.66695097 0.195881686223 1408.66695097 0.195881686223 1331.01757812 81.4501953125 c 2,2,-1
 1327.57128906 85.0556640625 l 1,3,-1
 1327.57128906 80.068359375 l 1,4,-1
 1327.57128906 51.861328125 l 2,5,6
 1327.99804688 -450.940429688 1327.99804688 -450.940429688 748.819335938 -450.940429688 c 2,7,-1
 694.1015625 -450.940429688 l 2,8,9
 103.31640625 -451 103.31640625 -451 103.12109375 101.27734375 c 2,10,-1
 103.000976562 442 l 1,11,-1
 279.877929688 442.033203125 l 1,12,-1
 279.877929688 102.448242188 l 2,13,14
 280.000976562 -269.639648438 280.000976562 -269.639648438 696.272460938 -269.639648438 c 2,15,-1
 747.383789062 -269.639648438 l 2,16,17
 1164.34960938 -270.001953125 1164.34960938 -270.001953125 1164.16210938 46.55859375 c 2,18,-1
 1163.81542969 630.819335938 l 1,19,-1
 1340.26757812 630.91015625 l 1,20,-1
 1340.26757812 397.297851562 l 2,21,22
 1339.99707031 180.010742188 1339.99707031 180.010742188 1532.97070312 178.93359375 c 0,23,24
 1702.07796931 177.987985433 1702.07796931 177.987985433 1702.61328125 371.668945312 c 2,25,-1
 1703.33398438 632.62109375 l 1,26,-1
 1878.46777344 632.62109375 l 1,27,-1
 1879.80957031 373.606445312 l 2,28,29
 1881.01316213 180.01242629 1881.01316213 180.01242629 2055.44726562 178.93359375 c 0,30,31
 2206.94824219 178.02734375 2206.94824219 178.02734375 2206.94824219 369.92578125 c 2,32,-1
 2206.94824219 666.295898438 l 1,33,-1
 2381.70605469 666.295898438 l 1,34,-1
 2381.70605469 361.9609375 l 2,35,36
 2381.9984398 -1.00008983012 2381.9984398 -1.00008983012 2056.42382812 -1.06640625 c 0,37,38
 1872.2107788 -0.999996422224 1872.2107788 -0.999996422224 1798.80957031 141.63671875 c 1,39,40
 1731 -1 1731 -1 1533.38085938 -1.06640625 c 4,0,1
EndSplineSet
Substitution2: "'fina' Terminal Forms in Arabic lookup 9 subtable" uniFEB2
Substitution2: "'medi' Medial Forms in Arabic lookup 11 subtable" uniFEB4
Substitution2: "'init' Initial Forms in Arabic lookup 13 subtable" uniFEB3
EndChar

StartChar: uni0635
Encoding: 1589 1589 29
Width: 2515
VWidth: 2551
GlyphClass: 2
Flags: W
AnchorPoint: "Anchor-10" 2006.4 1267.57 basechar 0
AnchorPoint: "Anchor-7" 691 -667.5 basechar 0
LayerCount: 2
Fore
SplineSet
1340.26757812 417.294921875 m 2,0,1
 1340.26757812 232.365137675 1340.26757812 232.365137675 1437.49609375 207.064453125 c 2,2,-1
 1439.19238281 206.623046875 l 1,3,-1
 1439.85253906 208.24609375 l 2,4,5
 1670 775 1670 775 2017.5 775 c 0,6,7
 2223 775 2223 775 2329.40917969 633.6953125 c 0,8,9
 2413 524 2413 524 2412.5625 367.452148438 c 4,10,11
 2412 190 2412 190 2278.78808594 86.4638671875 c 0,12,13
 2167 0 2167 0 1961.26464844 0 c 2,14,-1
 1621.32421875 0 l 2,15,16
 1386 0 1386 0 1327.57128906 86.6025390625 c 1,17,-1
 1327.57128906 51.861328125 l 2,18,19
 1327.99994921 -450.940429688 1327.99994921 -450.940429688 748.819335938 -450.940429688 c 2,20,-1
 694.1015625 -450.940429688 l 2,21,22
 103.315791685 -450.999968175 103.315791685 -450.999968175 103.12109375 101.27734375 c 2,23,-1
 103.000976562 442 l 1,24,-1
 279.877929688 442.033203125 l 1,25,-1
 279.877929688 102.448242188 l 2,26,27
 279.999881894 -269.639648438 279.999881894 -269.639648438 696.272460938 -269.639648438 c 2,28,-1
 747.383789062 -269.639648438 l 2,29,30
 1164.34994424 -270.000302684 1164.34994424 -270.000302684 1164.16210938 46.55859375 c 2,31,-1
 1163.81542969 630.819335938 l 1,32,-1
 1340.26757812 630.91015625 l 1,33,-1
 1340.26757812 417.294921875 l 2,0,1
2226.52734375 422.188476562 m 0,34,35
 2186.58398438 592 2186.58398438 592 2007.12109375 592.013671875 c 0,36,37
 1805.64537514 591.999995682 1805.64537514 591.999995682 1619.90625 180.52734375 c 1,38,-1
 1623.00390625 180.52734375 l 1,39,-1
 1981.26757812 180.52734375 l 2,40,41
 2129.10351562 181.009765625 2129.10351562 181.009765625 2188.32617188 233.502929688 c 0,42,43
 2233 273.100585938 2233 273.100585938 2233 347 c 0,44,45
 2233 392.216522791 2233 392.216522791 2226.52734375 422.188476562 c 0,34,35
EndSplineSet
Substitution2: "'fina' Terminal Forms in Arabic lookup 9 subtable" uniFEBA
Substitution2: "'medi' Medial Forms in Arabic lookup 11 subtable" uniFEBC
Substitution2: "'init' Initial Forms in Arabic lookup 13 subtable" uniFEBB
EndChar

StartChar: uni0637
Encoding: 1591 1591 31
Width: 1369
VWidth: 2551
GlyphClass: 2
Flags: W
AnchorPoint: "Anchor-7" 609.72 -238 basechar 0
AnchorPoint: "Anchor-10" 471.723 1494.59 basechar 0
LayerCount: 2
Fore
SplineSet
814.940429688 0 m 2,0,-1
 103.770507812 0 l 1,1,-1
 103.770507812 180.198242188 l 1,2,-1
 282.998046875 180 l 1,3,-1
 284.44140625 179.998046875 l 1,4,-1
 284.897460938 181.3671875 l 2,5,6
 299.201653356 222.451361239 299.201653356 222.451361239 392.672851562 399.182617188 c 2,7,-1
 392.905273438 399.622070312 l 1,8,-1
 392.905273438 1334.64355469 l 5,9,-1
 559 1334.64355469 l 5,10,-1
 559 630.859375 l 1,11,-1
 559 626.07421875 l 1,12,-1
 562.405273438 629.436523438 l 2,13,14
 710 775 710 775 872.17578125 775 c 0,15,16
 1073 775 1073 775 1183.09082031 633.686523438 c 0,17,18
 1266 527 1266 527 1266.23828125 367.448242188 c 0,19,20
 1267 190 1267 190 1132.4609375 86.4619140625 c 0,21,22
 1019 0 1019 0 814.940429688 0 c 2,0,-1
860.796875 592.013671875 m 0,23,24
 658.712750186 592.013671875 658.712750186 592.013671875 474.85546875 183.34765625 c 2,25,-1
 473.586914062 180.52734375 l 1,26,-1
 476.6796875 180.52734375 l 1,27,-1
 834.943359375 180.52734375 l 2,28,29
 984.859764373 181.012432585 984.859764373 181.012432585 1041.99707031 233.498046875 c 0,30,31
 1085 273 1085 273 1086.67578125 346.997070312 c 0,32,33
 1087.00195312 392.216796875 1087.00195312 392.216796875 1080.19921875 422.202148438 c 0,34,35
 1040.58442303 592.013671875 1040.58442303 592.013671875 860.796875 592.013671875 c 0,23,24
EndSplineSet
Substitution2: "'fina' Terminal Forms in Arabic lookup 9 subtable" uniFEC2
Substitution2: "'medi' Medial Forms in Arabic lookup 11 subtable" uniFEC4
Substitution2: "'init' Initial Forms in Arabic lookup 13 subtable" uniFEC3
EndChar

StartChar: uni0639
Encoding: 1593 1593 33
Width: 1249
VWidth: 2551
GlyphClass: 2
Flags: W
AnchorPoint: "Anchor-7" 471.334 -835.653 basechar 0
AnchorPoint: "Anchor-10" 711.349 1351.99 basechar 0
LayerCount: 2
Fore
SplineSet
102.109375 -177.680664062 m 0,0,1
 106.98046875 175.572265625 106.98046875 175.572265625 498.021484375 311.8125 c 2,2,-1
 501.27734375 312.947265625 l 1,3,-1
 498.67578125 315.209960938 l 2,4,5
 368 428.911132812 368 428.911132812 368.03125 572.897460938 c 0,6,7
 368.995117188 745.181640625 368.995117188 745.181640625 477.053710938 855.924804688 c 0,8,9
 586.83984375 967.999023438 586.83984375 967.999023438 762.986328125 967.866210938 c 0,10,11
 948.381835938 967.999023438 948.381835938 967.999023438 1069.28222656 818.486328125 c 1,12,-1
 996.868164062 685.868164062 l 1,13,14
 895.522460938 783.998046875 895.522460938 783.998046875 767.290039062 783.451171875 c 0,15,16
 646.99609375 782.99609375 646.99609375 782.99609375 581.365234375 695.325195312 c 0,17,18
 544.006835938 644.666992188 544.006835938 644.666992188 543.263671875 574.735351562 c 0,19,20
 542.995694245 454.837287612 542.995694245 454.837287612 699.504882812 366.102539062 c 5,21,-1
 700.641601562 365.848632812 l 1,22,23
 810.387695312 374.098632812 810.387695312 374.098632812 941.159179688 374.096679688 c 2,24,-1
 1108.67871094 374.092773438 l 1,25,-1
 1108.67871094 192.700195312 l 1,26,-1
 924.998046875 192.591796875 l 2,27,28
 271.991210938 191.998046875 271.991210938 191.998046875 273.6875 -179.783203125 c 0,29,30
 275.005859375 -519.563476562 275.005859375 -519.563476562 804.477539062 -519.172851562 c 2,31,-1
 1146.33007812 -518.920898438 l 1,32,-1
 1146.33007812 -695.469726562 l 1,33,-1
 792.451171875 -694.58203125 l 2,34,35
 402.8046875 -694.000976562 402.8046875 -694.000976562 242.442382812 -540.393554688 c 0,36,37
 99.01171875 -402.161132812 99.01171875 -402.161132812 102.109375 -177.680664062 c 0,0,1
EndSplineSet
Substitution2: "'fina' Terminal Forms in Arabic lookup 9 subtable" uniFECA
Substitution2: "'medi' Medial Forms in Arabic lookup 11 subtable" uniFECC
Substitution2: "'init' Initial Forms in Arabic lookup 13 subtable" uniFECB
EndChar

StartChar: afii57440
Encoding: 1600 1600 35
Width: 250
VWidth: 2551
GlyphClass: 2
Flags: W
AnchorPoint: "Anchor-10" 125.758 1501.26 basechar 0
AnchorPoint: "Anchor-7" 129.758 -172.351 basechar 0
LayerCount: 2
Fore
SplineSet
254.9765625 180 m 2,0,1
 277.9765625 180 277.9765625 180 277.9765625 97 c 2,2,-1
 277.9765625 85.9990234375 l 2,3,4
 277.999023438 0 277.999023438 0 254.9765625 0 c 2,5,-1
 -5.0234375 0 l 2,6,7
 -58.0234375 0 -58.0234375 0 -58.0234375 86 c 2,8,-1
 -58.0234375 96.9990234375 l 2,9,10
 -58.0002889719 180 -58.0002889719 180 -5.0234375 180 c 6,11,-1
 254.9765625 180 l 2,0,1
EndSplineSet
EndChar

StartChar: uni0643
Encoding: 1603 1603 38
Width: 1889
VWidth: 2551
GlyphClass: 2
Flags: W
AnchorPoint: "Anchor-7" 849.692 -232.794 basechar 0
AnchorPoint: "Anchor-10" 927.382 1477.15 basechar 0
LayerCount: 2
Fore
SplineSet
703.264648438 739.659179688 m 2,0,1
 768.076171875 731.491210938 768.076171875 731.491210938 832.82421875 731.491210938 c 0,2,3
 854.479492188 731.491210938 854.479492188 731.491210938 875.1328125 733.905273438 c 128,-1,4
 895.786132812 736.319335938 895.786132812 736.319335938 915.446289062 741.151367188 c 128,-1,5
 935.10546875 745.983398438 935.10546875 745.983398438 953.752929688 753.23046875 c 0,6,7
 1039.05957031 786.38671875 1039.05957031 786.38671875 1039.05957031 839.939453125 c 0,8,9
 1039.05957031 867.02734375 1039.05957031 867.02734375 1015.71191406 884.123046875 c 128,-1,10
 992.365234375 901.21875 992.365234375 901.21875 946.48828125 908.477539062 c 0,11,12
 856.395507812 922.731445312 856.395507812 922.731445312 820.8125 969.272460938 c 0,13,14
 766.743164062 1039.98828125 766.743164062 1039.98828125 790.8984375 1115.90917969 c 0,15,16
 814.237304688 1189.26855469 814.237304688 1189.26855469 891.549804688 1230.94726562 c 128,-1,17
 968.861328125 1272.625 968.861328125 1272.625 1100.59375 1282.41601562 c 2,18,-1
 1127.71484375 1284.43066406 l 1,19,-1
 1127.71484375 1188.00195312 l 1,20,-1
 1104.51269531 1186.11425781 l 2,21,22
 996.02734375 1177.29003906 996.02734375 1177.29003906 941.309570312 1148.74511719 c 128,-1,23
 886.592773438 1120.20019531 886.592773438 1120.20019531 886.592773438 1071.37695312 c 0,24,25
 886.592773438 1021.31835938 886.592773438 1021.31835938 941.919921875 1003.51660156 c 0,26,27
 969.919921875 994.508789062 969.919921875 994.508789062 1021.48925781 986.923828125 c 0,28,29
 1034.20605469 985.053710938 1034.20605469 985.053710938 1045.80957031 981.638671875 c 128,-1,30
 1057.41308594 978.223632812 1057.41308594 978.223632812 1067.90917969 973.262695312 c 128,-1,31
 1078.40625 968.301757812 1078.40625 968.301757812 1087.79980469 961.801757812 c 128,-1,32
 1097.19433594 955.30078125 1097.19433594 955.30078125 1105.50585938 947.249023438 c 0,33,34
 1138.609375 915.182617188 1138.609375 915.182617188 1138.609375 858.932617188 c 0,35,36
 1138.609375 802.413085938 1138.609375 802.413085938 1115.6171875 765.883789062 c 0,37,38
 1003.62207031 587.952148438 1003.62207031 587.952148438 696.20703125 636.000976562 c 2,39,-1
 674.857421875 639.33984375 l 1,40,-1
 674.857421875 743.239257812 l 1,41,-1
 703.264648438 739.659179688 l 2,0,1
537.549804688 180 m 2,42,-1
 1351.84667969 180 l 2,43,44
 1579.41601562 179.981414803 1579.41601562 179.981414803 1579.41601562 448.396484375 c 2,45,-1
 1579.41601562 1333.18847656 l 5,46,-1
 1746.17382812 1333.18847656 l 5,47,-1
 1746.17382812 445.392578125 l 2,48,49
 1746 0 1746 0 1346.62988281 0 c 2,50,-1
 534.767578125 0 l 2,51,52
 102.229582745 6.86895873514e-10 102.229582745 6.86895873514e-10 102.227539062 441.629882812 c 2,53,-1
 102.2265625 652.66015625 l 1,54,-1
 276.984375 652.66015625 l 1,55,-1
 276.984375 442.541015625 l 2,56,57
 277 180 277 180 537.549804688 180 c 2,42,-1
EndSplineSet
Substitution2: "'fina' Terminal Forms in Arabic lookup 9 subtable" uniFEDA
Substitution2: "'medi' Medial Forms in Arabic lookup 11 subtable" uniFEDC
Substitution2: "'init' Initial Forms in Arabic lookup 13 subtable" uniFEDB
EndChar

StartChar: uni0644
Encoding: 1604 1604 39
Width: 1337
VWidth: 2551
GlyphClass: 2
Flags: W
AnchorPoint: "Anchor-10" 604.754 1189.62 basechar 0
AnchorPoint: "Anchor-7" 691 -667.5 basechar 0
LayerCount: 2
Fore
SplineSet
277.877929688 102.44921875 m 2,0,1
 277.877929688 -265.5148158 277.877929688 -265.5148158 644.356445312 -265.528320312 c 2,2,-1
 697.359375 -265.530273438 l 2,3,4
 1029.36192046 -266.000512631 1029.36192046 -266.000512631 1029.36523438 86.416015625 c 2,5,-1
 1029.37695312 1332.63671875 l 5,6,-1
 1194.296875 1332.63671875 l 5,7,-1
 1193.25488281 81.986328125 l 2,8,9
 1193.00008187 -446.830078125 1193.00008187 -446.830078125 690.430664062 -446.830078125 c 2,10,-1
 644.185546875 -446.830078125 l 2,11,12
 103.314381516 -446.99990129 103.314381516 -446.99990129 103.12109375 101.27734375 c 2,13,-1
 103.000976562 442 l 1,14,-1
 277.877929688 442.033203125 l 1,15,-1
 277.877929688 102.44921875 l 2,0,1
EndSplineSet
Substitution2: "'fina' Terminal Forms in Arabic lookup 9 subtable" uniFEDE
Substitution2: "'medi' Medial Forms in Arabic lookup 11 subtable" uniFEE0
Substitution2: "'init' Initial Forms in Arabic lookup 13 subtable" uniFEDF
EndChar

StartChar: uni0645
Encoding: 1605 1605 40
Width: 1310
VWidth: 2551
GlyphClass: 2
Flags: W
AnchorPoint: "Anchor-10" 675.565 1148.03 basechar 0
AnchorPoint: "Anchor-7" 722.389 -325.648 basechar 0
LayerCount: 2
Fore
SplineSet
842.840820312 569.490234375 m 2,0,-1
 685.830078125 569.490234375 l 1,1,-1
 683.830078125 569.490234375 l 1,2,-1
 683.830078125 567.490234375 l 1,3,-1
 683.830078125 368.114257812 l 2,4,5
 684.001953125 139.000976562 684.001953125 139.000976562 868.741210938 138.890625 c 0,6,7
 1035.09082031 139.000976562 1035.09082031 139.000976562 1035.08984375 368 c 2,8,-1
 1035.08984375 409.823242188 l 2,9,10
 1034.99902344 568.995117188 1034.99902344 568.995117188 842.840820312 569.490234375 c 2,0,-1
858.190429688 740.5390625 m 2,11,12
 1207.76953125 740.5390625 1207.76953125 740.5390625 1207.76953125 411 c 2,13,-1
 1207.76953125 367.004882812 l 2,14,15
 1207.99902344 -20.9970703125 1207.99902344 -20.9970703125 868.743164062 -20.4755859375 c 0,16,17
 510.888671875 -20.0029296875 510.888671875 -20.0029296875 510.889648438 366.30859375 c 2,18,-1
 510.889648438 551.943359375 l 1,19,-1
 510.889648438 554.149414062 l 1,20,-1
 508.694335938 553.93359375 l 2,21,22
 390.795898438 542.368164062 390.795898438 542.368164062 331.903320312 443.42578125 c 128,-1,23
 273.010742188 344.484375 273.010742188 344.484375 273.010742188 159.032226562 c 2,24,-1
 273.010742188 -496.416992188 l 1,25,-1
 102.94921875 -496.416992188 l 1,26,-1
 102.94921875 151.587890625 l 1,27,-1
 102.954101562 157.592773438 l 2,28,29
 102.00390625 740.500976562 102.00390625 740.500976562 583.255859375 740.525390625 c 2,30,-1
 858.190429688 740.5390625 l 2,11,12
EndSplineSet
Substitution2: "'init' Initial Forms in Arabic lookup 13 subtable" uniFEE3
Substitution2: "'medi' Medial Forms in Arabic lookup 11 subtable" uniFEE4
Substitution2: "'fina' Terminal Forms in Arabic lookup 9 subtable" uniFEE2
EndChar

StartChar: uni0647
Encoding: 1607 1607 42
Width: 924
VWidth: 2328
GlyphClass: 2
Flags: W
AnchorPoint: "Anchor-10" 421.833 1139.93 basechar 0
AnchorPoint: "Anchor-7" 439.418 -198.202 basechar 0
LayerCount: 2
Fore
SplineSet
456.407226562 624.049804688 m 2,0,1
 269.999671585 466.831649792 269.999671585 466.831649792 269.731445312 329.334960938 c 4,2,3
 270 177 270 177 471.716796875 176.935546875 c 0,4,5
 659 177 659 177 659.15625 332.551757812 c 4,6,7
 659.000030976 462.974138849 659.000030976 462.974138849 458.951171875 624.078125 c 2,8,-1
 457.666992188 625.112304688 l 1,9,-1
 456.407226562 624.049804688 l 2,0,1
102.951171875 312.149414062 m 4,10,11
 103.000036116 525.157434737 103.000036116 525.157434737 339.510742188 740.076171875 c 2,12,-1
 341.125976562 741.543945312 l 1,13,-1
 339.5234375 743.025390625 l 1,14,-1
 302.162109375 777.568359375 l 1,15,-1
 405.494140625 897.848632812 l 1,16,17
 828 595 828 595 827.499023438 327.071289062 c 4,18,19
 827 0 827 0 470.145507812 0.9775390625 c 0,20,21
 103 2 103 2 102.951171875 312.149414062 c 4,10,11
EndSplineSet
Substitution2: "'fina' Terminal Forms in Arabic lookup 9 subtable" uniFEEA
Substitution2: "'medi' Medial Forms in Arabic lookup 11 subtable" uniFEEC
Substitution2: "'init' Initial Forms in Arabic lookup 13 subtable" uniFEEB
EndChar

StartChar: uni0648
Encoding: 1608 1608 43
Width: 877
VWidth: 2551
GlyphClass: 2
Flags: W
AnchorPoint: "Anchor-10" 438.019 1059.88 basechar 0
AnchorPoint: "Anchor-7" 367.433 -669.366 basechar 0
LayerCount: 2
Fore
SplineSet
782.66015625 354.952148438 m 2,0,-1
 782.66015625 -2.001953125 l 2,1,2
 782.999848918 -460.7959468 782.999848918 -460.7959468 214.754882812 -460.412109375 c 2,3,-1
 141.022460938 -460.362304688 l 1,4,-1
 140.921875 -281.197265625 l 1,5,-1
 208.879882812 -281.265625 l 2,6,7
 612.082581107 -282.00015044 612.082581107 -282.00015044 612.900390625 -1.900390625 c 2,8,-1
 612.90625 0.1064453125 l 1,9,-1
 610.900390625 0.1064453125 l 1,10,-1
 451.038085938 0.1064453125 l 2,11,12
 102 0 102 0 103.076171875 341.71875 c 0,13,14
 104 526 104 526 190.793945312 623.671875 c 0,15,16
 281.54685352 721.12153303 281.54685352 721.12153303 449.576171875 724.58984375 c 4,17,18
 599 725 599 725 687.814453125 638.557617188 c 0,19,20
 783 547 783 547 782.66015625 354.952148438 c 2,0,-1
269.859375 343.225585938 m 0,21,22
 270.001953125 181.077148438 270.001953125 181.077148438 449.999023438 181 c 2,23,-1
 611.708984375 180.930664062 l 1,24,-1
 613.715820312 180.9296875 l 1,25,-1
 613.709960938 182.936523438 l 1,26,-1
 613.258789062 349.002929688 l 2,27,28
 612.997070312 554.0078125 612.997070312 554.0078125 445.608398438 553.374023438 c 0,29,30
 270.000976562 552.99609375 270.000976562 552.99609375 269.859375 343.225585938 c 0,21,22
EndSplineSet
Substitution2: "'fina' Terminal Forms in Arabic lookup 9 subtable" uniFEEE
EndChar

StartChar: uni0649
Encoding: 1609 1609 44
Width: 1446
VWidth: 2551
GlyphClass: 2
Flags: W
AnchorPoint: "Anchor-7" 641 -667.5 basechar 0
AnchorPoint: "Anchor-10" 604 1219.43 basechar 0
LayerCount: 2
Fore
SplineSet
1060.77441406 229.370117188 m 2,0,1
 1343.12792969 229.370117188 1343.12792969 229.370117188 1343.12792969 9.36328125 c 2,2,-1
 1343.12792969 -19.9765625 l 2,3,4
 1343.00097656 -449.280273438 1343.00097656 -449.280273438 775.421875 -449.280273438 c 2,5,-1
 690.942382812 -449.280273438 l 2,6,7
 102.625976562 -449.000976562 102.625976562 -449.000976562 102.267578125 104.034179688 c 2,8,-1
 102.000976562 515 l 1,9,-1
 277.022460938 515 l 1,10,-1
 277.022460938 105.206054688 l 2,11,12
 277 -267.98046875 277 -267.98046875 693.11328125 -267.98046875 c 2,13,-1
 784.020507812 -267.98046875 l 2,14,15
 1170.71875 -268 1170.71875 -268 1170.71875 -37.583984375 c 2,16,-1
 1170.71875 -25.85546875 l 2,17,18
 1171.00585938 54.7392578125 1171.00585938 54.7392578125 1060.29003906 54.740234375 c 2,19,-1
 898.979492188 54.7412109375 l 2,20,21
 727.765625 54.9970703125 727.765625 54.9970703125 727.765625 219.583007812 c 2,22,-1
 727.765625 285.376953125 l 2,23,24
 727.8828125 520.896484375 727.8828125 520.896484375 832.965820312 638.346679688 c 128,-1,25
 938.048828125 755.795898438 938.048828125 755.795898438 1148.53417969 755.901367188 c 2,26,-1
 1343.00976562 755.999023438 l 1,27,-1
 1343.88183594 570.604492188 l 1,28,-1
 1107.28613281 570.604492188 l 2,29,30
 907.96875 571.00390625 907.96875 571.00390625 902.522460938 292.041992188 c 2,31,-1
 901.338867188 231.409179688 l 1,32,-1
 901.299804688 229.370117188 l 1,33,-1
 903.338867188 229.370117188 l 1,34,-1
 1060.77441406 229.370117188 l 2,0,1
EndSplineSet
Substitution2: "'fina' Terminal Forms in Arabic lookup 9 subtable" uniFEF0
Substitution2: "'medi' Medial Forms in Arabic lookup 11 subtable" uniFBE9
Substitution2: "'init' Initial Forms in Arabic lookup 13 subtable" uniFBE8
EndChar

StartChar: uni064B
Encoding: 1611 1611 46
Width: 0
VWidth: 2184
GlyphClass: 4
Flags: W
AnchorPoint: "Anchor-10" 544.872 1088.61 mark 0
AnchorPoint: "Anchor-9" 544.872 1088.61 mark 0
AnchorPoint: "Anchor-1" 544.872 1516.61 basemark 0
AnchorPoint: "Anchor-1" 544.872 1088.61 mark 0
LayerCount: 2
Fore
SplineSet
337.400390625 1052.78515625 m 1,0,-1
 337.400390625 1150.12011719 l 1,1,-1
 728.599609375 1310.08496094 l 1,2,-1
 728.599609375 1212.75 l 1,3,-1
 337.400390625 1052.78515625 l 1,0,-1
337.400390625 1259.98535156 m 1,4,-1
 337.400390625 1357.3203125 l 1,5,-1
 728.599609375 1517.28515625 l 1,6,-1
 728.599609375 1419.95019531 l 1,7,-1
 337.400390625 1259.98535156 l 1,4,-1
EndSplineSet
EndChar

StartChar: uni064C
Encoding: 1612 1612 47
Width: 0
VWidth: 2184
GlyphClass: 4
Flags: W
AnchorPoint: "Anchor-10" 552.791 1209.53 mark 0
AnchorPoint: "Anchor-9" 552.791 1209.53 mark 0
AnchorPoint: "Anchor-1" 546.391 1733.93 basemark 0
AnchorPoint: "Anchor-1" 552.791 1209.53 mark 0
LayerCount: 2
Fore
SplineSet
646.553710938 1470.50488281 m 1,0,-1
 655.373046875 1491.08105469 l 2,1,2
 659.725585938 1501.23535156 659.725585938 1501.23535156 661.90234375 1512.09375 c 128,-1,3
 664.079101562 1522.95117188 664.079101562 1522.95117188 664.079101562 1534.48535156 c 0,4,5
 664.079101562 1569.4453125 664.079101562 1569.4453125 645.009765625 1585.140625 c 0,6,7
 627.0234375 1599.95703125 627.0234375 1599.95703125 605.456054688 1599.95703125 c 0,8,9
 582.02734375 1599.95703125 582.02734375 1599.95703125 568.768554688 1589.67382812 c 0,10,11
 558.674804688 1582.07714844 558.674804688 1582.07714844 553.608398438 1570.78613281 c 128,-1,12
 548.54296875 1559.49511719 548.54296875 1559.49511719 548.54296875 1544.75683594 c 0,13,14
 548.54296875 1504.69042969 548.54296875 1504.69042969 594.858398438 1486.16308594 c 0,15,16
 603.663085938 1482.64257812 603.663085938 1482.64257812 613.74609375 1479.13476562 c 128,-1,17
 623.828125 1475.62792969 623.828125 1475.62792969 635.19140625 1472.13378906 c 2,18,-1
 644.126953125 1469.38183594 l 1,19,-1
 645.845703125 1468.85253906 l 1,20,-1
 646.553710938 1470.50488281 l 1,0,-1
564.450195312 1322.72167969 m 0,21,22
 581.033203125 1338.85644531 581.033203125 1338.85644531 594.060546875 1356.38769531 c 128,-1,23
 607.087890625 1373.91992188 607.087890625 1373.91992188 616.546875 1392.83886719 c 2,24,-1
 622.5625 1404.87011719 l 1,25,-1
 623.719726562 1407.18457031 l 1,26,-1
 621.188476562 1407.72070312 l 1,27,-1
 608.02734375 1410.51269531 l 2,28,29
 599.208984375 1412.38183594 599.208984375 1412.38183594 591.3203125 1414.77050781 c 128,-1,30
 583.430664062 1417.15820312 583.430664062 1417.15820312 576.477539062 1420.05859375 c 128,-1,31
 569.5234375 1422.95898438 569.5234375 1422.95898438 563.466796875 1426.38378906 c 0,32,33
 546.169921875 1435.51269531 546.169921875 1435.51269531 532.370117188 1445.72851562 c 128,-1,34
 518.571289062 1455.94335938 518.571289062 1455.94335938 508.272460938 1467.22265625 c 128,-1,35
 497.974609375 1478.50195312 497.974609375 1478.50195312 491.126953125 1490.88867188 c 128,-1,36
 484.279296875 1503.27636719 484.279296875 1503.27636719 480.875 1516.7265625 c 128,-1,37
 477.470703125 1530.17773438 477.470703125 1530.17773438 477.470703125 1544.75683594 c 0,38,39
 477.470703125 1613.04785156 477.470703125 1613.04785156 531.57421875 1653.82128906 c 0,40,41
 552.237304688 1669.31738281 552.237304688 1669.31738281 602.03125 1669.31738281 c 0,42,43
 659.475585938 1669.31738281 659.475585938 1669.31738281 690.071289062 1639.48242188 c 0,44,45
 733.438476562 1596.91015625 733.438476562 1596.91015625 733.438476562 1534.48535156 c 0,46,47
 733.438476562 1503.00976562 733.438476562 1503.00976562 723.743164062 1472.30371094 c 2,48,-1
 719.696289062 1459.49511719 l 1,49,-1
 718.91796875 1457.03027344 l 1,50,-1
 721.499023438 1456.89550781 l 1,51,-1
 734.916992188 1456.19238281 l 2,52,53
 750.9921875 1455.34277344 750.9921875 1455.34277344 763.470703125 1455.31738281 c 0,54,55
 773.236328125 1454.79394531 773.236328125 1454.79394531 783.942382812 1454.578125 c 1,56,-1
 783.942382812 1385.14648438 l 1,57,58
 767.985351562 1385.27734375 767.985351562 1385.27734375 757.6484375 1385.65917969 c 128,-1,59
 747.311523438 1386.04003906 747.311523438 1386.04003906 740.177734375 1386.75585938 c 2,60,-1
 688.08984375 1391.76464844 l 1,61,-1
 686.6328125 1391.90429688 l 1,62,-1
 686.05859375 1390.55859375 l 1,63,-1
 683.071289062 1383.55761719 l 2,64,65
 661.70703125 1333.43066406 661.70703125 1333.43066406 599.146484375 1268.36914062 c 0,66,67
 564.557617188 1233.375 564.557617188 1233.375 528.482421875 1215.93359375 c 128,-1,68
 492.407226562 1198.49316406 492.407226562 1198.49316406 454.796875 1198.49316406 c 0,69,70
 349.275390625 1198.3828125 349.275390625 1198.3828125 320.9921875 1321.95507812 c 0,71,72
 318.73828125 1331.10546875 318.73828125 1331.10546875 316.889648438 1341.33105469 c 128,-1,73
 315.041992188 1351.55664062 315.041992188 1351.55664062 313.622070312 1362.69726562 c 128,-1,74
 312.203125 1373.83789062 312.203125 1373.83789062 311.200195312 1385.89648438 c 128,-1,75
 310.196289062 1397.95507812 310.196289062 1397.95507812 309.62109375 1410.83007812 c 128,-1,76
 309.044921875 1423.70507812 309.044921875 1423.70507812 308.895507812 1437.34082031 c 1,77,-1
 361.140625 1437.34082031 l 1,78,79
 361.404296875 1415.41113281 361.404296875 1415.41113281 362.712890625 1397.56445312 c 128,-1,80
 364.021484375 1379.71777344 364.021484375 1379.71777344 366.427734375 1365.32128906 c 128,-1,81
 368.833007812 1350.92480469 368.833007812 1350.92480469 372.41796875 1339.45605469 c 0,82,83
 395.017578125 1267.1640625 395.017578125 1267.1640625 454.810546875 1267.85253906 c 0,84,85
 481.344726562 1267.85253906 481.344726562 1267.85253906 508.759765625 1281.60546875 c 128,-1,86
 536.173828125 1295.35742188 536.173828125 1295.35742188 564.450195312 1322.72167969 c 0,21,22
EndSplineSet
EndChar

StartChar: uni064D
Encoding: 1613 1613 48
Width: 0
VWidth: 2184
GlyphClass: 4
Flags: W
AnchorPoint: "Anchor-7" 533.072 17.8066 mark 0
AnchorPoint: "Anchor-6" 533.072 17.8066 mark 0
AnchorPoint: "Anchor-0" 545.872 -394.193 basemark 0
AnchorPoint: "Anchor-0" 533.072 17.8066 mark 0
LayerCount: 2
Fore
SplineSet
342.400390625 -437.21484375 m 1,0,-1
 342.400390625 -339.879882812 l 1,1,-1
 733.599609375 -179.915039062 l 1,2,-1
 733.599609375 -277.25 l 1,3,-1
 342.400390625 -437.21484375 l 1,0,-1
342.400390625 -230.014648438 m 1,4,-1
 342.400390625 -132.6796875 l 1,5,-1
 733.599609375 27.28515625 l 1,6,-1
 733.599609375 -70.0498046875 l 1,7,-1
 342.400390625 -230.014648438 l 1,4,-1
EndSplineSet
EndChar

StartChar: uni064E
Encoding: 1614 1614 49
Width: 0
VWidth: 2184
GlyphClass: 4
Flags: W
AnchorPoint: "Anchor-10" 515.072 1304.71 mark 0
AnchorPoint: "Anchor-9" 515.072 1304.71 mark 0
AnchorPoint: "Anchor-1" 515.072 1561.51 basemark 0
AnchorPoint: "Anchor-1" 515.072 1304.71 mark 0
LayerCount: 2
Fore
SplineSet
308.400390625 1284.88574219 m 1,0,-1
 308.400390625 1382.22070312 l 1,1,-1
 699.599609375 1542.18457031 l 1,2,-1
 699.599609375 1444.84960938 l 1,3,-1
 308.400390625 1284.88574219 l 1,0,-1
EndSplineSet
EndChar

StartChar: uni064F
Encoding: 1615 1615 50
Width: 0
VWidth: 2184
GlyphClass: 4
Flags: W
AnchorPoint: "Anchor-10" 535.04 1252.31 mark 0
AnchorPoint: "Anchor-9" 535.04 1252.31 mark 0
AnchorPoint: "Anchor-1" 547.84 1747.91 basemark 0
AnchorPoint: "Anchor-1" 535.04 1252.31 mark 0
LayerCount: 2
Fore
SplineSet
564.540039062 1440.54785156 m 0,0,1
 478.76953125 1477.22851562 478.76953125 1477.22851562 478.919921875 1558.73339844 c 0,2,3
 478.919921875 1627.02441406 478.919921875 1627.02441406 533.0234375 1667.79785156 c 0,4,5
 553.686523438 1683.29296875 553.686523438 1683.29296875 603.48046875 1683.29296875 c 0,6,7
 660.923828125 1683.29296875 660.923828125 1683.29296875 691.520507812 1653.45800781 c 0,8,9
 734.887695312 1610.88574219 734.887695312 1610.88574219 734.887695312 1548.4609375 c 0,10,11
 734.887695312 1522.95703125 734.887695312 1522.95703125 723.46484375 1486.23144531 c 2,12,-1
 719.515625 1473.54394531 l 1,13,-1
 718.755859375 1471.10351562 l 1,14,-1
 721.306640625 1470.953125 l 1,15,-1
 734.576171875 1470.16894531 l 2,16,17
 749.331054688 1469.30273438 749.331054688 1469.30273438 764.919921875 1468.87011719 c 0,18,19
 774.370117188 1468.60742188 774.370117188 1468.60742188 785.391601562 1468.49511719 c 1,20,-1
 785.391601562 1399.15625 l 1,21,22
 773.771484375 1399.30273438 773.771484375 1399.30273438 762.799804688 1399.70214844 c 128,-1,23
 751.827148438 1400.1015625 751.827148438 1400.1015625 741.265625 1400.75976562 c 0,24,25
 715.821289062 1402.46191406 715.821289062 1402.46191406 692.112304688 1405.00097656 c 2,26,-1
 686.029296875 1405.64941406 l 1,27,-1
 684.860351562 1405.77441406 l 1,28,-1
 684.182617188 1404.81347656 l 1,29,-1
 680.657226562 1399.81347656 l 2,30,31
 668.881835938 1383.10742188 668.881835938 1383.10742188 654.719726562 1368.13085938 c 128,-1,32
 640.557617188 1353.15332031 640.557617188 1353.15332031 623.983398438 1339.88476562 c 128,-1,33
 607.41015625 1326.61621094 607.41015625 1326.61621094 588.423828125 1315.06152344 c 0,34,35
 429.345703125 1217.23925781 429.345703125 1217.23925781 310.288085938 1211.87792969 c 1,36,-1
 310.288085938 1281.17871094 l 1,37,38
 438.364257812 1285.74511719 438.364257812 1285.74511719 554.625 1376.91015625 c 0,39,40
 575.030273438 1392.88085938 575.030273438 1392.88085938 591.92578125 1410.66015625 c 2,41,-1
 604.587890625 1423.99609375 l 1,42,-1
 607.022460938 1426.55957031 l 1,43,-1
 603.571289062 1427.32519531 l 2,44,45
 586.844726562 1431.03808594 586.844726562 1431.03808594 564.540039062 1440.54785156 c 0,0,1
648.002929688 1484.48046875 m 1,46,-1
 656.822265625 1505.05664062 l 2,47,48
 665.528320312 1525.37109375 665.528320312 1525.37109375 665.528320312 1548.4609375 c 0,49,50
 665.528320312 1565.81738281 665.528320312 1565.81738281 660.783203125 1578.52539062 c 128,-1,51
 656.037109375 1591.23242188 656.037109375 1591.23242188 646.458984375 1599.1171875 c 0,52,53
 628.47265625 1613.93261719 628.47265625 1613.93261719 606.904296875 1613.93261719 c 0,54,55
 583.4765625 1613.93261719 583.4765625 1613.93261719 570.217773438 1603.64941406 c 0,56,57
 549.9921875 1588.42675781 549.9921875 1588.42675781 549.9921875 1558.73339844 c 0,58,59
 549.9921875 1518.66699219 549.9921875 1518.66699219 596.307617188 1500.13964844 c 0,60,61
 613.907226562 1493.1015625 613.907226562 1493.1015625 636.640625 1486.11035156 c 2,62,-1
 645.576171875 1483.35742188 l 1,63,-1
 647.294921875 1482.828125 l 1,64,-1
 648.002929688 1484.48046875 l 1,46,-1
EndSplineSet
EndChar

StartChar: uni0650
Encoding: 1616 1616 51
Width: 0
VWidth: 2184
GlyphClass: 4
Flags: W
AnchorPoint: "Anchor-7" 517.472 -47.6934 mark 0
AnchorPoint: "Anchor-6" 517.472 -47.6934 mark 0
AnchorPoint: "Anchor-0" 555.072 -286.893 basemark 0
AnchorPoint: "Anchor-0" 517.472 -47.6934 mark 0
LayerCount: 2
Fore
SplineSet
352.400390625 -309.114257812 m 1,0,-1
 352.400390625 -211.779296875 l 1,1,-1
 743.599609375 -51.8154296875 l 1,2,-1
 743.599609375 -149.150390625 l 1,3,-1
 352.400390625 -309.114257812 l 1,0,-1
EndSplineSet
EndChar

StartChar: uni0651
Encoding: 1617 1617 52
Width: 0
VWidth: 2184
GlyphClass: 4
Flags: W
AnchorPoint: "Anchor-10" 548.269 1353.65 mark 0
AnchorPoint: "Anchor-9" 548.269 1353.65 mark 0
AnchorPoint: "Anchor-1" 538.668 1755.25 basemark 0
AnchorPoint: "Anchor-1" 548.269 1353.65 mark 0
LayerCount: 2
Fore
SplineSet
437.028320312 1333.9609375 m 0,0,1
 303.20703125 1333.64453125 303.20703125 1333.64453125 302.396484375 1485.29492188 c 2,2,-1
 301.763671875 1603.69726562 l 1,3,-1
 368.561523438 1603.69726562 l 1,4,-1
 369.708007812 1484.37988281 l 2,5,6
 370.376953125 1417.62792969 370.376953125 1417.62792969 437.08984375 1416.92089844 c 0,7,8
 511.71484375 1416.85058594 511.71484375 1416.85058594 513.009765625 1515.30664062 c 2,9,-1
 514.7421875 1647.11328125 l 1,10,-1
 580.814453125 1647.11328125 l 1,11,-1
 582.66796875 1522.51171875 l 2,12,13
 583.958007812 1456.05078125 583.958007812 1456.05078125 662.670898438 1456.12109375 c 0,14,15
 724.802734375 1456.05175781 724.802734375 1456.05175781 726.028320312 1555.72167969 c 2,16,-1
 727.637695312 1686.52832031 l 1,17,-1
 798.186523438 1686.52832031 l 1,18,-1
 796.540039062 1557.12109375 l 2,19,20
 794.372070312 1375.24707031 794.372070312 1375.24707031 663.598632812 1375.35546875 c 0,21,22
 626.217773438 1375.30566406 626.217773438 1375.30566406 599.71484375 1386.50976562 c 128,-1,23
 573.211914062 1397.71289062 573.211914062 1397.71289062 557.348632812 1420.1171875 c 2,24,-1
 554.834960938 1423.66894531 l 1,25,-1
 553.776367188 1419.44824219 l 2,26,27
 532.4609375 1334.4296875 532.4609375 1334.4296875 437.028320312 1333.9609375 c 0,0,1
EndSplineSet
EndChar

StartChar: uni0652
Encoding: 1618 1618 53
Width: 0
VWidth: 2184
GlyphClass: 4
Flags: W
AnchorPoint: "Anchor-10" 566.159 1177.48 mark 0
AnchorPoint: "Anchor-9" 566.159 1177.48 mark 0
AnchorPoint: "Anchor-1" 554.959 1636.28 basemark 0
AnchorPoint: "Anchor-1" 566.159 1177.48 mark 0
LayerCount: 2
Fore
SplineSet
665.276367188 1382.35546875 m 0,0,1
 665.276367188 1423.5234375 665.276367188 1423.5234375 636.504882812 1452.29296875 c 128,-1,2
 607.73828125 1481.0625 607.73828125 1481.0625 565.948242188 1481.0625 c 0,3,4
 559.869140625 1481.0625 559.869140625 1481.0625 554.086914062 1480.48632812 c 128,-1,5
 548.299804688 1479.90917969 548.299804688 1479.90917969 542.811523438 1478.75292969 c 128,-1,6
 537.3203125 1477.59472656 537.3203125 1477.59472656 532.116210938 1475.85351562 c 128,-1,7
 526.913085938 1474.11132812 526.913085938 1474.11132812 522 1471.78808594 c 0,8,9
 519.543945312 1470.62695312 519.543945312 1470.62695312 517.157226562 1469.31835938 c 128,-1,10
 514.771484375 1468.00976562 514.771484375 1468.00976562 512.456054688 1466.5546875 c 0,11,12
 507.828125 1463.64550781 507.828125 1463.64550781 503.485351562 1460.16015625 c 128,-1,13
 499.1484375 1456.67773438 499.1484375 1456.67773438 495.077148438 1452.60742188 c 0,14,15
 480.799804688 1438.328125 480.799804688 1438.328125 473.708007812 1420.83007812 c 0,16,17
 470.162109375 1412.08300781 470.162109375 1412.08300781 468.391601562 1402.45898438 c 128,-1,18
 466.62109375 1392.83496094 466.62109375 1392.83496094 466.62109375 1382.35546875 c 0,19,20
 466.62109375 1339.94335938 466.62109375 1339.94335938 495.077148438 1311.48632812 c 128,-1,21
 523.536132812 1283.02929688 523.536132812 1283.02929688 565.948242188 1283.02929688 c 0,22,23
 586.935546875 1283.02929688 586.935546875 1283.02929688 604.497070312 1290.1953125 c 0,24,25
 606.451171875 1290.9921875 606.451171875 1290.9921875 608.3671875 1291.87988281 c 128,-1,26
 610.283203125 1292.76660156 610.283203125 1292.76660156 612.16015625 1293.74414062 c 128,-1,27
 614.036132812 1294.72070312 614.036132812 1294.72070312 615.874023438 1295.78808594 c 128,-1,28
 617.711914062 1296.85546875 617.711914062 1296.85546875 619.509765625 1298.01074219 c 128,-1,29
 621.307617188 1299.16699219 621.307617188 1299.16699219 623.06640625 1300.41308594 c 128,-1,30
 624.826171875 1301.65917969 624.826171875 1301.65917969 626.544921875 1302.99316406 c 128,-1,31
 628.264648438 1304.328125 628.264648438 1304.328125 629.944335938 1305.75195312 c 128,-1,32
 631.625 1307.17578125 631.625 1307.17578125 633.264648438 1308.6875 c 128,-1,33
 634.904296875 1310.19921875 634.904296875 1310.19921875 636.504882812 1311.80078125 c 0,34,35
 650.943359375 1326.23730469 650.943359375 1326.23730469 658.112304688 1343.80957031 c 0,36,37
 661.696289062 1352.59570312 661.696289062 1352.59570312 663.486328125 1362.23730469 c 128,-1,38
 665.276367188 1371.87890625 665.276367188 1371.87890625 665.276367188 1382.35546875 c 0,0,1
742.818359375 1382.45996094 m 0,39,40
 742.818359375 1308.31152344 742.818359375 1308.31152344 691.588867188 1256.75488281 c 0,41,42
 666.03515625 1231.04101562 666.03515625 1231.04101562 634.631835938 1218.13085938 c 128,-1,43
 603.220703125 1205.21972656 603.220703125 1205.21972656 566.2421875 1205.21972656 c 0,44,45
 556.994140625 1205.21972656 556.994140625 1205.21972656 548.086914062 1206.02832031 c 128,-1,46
 539.18359375 1206.83789062 539.18359375 1206.83789062 530.63671875 1208.45117188 c 128,-1,47
 522.092773438 1210.06542969 522.092773438 1210.06542969 513.895507812 1212.48632812 c 0,48,49
 511.163085938 1213.29296875 511.163085938 1213.29296875 508.471679688 1214.18847656 c 128,-1,50
 505.779296875 1215.08398438 505.779296875 1215.08398438 503.127929688 1216.06835938 c 128,-1,51
 500.475585938 1217.05371094 500.475585938 1217.05371094 497.86328125 1218.12695312 c 0,52,53
 490.02734375 1221.34765625 490.02734375 1221.34765625 482.543945312 1225.37207031 c 128,-1,54
 475.0625 1229.3984375 475.0625 1229.3984375 467.94140625 1234.22460938 c 128,-1,55
 460.821289062 1239.05175781 460.821289062 1239.05175781 454.057617188 1244.68554688 c 128,-1,56
 447.29296875 1250.31933594 447.29296875 1250.31933594 440.897460938 1256.75488281 c 0,57,58
 415.333984375 1282.48144531 415.333984375 1282.48144531 402.502929688 1313.97265625 c 128,-1,59
 389.666992188 1345.47070312 389.666992188 1345.47070312 389.666992188 1382.45996094 c 0,60,61
 389.666992188 1394.79394531 389.666992188 1394.79394531 391.095703125 1406.50976562 c 0,62,63
 391.453125 1409.43847656 391.453125 1409.43847656 391.899414062 1412.328125 c 128,-1,64
 392.344726562 1415.21777344 392.344726562 1415.21777344 392.879882812 1418.06738281 c 128,-1,65
 393.4140625 1420.91699219 393.4140625 1420.91699219 394.038085938 1423.7265625 c 128,-1,66
 394.661132812 1426.53613281 394.661132812 1426.53613281 395.373046875 1429.30664062 c 0,67,68
 396.797851562 1434.84570312 396.797851562 1434.84570312 398.578125 1440.22949219 c 128,-1,69
 400.357421875 1445.61230469 400.357421875 1445.61230469 402.494140625 1450.84179688 c 0,70,71
 406.765625 1461.296875 406.765625 1461.296875 412.450195312 1471.11035156 c 128,-1,72
 418.134765625 1480.92382812 418.134765625 1480.92382812 425.245117188 1490.10742188 c 128,-1,73
 432.356445312 1499.2890625 432.356445312 1499.2890625 440.883789062 1507.81933594 c 0,74,75
 492.098632812 1559.03613281 492.098632812 1559.03613281 566.2421875 1559.03613281 c 0,76,77
 581.092773438 1559.03613281 581.092773438 1559.03613281 595.006835938 1556.99023438 c 128,-1,78
 608.920898438 1554.94433594 608.920898438 1554.94433594 621.91015625 1550.85058594 c 128,-1,79
 634.8984375 1546.75683594 634.8984375 1546.75683594 646.96875 1540.61132812 c 128,-1,80
 659.038085938 1534.46484375 659.038085938 1534.46484375 670.193359375 1526.26953125 c 128,-1,81
 681.34765625 1518.07421875 681.34765625 1518.07421875 691.602539062 1507.81933594 c 0,82,83
 717.157226562 1482.2578125 717.157226562 1482.2578125 729.986328125 1450.85449219 c 0,84,85
 733.193359375 1443.00292969 733.193359375 1443.00292969 735.598632812 1434.80859375 c 128,-1,86
 738.002929688 1426.61328125 738.002929688 1426.61328125 739.608398438 1418.06542969 c 128,-1,87
 741.212890625 1409.51757812 741.212890625 1409.51757812 742.015625 1400.61621094 c 128,-1,88
 742.818359375 1391.71386719 742.818359375 1391.71386719 742.818359375 1382.45996094 c 0,39,40
EndSplineSet
EndChar

StartChar: uni0653
Encoding: 1619 1619 54
Width: 11
VWidth: 2551
GlyphClass: 4
Flags: W
AnchorPoint: "Anchor-10" 397.919 1465.33 mark 0
AnchorPoint: "Anchor-9" 397.919 1465.33 mark 0
AnchorPoint: "Anchor-1" 392.604 1781.32 basemark 0
AnchorPoint: "Anchor-1" 397.919 1465.33 mark 0
LayerCount: 2
Fore
SplineSet
318.89453125 1699.04980469 m 6,0,-1
 700.467773438 1699.04980469 l 1,1,-1
 701.651367188 1540.84960938 l 1,2,-1
 328.986328125 1540.84960938 l 2,3,4
 226.604297819 1540.99941954 226.604297819 1540.99941954 175.439453125 1474.32226562 c 2,5,-1
 160.833984375 1455.28808594 l 1,6,-1
 63.35546875 1567.38671875 l 1,7,-1
 71.6767578125 1580.06152344 l 2,8,9
 150.109729822 1699.04980469 150.109729822 1699.04980469 318.89453125 1699.04980469 c 6,0,-1
EndSplineSet
EndChar

StartChar: uni0657
Encoding: 1623 1623 57
Width: 11
VWidth: 2551
GlyphClass: 4
Flags: W
AnchorPoint: "Anchor-10" 648 1575.87 mark 0
AnchorPoint: "Anchor-9" 648 1575.87 mark 0
AnchorPoint: "Anchor-1" 648 2228.92 basemark 0
AnchorPoint: "Anchor-1" 648 1575.87 mark 0
LayerCount: 2
Fore
SplineSet
377.146484375 1975.00585938 m 1,0,-1
 489.893554688 1967.13671875 l 1,1,-1
 491.018554688 1967.05859375 l 1,2,-1
 491.66796875 1967.97949219 l 2,3,4
 539.140625 2035.31835938 539.140625 2035.31835938 604.537109375 2075.12109375 c 0,5,6
 782.124023438 2184.32226562 782.124023438 2184.32226562 918.853515625 2194.59082031 c 1,7,-1
 918.853515625 2129.2890625 l 1,8,9
 868.831054688 2126.328125 868.831054688 2126.328125 820.614257812 2112.69433594 c 128,-1,10
 772.3984375 2099.06152344 772.3984375 2099.06152344 726.032226562 2074.78222656 c 128,-1,11
 679.666992188 2050.50292969 679.666992188 2050.50292969 635.127929688 2015.57910156 c 0,12,13
 631.060546875 2012.39550781 631.060546875 2012.39550781 627.109375 2009.15136719 c 128,-1,14
 623.158203125 2005.90722656 623.158203125 2005.90722656 619.322265625 2002.6015625 c 128,-1,15
 615.486328125 1999.29589844 615.486328125 1999.29589844 611.766601562 1995.9296875 c 128,-1,16
 608.045898438 1992.5625 608.045898438 1992.5625 604.44140625 1989.13476562 c 128,-1,17
 600.8359375 1985.70800781 600.8359375 1985.70800781 597.346679688 1982.21875 c 128,-1,18
 593.857421875 1978.72949219 593.857421875 1978.72949219 590.483398438 1975.1796875 c 2,19,-1
 565.513671875 1948.89257812 l 1,20,-1
 563.080078125 1946.33105469 l 1,21,-1
 566.529296875 1945.56347656 l 1,22,-1
 601.922851562 1937.69042969 l 2,23,24
 604.735351562 1937.06640625 604.735351562 1937.06640625 614.71875 1932.36132812 c 128,-1,25
 624.702148438 1927.65722656 624.702148438 1927.65722656 640.627929688 1919.3671875 c 0,26,27
 673.040039062 1902.49609375 673.040039062 1902.49609375 697.038085938 1869.56152344 c 128,-1,28
 720.9296875 1836.7734375 720.9296875 1836.7734375 720.9296875 1797.32324219 c 128,-1,29
 720.9296875 1757.69042969 720.9296875 1757.69042969 709.702148438 1735.05371094 c 0,30,31
 671.323242188 1657.66992188 671.323242188 1657.66992188 577.603515625 1657.66992188 c 0,32,33
 530.6640625 1657.66992188 530.6640625 1657.66992188 498.475585938 1679.08300781 c 128,-1,34
 466.288085938 1700.49609375 466.288085938 1700.49609375 448.502929688 1743.546875 c 0,35,36
 444.474609375 1753.29785156 444.474609375 1753.29785156 441.790039062 1763.33789062 c 128,-1,37
 439.106445312 1773.37792969 439.106445312 1773.37792969 437.764648438 1783.71582031 c 128,-1,38
 436.422851562 1794.05371094 436.422851562 1794.05371094 436.422851562 1804.69433594 c 128,-1,39
 436.422851562 1815.3359375 436.422851562 1815.3359375 437.868164062 1827.08789062 c 128,-1,40
 439.313476562 1838.83984375 439.313476562 1838.83984375 442.215820312 1851.73925781 c 128,-1,41
 445.1171875 1864.63867188 445.1171875 1864.63867188 449.47265625 1878.63476562 c 2,42,-1
 457.259765625 1903.66308594 l 1,43,-1
 458.018554688 1906.10253906 l 1,44,-1
 455.467773438 1906.25292969 l 1,45,-1
 429.291015625 1907.79882812 l 2,46,47
 405.758789062 1909.18359375 405.758789062 1909.18359375 377.146484375 1909.67578125 c 1,48,-1
 377.146484375 1975.00585938 l 1,0,-1
526.065429688 1893.05566406 m 1,49,-1
 512.770507812 1862.04003906 l 2,50,51
 501.908203125 1836.70996094 501.908203125 1836.70996094 501.908203125 1800.21191406 c 0,52,53
 501.908203125 1781.79199219 501.908203125 1781.79199219 508.0078125 1767.46191406 c 128,-1,54
 514.108398438 1753.1328125 514.108398438 1753.1328125 526.29296875 1743.09570312 c 0,55,56
 550.502929688 1723.15429688 550.502929688 1723.15429688 578.704101562 1723.15429688 c 0,57,58
 607.916015625 1723.99316406 607.916015625 1723.99316406 625.977539062 1736.38085938 c 128,-1,59
 644.040039062 1748.76953125 644.040039062 1748.76953125 650.501953125 1772.57617188 c 0,60,61
 651.965820312 1777.96777344 651.965820312 1777.96777344 652.701171875 1783.06640625 c 128,-1,62
 653.435546875 1788.16503906 653.435546875 1788.16503906 653.435546875 1792.97167969 c 0,63,64
 653.435546875 1855.75292969 653.435546875 1855.75292969 546.119140625 1888.75097656 c 2,65,-1
 528.4921875 1894.17871094 l 1,66,-1
 526.7734375 1894.70800781 l 1,67,-1
 526.065429688 1893.05566406 l 1,49,-1
EndSplineSet
EndChar

StartChar: uni065A
Encoding: 1626 1626 58
Width: 1295
VWidth: 2551
GlyphClass: 4
Flags: W
AnchorPoint: "Anchor-10" 648 1488.29 mark 0
AnchorPoint: "Anchor-9" 648 1488.29 mark 0
AnchorPoint: "Anchor-1" 645.488 2053.43 basemark 0
AnchorPoint: "Anchor-1" 648 1488.29 mark 0
LayerCount: 2
Fore
SplineSet
570.741210938 1593.80273438 m 1,0,-1
 358.920898438 1947.92480469 l 1,1,-1
 469.943359375 1947.92480469 l 1,2,-1
 646.3359375 1683.33203125 l 1,3,-1
 648 1680.8359375 l 1,4,-1
 649.6640625 1683.33203125 l 1,5,-1
 826.053710938 1947.92480469 l 1,6,-1
 937.078125 1947.92480469 l 1,7,-1
 725.254882812 1593.80273438 l 1,8,-1
 570.741210938 1593.80273438 l 1,0,-1
EndSplineSet
EndChar

StartChar: afii57392
Encoding: 1632 1632 59
Width: 936
VWidth: 2551
GlyphClass: 2
Flags: W
LayerCount: 2
Fore
SplineSet
180.26953125 500.380859375 m 1,0,1
 182.57421875 620.17578125 182.57421875 620.17578125 265.5234375 703.126953125 c 128,-1,2
 348.465820312 786.068359375 348.465820312 786.068359375 468.26953125 787.220703125 c 0,3,4
 528.202148438 786.64453125 528.202148438 786.64453125 578.86328125 765.630859375 c 128,-1,5
 629.524414062 744.618164062 629.524414062 744.618164062 671.015625 703.126953125 c 0,6,7
 691.762695312 682.379882812 691.762695312 682.379882812 707.385742188 659.346679688 c 128,-1,8
 723.009765625 636.313476562 723.009765625 636.313476562 733.51953125 610.974609375 c 128,-1,9
 744.029296875 585.63671875 744.029296875 585.63671875 749.42578125 557.993164062 c 128,-1,10
 754.821289062 530.349609375 754.821289062 530.349609375 755.109375 500.380859375 c 0,11,12
 753.958007812 380.577148438 753.958007812 380.577148438 671.015625 297.634765625 c 0,13,14
 629.524414062 256.143554688 629.524414062 256.143554688 578.86328125 235.130859375 c 128,-1,15
 528.202148438 214.1171875 528.202148438 214.1171875 468.26953125 213.541015625 c 0,16,17
 348.465820312 214.693359375 348.465820312 214.693359375 265.5234375 297.634765625 c 128,-1,18
 182.57421875 380.5859375 182.57421875 380.5859375 180.26953125 500.380859375 c 1,0,1
341.271484375 500.280273438 m 0,19,20
 341.640625 473.778320312 341.640625 473.778320312 351.055664062 451.384765625 c 128,-1,21
 360.470703125 428.9921875 360.470703125 428.9921875 378.857421875 410.905273438 c 0,22,23
 415.159179688 374.002929688 415.159179688 374.002929688 468.278320312 373.819335938 c 0,24,25
 520.83203125 374.002929688 520.83203125 374.002929688 557.684570312 410.904296875 c 0,26,27
 595.00390625 448.174804688 595.00390625 448.174804688 594.771484375 500.338867188 c 0,28,29
 594.615234375 510.82421875 594.615234375 510.82421875 593.036132812 520.697265625 c 128,-1,30
 591.458007812 530.5703125 591.458007812 530.5703125 588.45703125 539.82421875 c 128,-1,31
 585.45703125 549.079101562 585.45703125 549.079101562 581.038085938 557.7109375 c 128,-1,32
 576.620117188 566.342773438 576.620117188 566.342773438 570.780273438 574.350585938 c 128,-1,33
 564.940429688 582.358398438 564.940429688 582.358398438 557.685546875 589.733398438 c 0,34,35
 538.7734375 608.346679688 538.7734375 608.346679688 516.393554688 617.62890625 c 128,-1,36
 494.014648438 626.911132812 494.014648438 626.911132812 468.251953125 626.819335938 c 0,37,38
 415.159179688 625.987304688 415.159179688 625.987304688 378.856445312 589.732421875 c 0,39,40
 339.978515625 550.806640625 339.978515625 550.806640625 341.271484375 500.280273438 c 0,19,20
EndSplineSet
EndChar

StartChar: afii57393
Encoding: 1633 1633 60
Width: 702
VWidth: 2551
GlyphClass: 2
Flags: W
LayerCount: 2
Fore
SplineSet
467.849609375 3.9091796875 m 1,0,-1
 296.870117188 3.9091796875 l 1,1,-1
 296.870117188 310 l 2,2,3
 297 858.78515625 297 858.78515625 175.482421875 1265.68164062 c 1,4,-1
 337.666015625 1316.48632812 l 1,5,6
 467.849609375 881.715820312 467.849609375 881.715820312 467.849609375 309 c 2,7,-1
 467.849609375 3.9091796875 l 1,0,-1
EndSplineSet
EndChar

StartChar: afii57394
Encoding: 1634 1634 61
Width: 1138
VWidth: 2551
GlyphClass: 2
Flags: W
LayerCount: 2
Fore
SplineSet
466.8515625 309.921875 m 2,0,-1
 466.864257812 3.9091796875 l 1,1,-1
 296.094726562 3.9091796875 l 1,2,-1
 296.076171875 309.891601562 l 2,3,4
 296 858 296 858 176.383789062 1266.13476562 c 1,5,-1
 339.5234375 1316.45214844 l 1,6,-1
 383.090820312 1122.91992188 l 2,7,8
 406 1022 406 1022 476.334960938 963.928710938 c 0,9,10
 544 907 544 907 655.220703125 906.3828125 c 0,11,12
 825.318360174 904.989198646 825.318360174 904.989198646 847.883627919 1044 c 0,13,14
 856.280634167 1097.79796789 856.280634167 1097.79796789 856.280273438 1222.87792969 c 2,15,-1
 856.28 1317.69 l 1,16,-1
 1020.61035156 1317.6875 l 5,17,-1
 1020.61035156 1227 l 6,18,19
 1020.98381515 1073.6459275 1020.98381515 1073.6459275 1009.94140625 1007.82128906 c 4,20,21
 963 728 963 728 656.3515625 727.407226562 c 0,22,23
 530.584132856 726.998648983 530.584132856 726.998648983 445.091796875 782.67578125 c 2,24,-1
 441.311523438 785.137695312 l 1,25,-1
 442.025390625 780.68359375 l 2,26,27
 467 626 467 626 466.8515625 309.921875 c 2,0,-1
EndSplineSet
EndChar

StartChar: afii57395
Encoding: 1635 1635 62
Width: 1405
VWidth: 2551
GlyphClass: 2
Flags: W
LayerCount: 2
Fore
SplineSet
383.086914062 1112.9375 m 2,0,1
 429.332962324 897.004482824 429.332962324 897.004482824 588.502929688 899.147460938 c 0,2,3
 708.035586637 901.000551693 708.035586637 901.000551693 708.405273438 1082.42480469 c 2,4,-1
 708.801757812 1277 l 1,5,-1
 872.076171875 1277 l 1,6,-1
 871.4140625 1072.46972656 l 2,7,8
 871 899 871 899 1017.73535156 899.254882812 c 0,9,10
 1135.88330392 899.000251502 1135.88330392 899.000251502 1135.40429688 1066.77148438 c 2,11,-1
 1134.69140625 1316.45996094 l 1,12,-1
 1297.08984375 1316.45996094 l 5,13,-1
 1298.0078125 1133.0625 l 6,14,15
 1300 727 1300 727 1024.72949219 726.75 c 0,16,17
 862.198855264 726.9996945 862.198855264 726.9996945 800.509765625 846.888671875 c 2,18,-1
 798.783203125 850.244140625 l 1,19,-1
 796.975585938 846.931640625 l 2,20,21
 733 730 733 730 607.720703125 729.9140625 c 0,22,23
 504.358455169 729.999703003 504.358455169 729.999703003 445.653320312 781.696289062 c 2,24,-1
 441.45703125 785.391601562 l 1,25,-1
 442.357421875 779.873046875 l 2,26,27
 453 715 453 715 460.717773438 589.8828125 c 0,28,29
 466.843826907 496.383600032 466.843826907 496.383600032 466.8515625 309.921875 c 2,30,-1
 466.864257812 3.9091796875 l 1,31,-1
 296.094726562 3.9091796875 l 1,32,-1
 296.076171875 309.891601562 l 2,33,34
 296 858 296 858 176.383789062 1266.13476562 c 1,35,-1
 339.501953125 1316.4453125 l 1,36,-1
 383.086914062 1112.9375 l 2,0,1
EndSplineSet
EndChar

StartChar: afii57396
Encoding: 1636 1636 63
Width: 966
VWidth: 2551
GlyphClass: 2
Flags: W
LayerCount: 2
Fore
SplineSet
142.43359375 322.984375 m 0,0,1
 143.99034059 523.744166293 143.99034059 523.744166293 488.17578125 686.951171875 c 1,2,3
 181.997069344 840.244266657 181.997069344 840.244266657 181.670898438 1024.99804688 c 4,4,5
 181.998046875 1303.17675781 181.998046875 1303.17675781 604.0078125 1304.72753906 c 2,6,-1
 741.310546875 1305.23242188 l 1,7,-1
 742.822265625 1130.82128906 l 1,8,-1
 606.989257812 1130.13574219 l 2,9,10
 386 1128.98925781 386 1128.98925781 386 1019 c 0,11,12
 386 901.947434775 386 901.947434775 730.916015625 771.6484375 c 1,13,-1
 721.083984375 606.474609375 l 1,14,15
 343.991210938 482.063476562 343.991210938 482.063476562 345.209960938 330.989257812 c 0,16,17
 346.009765625 180.147460938 346.009765625 180.147460938 620 180.150390625 c 2,18,-1
 856.1015625 180.153320312 l 1,19,-1
 855.455078125 5.1474609375 l 1,20,-1
 619.999023438 5.150390625 l 2,21,22
 140.015625 5.0009765625 140.015625 5.0009765625 142.43359375 322.984375 c 0,0,1
EndSplineSet
EndChar

StartChar: afii57397
Encoding: 1637 1637 64
Width: 1172
VWidth: 2551
GlyphClass: 2
Flags: W
LayerCount: 2
Fore
SplineSet
573.282226562 993.123046875 m 2,0,1
 269.000976562 650.760742188 269.000976562 650.760742188 268.793945312 369.522460938 c 0,2,3
 269.001953125 183.997070312 269.001953125 183.997070312 598.936523438 184.440429688 c 0,4,5
 896.998257122 185.003024836 896.998257122 185.003024836 897.169921875 359.701171875 c 4,6,7
 897 666.818359375 897 666.818359375 576.204101562 993.196289062 c 2,8,-1
 574.704101562 994.721679688 l 1,9,-1
 573.282226562 993.123046875 l 2,0,1
378.916015625 1146.11816406 m 1,10,-1
 474.813476562 1294.33398438 l 1,11,12
 1069.00195312 872.14453125 1069.00195312 872.14453125 1069.62890625 378.087890625 c 0,13,14
 1069.99804688 -2.9931640625 1069.99804688 -2.9931640625 602.119140625 -1.3291015625 c 0,15,16
 102.996895105 -0.00487522689412 102.996895105 -0.00487522689412 102.440429688 369.110351562 c 0,17,18
 102.000976562 710.265625 102.000976562 710.265625 436.034179688 1103.01171875 c 2,19,-1
 437.450195312 1104.67675781 l 1,20,-1
 435.666015625 1105.93945312 l 1,21,-1
 378.916015625 1146.11816406 l 1,10,-1
EndSplineSet
EndChar

StartChar: afii57398
Encoding: 1638 1638 65
Width: 1246
VWidth: 2551
GlyphClass: 2
Flags: W
LayerCount: 2
Fore
SplineSet
113.526367188 1316.12402344 m 1,0,-1
 693.001953125 1316.68652344 l 2,1,2
 1014 1316.99804688 1014 1316.99804688 1014 969 c 2,3,-1
 1014 3.9091796875 l 1,4,-1
 845.5703125 3.9091796875 l 1,5,-1
 845.571289062 964.994140625 l 2,6,7
 846.006835938 1122.41992188 846.006835938 1122.41992188 689 1122.41992188 c 2,8,-1
 113.526367188 1122.41992188 l 1,9,-1
 113.526367188 1316.12402344 l 1,0,-1
EndSplineSet
EndChar

StartChar: afii57399
Encoding: 1639 1639 66
Width: 1201
VWidth: 2551
GlyphClass: 2
Flags: W
LayerCount: 2
Fore
SplineSet
601.91015625 392.53515625 m 2,0,1
 703.693359375 818.482421875 703.693359375 818.482421875 939.893554688 1325.25976562 c 1,2,-1
 1097.52050781 1242.99804688 l 1,3,4
 784.388671875 652.56640625 784.388671875 652.56640625 673.274414062 3.9091796875 c 1,5,-1
 527.690429688 3.9091796875 l 1,6,7
 416.611328125 652.56640625 416.611328125 652.56640625 103.444335938 1242.99804688 c 1,8,-1
 261.071289062 1325.25976562 l 1,9,10
 497.302734375 818.484375 497.302734375 818.484375 598.018554688 392.540039062 c 2,11,-1
 599.954101562 384.3515625 l 1,12,-1
 601.91015625 392.53515625 l 2,0,1
EndSplineSet
EndChar

StartChar: afii57400
Encoding: 1640 1640 67
Width: 1201
VWidth: 2551
GlyphClass: 2
Flags: W
LayerCount: 2
Fore
SplineSet
599.0546875 917.374023438 m 2,0,1
 497.306640625 491.516601562 497.306640625 491.516601562 261.071289062 -15.3505859375 c 1,2,-1
 103.444335938 66.9111328125 l 1,3,4
 416.611328125 657.43359375 416.611328125 657.43359375 527.690429688 1306 c 1,5,-1
 673.275390625 1306 l 1,6,7
 784.388671875 657.43359375 784.388671875 657.43359375 1097.52050781 66.9111328125 c 1,8,-1
 939.893554688 -15.349609375 l 1,9,10
 703.697265625 491.514648438 703.697265625 491.514648438 602.946289062 917.370117188 c 2,11,-1
 601.009765625 925.555664062 l 1,12,-1
 599.0546875 917.374023438 l 2,0,1
EndSplineSet
EndChar

StartChar: afii57401
Encoding: 1641 1641 68
Width: 1147
VWidth: 2551
GlyphClass: 2
Flags: W
LayerCount: 2
Fore
SplineSet
743.274414062 310.002929688 m 1,0,-1
 742.4296875 653.022460938 l 5,1,-1
 742.420898438 656.549804688 l 5,2,-1
 739.3984375 654.731445312 l 6,3,4
 638 594 638 594 501.446289062 594.34375 c 4,5,6
 310 595 310 595 216.69921875 703.936523438 c 4,7,8
 132 804 132 804 132.05859375 927.557617188 c 0,9,10
 132 1099 132 1099 223.51171875 1198.83105469 c 0,11,12
 339 1325 339 1325 535 1325 c 0,13,14
 864 1325 864 1325 896.974609375 955.017578125 c 0,15,16
 914.25390625 753.031973712 914.25390625 753.031973712 914.25390625 309 c 2,17,-1
 914.25390625 3.9091796875 l 1,18,-1
 743.274414062 3.9091796875 l 1,19,-1
 743.274414062 310.002929688 l 1,0,-1
514 761.966796875 m 4,20,21
 654.82123699 761.999957904 654.82123699 761.999957904 729.520507812 843.02734375 c 6,22,-1
 730.05078125 843.602539062 l 5,23,24
 730 911 730 911 715.10546875 1005.59960938 c 0,25,26
 704 1075 704 1075 663.34375 1112.34277344 c 0,27,28
 618 1154 618 1154 534.455078125 1153.76757812 c 0,29,30
 399 1154 399 1154 337.559570312 1065.44140625 c 0,31,32
 297 1008 297 1008 297.166992188 929.23046875 c 0,33,34
 298 762 298 762 514 761.966796875 c 4,20,21
EndSplineSet
EndChar

StartChar: afii57381
Encoding: 1642 1642 69
Width: 1291
VWidth: 2551
GlyphClass: 2
Flags: W
LayerCount: 2
Fore
SplineSet
797.73828125 256.34765625 m 0,0,1
 797.537109375 287.149414062 797.537109375 287.149414062 808.78515625 313.405273438 c 128,-1,2
 820.034179688 339.66015625 820.034179688 339.66015625 842.828125 361.573242188 c 0,3,4
 888.141601562 405.684570312 888.141601562 405.684570312 950.865234375 405.545898438 c 0,5,6
 1013.52050781 405.684570312 1013.52050781 405.684570312 1058.90136719 361.56640625 c 0,7,8
 1104.32617188 317.83984375 1104.32617188 317.83984375 1103.98339844 256.34765625 c 0,9,10
 1104.09765625 236.041015625 1104.09765625 236.041015625 1099.13867188 217.611328125 c 128,-1,11
 1094.1796875 199.181640625 1094.1796875 199.181640625 1084.12402344 182.56640625 c 128,-1,12
 1074.06738281 165.952148438 1074.06738281 165.952148438 1058.88867188 151.1171875 c 0,13,14
 1013.52050781 106.692382812 1013.52050781 106.692382812 950.860351562 107.149414062 c 0,15,16
 919.448242188 106.920898438 919.448242188 106.920898438 892.486328125 117.89453125 c 128,-1,17
 865.524414062 128.868164062 865.524414062 128.868164062 842.830078125 151.120117188 c 0,18,19
 797.336914062 195.5234375 797.336914062 195.5234375 797.73828125 256.34765625 c 0,0,1
187.407226562 1122.66113281 m 0,20,21
 187.005859375 1184.15429688 187.005859375 1184.15429688 232.497070312 1227.88671875 c 0,22,23
 277.810546875 1271.99804688 277.810546875 1271.99804688 340.534179688 1271.859375 c 0,24,25
 403.189453125 1271.99804688 403.189453125 1271.99804688 448.5703125 1227.87988281 c 0,26,27
 493.995117188 1184.15332031 493.995117188 1184.15332031 493.65234375 1122.66113281 c 0,28,29
 493.82421875 1092.20507812 493.82421875 1092.20507812 482.58203125 1065.94042969 c 128,-1,30
 471.340820312 1039.67480469 471.340820312 1039.67480469 448.6015625 1017.4296875 c 0,31,32
 403.190429688 973.005859375 403.190429688 973.005859375 340.529296875 973.462890625 c 0,33,34
 277.810546875 973.005859375 277.810546875 973.005859375 232.499023438 1017.43359375 c 128,-1,35
 187.005859375 1061.83691406 187.005859375 1061.83691406 187.407226562 1122.66113281 c 0,20,21
874.525390625 1327.70605469 m 1,36,-1
 1026.26367188 1251.140625 l 1,37,-1
 356.545898438 9.6044921875 l 1,38,-1
 206.716796875 88.826171875 l 1,39,-1
 874.525390625 1327.70605469 l 1,36,-1
EndSplineSet
EndChar

StartChar: uni066B
Encoding: 1643 1643 70
Width: 667
VWidth: 2551
GlyphClass: 2
Flags: W
LayerCount: 2
Fore
SplineSet
57.712890625 -212.07421875 m 1,0,-1
 454.9609375 570.833007812 l 1,1,-1
 574.296875 514.071289062 l 1,2,-1
 180.936523438 -270.602539062 l 1,3,-1
 57.712890625 -212.07421875 l 1,0,-1
EndSplineSet
EndChar

StartChar: uni066C
Encoding: 1644 1644 71
Width: 592
VWidth: 2302
GlyphClass: 2
Flags: W
LayerCount: 2
Fore
SplineSet
298.956054688 258 m 0,0,1
 429.168945312 255.041015625 429.168945312 255.041015625 439.169921875 144.665039062 c 0,2,3
 447.973632812 46.203125 447.973632812 46.203125 418.08203125 -54.4345703125 c 0,4,5
 362.5234375 -242.934570312 362.5234375 -242.934570312 170.37890625 -330.630859375 c 1,6,-1
 123.383789062 -287.395507812 l 1,7,8
 312.009765625 -181.013671875 312.009765625 -181.013671875 330.806640625 -2.5458984375 c 2,9,-1
 331.043945312 -0.287109375 l 1,10,-1
 328.774414062 -0.3359375 l 2,11,12
 298.07421875 -0.998046875 298.07421875 -0.998046875 288.061523438 -0.037109375 c 0,13,14
 221.158203125 3.4501953125 221.158203125 3.4501953125 188.604492188 33.845703125 c 128,-1,15
 156.05078125 64.2412109375 156.05078125 64.2412109375 157.07421875 121.97265625 c 0,16,17
 158.97265625 260.958007812 158.97265625 260.958007812 298.956054688 258 c 0,0,1
EndSplineSet
EndChar

StartChar: afii63167
Encoding: 1645 1645 72
Width: 1411
VWidth: 2551
GlyphClass: 2
Flags: W
LayerCount: 2
Fore
SplineSet
198.916992188 906.817382812 m 1,0,-1
 583.680664062 906.817382812 l 1,1,-1
 585.12890625 906.817382812 l 1,2,-1
 585.581054688 908.193359375 l 1,3,-1
 705.771484375 1274.12109375 l 1,4,-1
 825.956054688 908.193359375 l 1,5,-1
 826.408203125 906.817382812 l 1,6,-1
 827.856445312 906.817382812 l 1,7,-1
 1212.62207031 906.817382812 l 1,8,-1
 901.762695312 679.5703125 l 1,9,-1
 900.592773438 678.71484375 l 1,10,-1
 901.041992188 677.336914062 l 1,11,-1
 1019.94921875 312.037109375 l 1,12,-1
 706.943359375 538.21875 l 1,13,-1
 705.771484375 539.065429688 l 1,14,-1
 704.600585938 538.21875 l 1,15,-1
 391.588867188 312.037109375 l 1,16,-1
 510.497070312 677.336914062 l 1,17,-1
 510.946289062 678.71484375 l 1,18,-1
 509.776367188 679.5703125 l 1,19,-1
 198.916992188 906.817382812 l 1,0,-1
EndSplineSet
EndChar

StartChar: uni066E
Encoding: 1646 1646 73
Width: 1901
VWidth: 2551
GlyphClass: 2
Flags: W
AnchorPoint: "Anchor-10" 879.751 1227.53 basechar 0
AnchorPoint: "Anchor-7" 879.751 -216.707 basechar 0
LayerCount: 2
Fore
SplineSet
536.549804688 180 m 2,0,-1
 1373.10742188 180 l 2,1,2
 1622.68261719 180.01171875 1622.68261719 180.01171875 1622.68261719 443.366210938 c 2,3,-1
 1622.68261719 639.75 l 1,4,-1
 1797.44042969 639.75 l 1,5,-1
 1797.44042969 445.844726562 l 2,6,7
 1797.00168772 0.0487616231464 1797.00168772 0.0487616231464 1366.4609375 -0 c 6,8,-1
 533.767578125 -0.0966796875 l 2,9,10
 102.229492188 -0.0009765625 102.229492188 -0.0009765625 102.227539062 441.977539062 c 2,11,-1
 102.2265625 642.66015625 l 1,12,-1
 276.984375 642.66015625 l 1,13,-1
 276.984375 442.541015625 l 2,14,15
 277 180 277 180 536.549804688 180 c 2,0,-1
EndSplineSet
Substitution2: "'init' Initial Forms in Arabic lookup 13 subtable" uni066E.init
Substitution2: "'medi' Medial Forms in Arabic lookup 11 subtable" uni066E.medi
Substitution2: "'fina' Terminal Forms in Arabic lookup 9 subtable" uni066E.fina
EndChar

StartChar: uni066F
Encoding: 1647 1647 74
Width: 1434
VWidth: 2551
GlyphClass: 2
Flags: W
AnchorPoint: "Anchor-10" 353.676 1159.52 basechar 0
AnchorPoint: "Anchor-7" 425.271 -715.467 basechar 0
LayerCount: 2
Fore
SplineSet
1328.96777344 357.814453125 m 6,0,-1
 1331.15039062 -66.47265625 l 2,1,2
 1332.99023438 -452 1332.99023438 -452 789.385742188 -452 c 2,3,-1
 691.184570312 -452 l 2,4,5
 104.311523438 -450.116210938 104.311523438 -450.116210938 103.12109375 101.919921875 c 2,6,-1
 103.000976562 442.0078125 l 1,7,-1
 277.877929688 442.666992188 l 1,8,-1
 277.877929688 103.091796875 l 2,9,10
 278.000976562 -269.293945312 278.000976562 -269.293945312 693.369140625 -266.711914062 c 2,11,-1
 787.782226562 -266.125 l 2,12,13
 1162.01757812 -263.98828125 1162.01757812 -263.98828125 1160.20996094 -63.064453125 c 2,14,-1
 1160.20996094 0.98046875 l 1,15,-1
 1160.20996094 2.98046875 l 1,16,-1
 1158.20996094 2.98046875 l 1,17,-1
 997.346679688 2.98046875 l 2,18,19
 648.0078125 3 648.0078125 3 649.383789062 344.595703125 c 0,20,21
 649.997070312 529.232421875 649.997070312 529.232421875 737.104492188 626.549804688 c 0,22,23
 825.903320312 727.002929688 825.903320312 727.002929688 995.884765625 727.463867188 c 0,24,25
 1145.19042969 727.997070312 1145.19042969 727.997070312 1234.11328125 641.440429688 c 0,26,27
 1328.00392979 550.151989485 1328.00392979 550.151989485 1328.96777344 357.814453125 c 6,0,-1
816.166992188 346.099609375 m 0,29,30
 815.998046875 180.951171875 815.998046875 180.951171875 996.306640625 180.874023438 c 2,31,-1
 1158.01660156 180.8046875 l 1,32,-1
 1160.02246094 180.803710938 l 1,33,-1
 1160.01757812 182.809570312 l 1,34,-1
 1159.56640625 351.879882812 l 2,35,36
 1158.99414062 557.008789062 1158.99414062 557.008789062 991.916992188 556.248046875 c 0,37,38
 815.998046875 555.997070312 815.998046875 555.997070312 816.166992188 346.099609375 c 0,29,30
EndSplineSet
Substitution2: "'init' Initial Forms in Arabic lookup 13 subtable" uni066F.init
Substitution2: "'medi' Medial Forms in Arabic lookup 11 subtable" uni066F.medi
Substitution2: "'fina' Terminal Forms in Arabic lookup 9 subtable" uni066F.fina
EndChar

StartChar: uni0670
Encoding: 1648 1648 75
Width: 11
VWidth: 2551
GlyphClass: 4
Flags: W
AnchorPoint: "Anchor-10" 648 1488.29 mark 0
AnchorPoint: "Anchor-9" 648 1488.29 mark 0
AnchorPoint: "Anchor-1" 648 1994.6 basemark 0
AnchorPoint: "Anchor-1" 648 1488.29 mark 0
LayerCount: 2
Fore
SplineSet
606.571289062 1557.38378906 m 1,0,-1
 606.571289062 1925.51757812 l 1,1,-1
 689.427734375 1925.51757812 l 1,2,-1
 689.427734375 1557.38378906 l 1,3,-1
 606.571289062 1557.38378906 l 1,0,-1
EndSplineSet
EndChar

StartChar: uni0674
Encoding: 1652 1652 76
Width: 759
VWidth: 2551
GlyphClass: 2
Flags: W
LayerCount: 2
Fore
SplineSet
163.505859375 1772.93847656 m 1,0,-1
 271.014648438 1797.74707031 l 1,1,-1
 275.75390625 1798.84082031 l 1,2,-1
 271.616210938 1801.39746094 l 2,3,4
 196 1848.11523438 196 1848.11523438 196.018554688 1947.76855469 c 0,5,6
 196 2066.83398438 196 2066.83398438 295.752929688 2123.30175781 c 0,7,8
 322.12890625 2138.14550781 322.12890625 2138.14550781 352.439453125 2145.66503906 c 128,-1,9
 382.749023438 2153.18457031 382.749023438 2153.18457031 416.991210938 2153.36621094 c 0,10,11
 495.729492188 2153.00585938 495.729492188 2153.00585938 557.309570312 2115.26855469 c 1,12,-1
 557.309570312 2004.8359375 l 1,13,14
 509.276367188 2030.99707031 509.276367188 2030.99707031 441.8046875 2030.87792969 c 0,15,16
 324.012695312 2029.98535156 324.012695312 2029.98535156 323.44140625 1942.08691406 c 0,17,18
 323.376953125 1931.57128906 323.376953125 1931.57128906 325.189453125 1921.98632812 c 128,-1,19
 327.001953125 1912.40136719 327.001953125 1912.40136719 330.672851562 1903.78515625 c 128,-1,20
 334.344726562 1895.16992188 334.344726562 1895.16992188 339.870117188 1887.4921875 c 128,-1,21
 345.39453125 1879.81542969 345.39453125 1879.81542969 352.752929688 1873.10546875 c 128,-1,22
 360.111328125 1866.39453125 360.111328125 1866.39453125 369.299804688 1860.63378906 c 128,-1,23
 378.48828125 1854.87207031 378.48828125 1854.87207031 389.483398438 1850.07519531 c 128,-1,24
 400.478515625 1845.27734375 400.478515625 1845.27734375 413.28125 1841.43847656 c 2,25,-1
 413.724609375 1841.30566406 l 1,26,-1
 583.682617188 1869.41210938 l 1,27,-1
 583.682617188 1752.49804688 l 1,28,-1
 163.505859375 1658.16796875 l 1,29,-1
 163.505859375 1772.93847656 l 1,0,-1
EndSplineSet
EndChar

StartChar: uni06A1
Encoding: 1697 1697 80
Width: 1886
VWidth: 2551
GlyphClass: 2
Flags: W
AnchorPoint: "Anchor-10" 504.245 1205.49 basechar 0
AnchorPoint: "Anchor-7" 521.19 -187.02 basechar 0
LayerCount: 2
Fore
SplineSet
1288.48925781 0 m 2,0,-1
 533.767578125 -0.0966796875 l 2,1,2
 102.229492188 -0.0009765625 102.229492188 -0.0009765625 102.227539062 441.977539062 c 2,3,-1
 102.2265625 642.66015625 l 1,4,-1
 276.984375 642.66015625 l 1,5,-1
 276.984375 442.541015625 l 2,6,7
 277 180 277 180 536.549804688 180 c 2,8,-1
 1291.0234375 180 l 2,9,10
 1620.86425781 180 1620.86425781 180 1620.86425781 327.958007812 c 2,11,-1
 1620.86425781 350.875976562 l 1,12,-1
 1620.86425781 353.0859375 l 1,13,-1
 1618.66503906 352.866210938 l 2,14,15
 1539.890625 344.999023438 1539.890625 344.999023438 1467.93359375 344.33984375 c 0,16,17
 1111.99902344 344.001953125 1111.99902344 344.001953125 1111.89746094 626.302734375 c 0,18,19
 1111.94824219 711.333007812 1111.94824219 711.333007812 1133.83203125 776.381835938 c 128,-1,20
 1155.71484375 841.4296875 1155.71484375 841.4296875 1199.37207031 886.608398438 c 0,21,22
 1289.84863281 980.001953125 1289.84863281 980.001953125 1452.27050781 980.389648438 c 0,23,24
 1783.93847656 980.001953125 1783.93847656 980.001953125 1783.79882812 653.658203125 c 2,25,-1
 1783.66308594 335.3984375 l 2,26,27
 1783.99804688 0 1783.99804688 0 1288.48925781 0 c 2,0,-1
1620.93554688 656.502929688 m 2,28,29
 1620.72167969 810.005859375 1620.72167969 810.005859375 1453.88964844 809.401367188 c 0,30,31
 1406.08300781 809.19921875 1406.08300781 809.19921875 1371.41308594 795.868164062 c 128,-1,32
 1336.74316406 782.536132812 1336.74316406 782.536132812 1315.37011719 755.98046875 c 0,33,34
 1277.00195312 707.701171875 1277.00195312 707.701171875 1276.76855469 636.986328125 c 0,35,36
 1277.00390625 516.993164062 1277.00390625 516.993164062 1475.94433594 517.682617188 c 0,37,38
 1549.13574219 518.000976562 1549.13574219 518.000976562 1619.38378906 527.627929688 c 2,39,-1
 1621.11425781 527.865234375 l 1,40,-1
 1621.11230469 529.612304688 l 1,41,-1
 1620.93554688 656.502929688 l 2,28,29
EndSplineSet
Substitution2: "'init' Initial Forms in Arabic lookup 13 subtable" uni06A1.init
Substitution2: "'medi' Medial Forms in Arabic lookup 11 subtable" uni06A1.medi
Substitution2: "'fina' Terminal Forms in Arabic lookup 9 subtable" uni06A1.fina
EndChar

StartChar: uni06A9
Encoding: 1705 1705 81
Width: 1855
VWidth: 2551
GlyphClass: 2
Flags: W
AnchorPoint: "Anchor-10" 599.382 1353.15 basechar 0
AnchorPoint: "Anchor-7" 849.692 -232.794 basechar 0
LayerCount: 2
Fore
SplineSet
536.549804688 180 m 2,0,-1
 1260.24121094 180.096679688 l 2,1,2
 1510 180 1510 180 1510.03222656 313.866210938 c 0,3,4
 1510.00026255 369.542669813 1510.00026255 369.542669813 1398.47460938 496.732421875 c 2,5,-1
 1077.82519531 862.41796875 l 2,6,7
 1030 917 1030 917 1030.94628906 998.490234375 c 0,8,9
 1032.00055338 1118.06276353 1032.00055338 1118.06276353 1147.22558594 1156.00390625 c 2,10,-1
 1771.82421875 1361.67089844 l 1,11,-1
 1771.82421875 1181.49316406 l 1,12,-1
 1203.91503906 995.98046875 l 1,13,-1
 1201.02929688 995.037109375 l 1,14,-1
 1203.03417969 992.7578125 l 1,15,-1
 1512.78515625 639.249023438 l 2,16,17
 1675 454 1675 454 1676.66308594 308.076171875 c 4,18,19
 1679.99554445 0.411352574843 1679.99554445 0.411352574843 1260.77050781 0.001953125 c 2,20,-1
 1259.77050781 0.0009765625 l 1,21,-1
 1258.75097656 -0 l 1,22,-1
 533.767578125 -0.0966796875 l 2,23,24
 102.229689815 -5.14294297318e-05 102.229689815 -5.14294297318e-05 102.227539062 441.977539062 c 2,25,-1
 102.2265625 642.66015625 l 1,26,-1
 276.984375 642.66015625 l 1,27,-1
 276.984375 442.541015625 l 2,28,29
 277 180 277 180 536.549804688 180 c 2,0,-1
EndSplineSet
Substitution2: "'init' Initial Forms in Arabic lookup 13 subtable" uniFB90
Substitution2: "'medi' Medial Forms in Arabic lookup 11 subtable" uniFB91
Substitution2: "'fina' Terminal Forms in Arabic lookup 9 subtable" uniFB8F
EndChar

StartChar: afii57514
Encoding: 1722 1722 83
Width: 1442
VWidth: 2551
GlyphClass: 2
Flags: W
AnchorPoint: "Anchor-10" 597.158 923.159 basechar 0
AnchorPoint: "Anchor-7" 701.132 -708.307 basechar 0
LayerCount: 2
Fore
SplineSet
1327.57128906 51.9072265625 m 2,0,1
 1316.58398438 -450.940429688 1316.58398438 -450.940429688 748.819335938 -450.940429688 c 2,2,-1
 694.1015625 -450.940429688 l 2,3,4
 103.31640625 -451 103.31640625 -451 103.12109375 101.27734375 c 2,5,-1
 103.000976562 442 l 1,6,-1
 279.877929688 442.033203125 l 1,7,-1
 279.877929688 102.448242188 l 2,8,9
 280.000976562 -269.639648438 280.000976562 -269.639648438 696.272460938 -269.639648438 c 2,10,-1
 747.383789062 -269.639648438 l 2,11,12
 1164.34960938 -270.001953125 1164.34960938 -270.001953125 1164.16210938 46.55859375 c 2,13,-1
 1163.81542969 630.819335938 l 1,14,-1
 1340.22363281 630.91015625 l 1,15,-1
 1327.57128906 51.9072265625 l 2,0,1
EndSplineSet
Substitution2: "'init' Initial Forms in Arabic lookup 13 subtable" uni06BA.init
Substitution2: "'medi' Medial Forms in Arabic lookup 11 subtable" uni06BA.medi
Substitution2: "'fina' Terminal Forms in Arabic lookup 9 subtable" uniFB9F
EndChar

StartChar: uni06F4
Encoding: 1780 1780 90
Width: 1156
VWidth: 2551
GlyphClass: 2
Flags: W
LayerCount: 2
Fore
SplineSet
448.006835938 725.834960938 m 6,0,1
 466.843780887 497.492875719 466.843780887 497.492875719 466.8515625 309.921875 c 2,2,-1
 466.864257812 3.9091796875 l 1,3,-1
 296.094726562 3.9091796875 l 1,4,-1
 296.076171875 309.891601562 l 2,5,6
 296 856 296 856 176.381835938 1266.13476562 c 1,7,-1
 339.474609375 1316.43652344 l 1,8,9
 410 965 410 965 410.89453125 958.670898438 c 0,10,11
 416.915785139 925.46443445 416.915785139 925.46443445 445.202148438 913.166015625 c 6,12,-1
 468.202148438 903.166015625 l 5,13,-1
 470.985351562 901.956054688 l 5,14,-1
 471 904.990234375 l 6,15,16
 473 1317 473 1317 819 1317 c 0,17,18
 916 1317 916 1317 1012.72167969 1276.43554688 c 1,19,-1
 998.252929688 1128.67578125 l 1,20,21
 914 1156 914 1156 833.979492188 1155.4921875 c 0,22,23
 736 1154 736 1154 678.372070312 1094.8046875 c 0,24,25
 615 1031 615 1031 615 916 c 4,26,27
 615 817 615 817 826.736328125 817.7265625 c 4,28,29
 961 818 961 818 1051.40527344 846.3125 c 5,30,-1
 1053.83203125 683.821289062 l 5,31,32
 932 651 932 651 814.99609375 651.387695312 c 4,33,34
 609.429588639 651.000808508 609.429588639 651.000808508 450.872070312 727.799804688 c 6,35,-1
 447.71875 729.327148438 l 5,36,-1
 448.006835938 725.834960938 l 6,0,1
EndSplineSet
PairPos2: "'kern' Horizontal Kerning lookup 15-4" uni06F5 dx=-40 dy=0 dh=-40 dv=0 dx=0 dy=0 dh=0 dv=0
EndChar

StartChar: uni06F5
Encoding: 1781 1781 91
Width: 1258
VWidth: 2551
GlyphClass: 2
Flags: W
LayerCount: 2
Fore
SplineSet
387.672851562 183.653320312 m 0,0,1
 536.01171875 182.995117188 536.01171875 182.995117188 558.254882812 414.513671875 c 1,2,-1
 697.3984375 414.513671875 l 1,3,4
 707.921875 183.0234375 707.921875 183.0234375 865.069335938 179.567382812 c 0,5,6
 995.009765625 176.958984375 995.009765625 176.958984375 994.333984375 324.823242188 c 0,7,8
 992.99609375 589.76171875 992.99609375 589.76171875 631.174804688 998.803710938 c 2,9,-1
 629.666992188 1000.5078125 l 1,10,-1
 628.169921875 998.793945312 l 2,11,12
 446.120117188 790.3125 446.120117188 790.3125 354.639648438 621.428710938 c 128,-1,13
 263.159179688 452.543945312 263.159179688 452.543945312 262.311523438 322.9609375 c 0,14,15
 260.98046875 184.005859375 260.98046875 184.005859375 387.672851562 183.653320312 c 0,0,1
383.3125 -0.4072265625 m 0,16,17
 102 -0.0029296875 102 -0.0029296875 102.068359375 296.868164062 c 0,18,19
 102 642.256835938 102 642.256835938 513.016601562 1119.21582031 c 2,20,-1
 514.184570312 1120.57128906 l 1,21,-1
 512.967773438 1121.88183594 l 2,22,23
 504.778320312 1130.70605469 504.778320312 1130.70605469 496.3203125 1139.74609375 c 128,-1,24
 487.862304688 1148.78515625 487.862304688 1148.78515625 479.629882812 1157.515625 c 128,-1,25
 471.396484375 1166.24609375 471.396484375 1166.24609375 463.46875 1174.58496094 c 1,26,-1
 582.708007812 1312.39355469 l 1,27,28
 607.784179688 1281.23925781 607.784179688 1281.23925781 674.053710938 1210.54980469 c 0,29,30
 1155.00195312 690.21484375 1155.00195312 690.21484375 1155.93261719 323.596679688 c 0,31,32
 1156.99316406 0 1156.99316406 0 867.362304688 0.021484375 c 0,33,34
 685.403320312 0 685.403320312 0 624.53125 168.379882812 c 2,35,-1
 622.655273438 173.5703125 l 1,36,-1
 620.770507812 168.3828125 l 2,37,38
 558.369140625 0.6962890625 558.369140625 0.6962890625 383.3125 -0.4072265625 c 0,16,17
EndSplineSet
PairPos2: "'kern' Horizontal Kerning lookup 15-4" uni06F7 dx=-100 dy=0 dh=-100 dv=0 dx=0 dy=0 dh=0 dv=0
PairPos2: "'kern' Horizontal Kerning lookup 15-4" uni06F6 dx=-30 dy=0 dh=-30 dv=0 dx=0 dy=0 dh=0 dv=0
PairPos2: "'kern' Horizontal Kerning lookup 15-4" uni06F4 dx=-30 dy=0 dh=-30 dv=0 dx=0 dy=0 dh=0 dv=0
PairPos2: "'kern' Horizontal Kerning lookup 15-4" uni06F3 dx=-100 dy=0 dh=-100 dv=0 dx=0 dy=0 dh=0 dv=0
PairPos2: "'kern' Horizontal Kerning lookup 15-4" uni06F2 dx=-70 dy=0 dh=-70 dv=0 dx=0 dy=0 dh=0 dv=0
EndChar

StartChar: uni06F6
Encoding: 1782 1782 92
Width: 1000
VWidth: 2551
GlyphClass: 2
Flags: W
LayerCount: 2
Fore
SplineSet
303.875 939.676757812 m 0,0,1
 305 782 305 782 500.611328125 757.715820312 c 4,2,3
 555 751 555 751 583.150390625 756.853515625 c 4,4,5
 617 764 617 764 651.143554688 787.873046875 c 4,6,7
 730 844 730 844 809.35546875 899.807617188 c 5,8,-1
 897.13671875 745.703125 l 5,9,10
 723 672 723 672 357.10546875 -39.361328125 c 1,11,-1
 202.75 33.908203125 l 1,12,13
 449.358752272 495.798962335 449.358752272 495.798962335 514.6484375 590.868164062 c 6,14,-1
 516.573242188 593.670898438 l 5,15,-1
 513.188476562 593.991210938 l 6,16,17
 135 630 135 630 134.846679688 934.37109375 c 0,18,19
 135 1096 135 1096 230.485351562 1201.37695312 c 0,20,21
 334 1316 334 1316 506 1316 c 0,22,23
 628 1316 628 1316 714.520507812 1268.11621094 c 1,24,-1
 713.546875 1107.98144531 l 1,25,26
 631 1150 631 1150 539.994140625 1150.30664062 c 0,27,28
 439 1150 439 1150 374.7734375 1098.5703125 c 0,29,30
 303 1042 303 1042 303.875 939.676757812 c 0,0,1
EndSplineSet
PairPos2: "'kern' Horizontal Kerning lookup 15-4" uni06F8 dx=-30 dy=0 dh=-30 dv=0 dx=0 dy=0 dh=0 dv=0
PairPos2: "'kern' Horizontal Kerning lookup 15-4" uni06F7 dx=-30 dy=0 dh=-30 dv=0 dx=0 dy=0 dh=0 dv=0
PairPos2: "'kern' Horizontal Kerning lookup 15-4" uni06F5 dx=-70 dy=0 dh=-70 dv=0 dx=0 dy=0 dh=0 dv=0
EndChar

StartChar: uniFB8F
Encoding: 64399 64399 107
Width: 2022
VWidth: 2551
GlyphClass: 2
Flags: W
AnchorPoint: "Anchor-7" 849.692 -232.794 basechar 0
AnchorPoint: "Anchor-10" 599.382 1353.15 basechar 0
LayerCount: 2
Fore
SplineSet
1259.1015625 0.3837890625 m 2,0,-1
 533.767578125 -0.0966796875 l 2,1,2
 102.229689815 -5.14294297318e-05 102.229689815 -5.14294297318e-05 102.227539062 441.977539062 c 2,3,-1
 102.2265625 642.66015625 l 1,4,-1
 276.984375 642.66015625 l 1,5,-1
 276.984375 442.541015625 l 2,6,7
 277 312 277 312 342.026367188 246.064453125 c 0,8,9
 406.67614449 180.329292611 406.67614449 180.329292611 536.547851562 180.200195312 c 2,10,-1
 1260.59179688 179.48046875 l 2,11,12
 1506 179 1506 179 1510.38574219 314.2265625 c 0,13,14
 1512.14149905 367.887405102 1512.14149905 367.887405102 1398.828125 497.116210938 c 6,15,-1
 1078.18359375 862.796875 l 2,16,17
 1031 917 1031 917 1031.29980469 998.874023438 c 0,18,19
 1032.99515455 1118.65764837 1032.99515455 1118.65764837 1147.57910156 1156.38769531 c 2,20,-1
 1772.17773438 1362.0546875 l 1,21,-1
 1772.17773438 1181.87695312 l 1,22,-1
 1204.26855469 996.364257812 l 1,23,-1
 1201.38476562 995.421875 l 1,24,-1
 1203.38769531 993.142578125 l 1,25,-1
 1770.58789062 334.791015625 l 2,26,27
 1901.57862972 182.489921307 1901.57862972 182.489921307 2004.19140625 180.48046875 c 2,28,-1
 2028.7265625 180 l 2,29,30
 2051.74609375 180 2051.74609375 180 2051.74609375 97 c 2,31,-1
 2051.74609375 85.994140625 l 2,32,33
 2052 0 2052 0 2028.74609375 0 c 2,34,-1
 2014.12792969 0 l 2,35,36
 1811.0477876 -1.70530256582e-13 1811.0477876 -1.70530256582e-13 1663.796875 201.66015625 c 2,37,-1
 1661.51074219 204.791015625 l 1,38,-1
 1660.28417969 201.11328125 l 2,39,40
 1593 1 1593 1 1259.1015625 0.3837890625 c 2,0,-1
EndSplineSet
EndChar

StartChar: uniFB9F
Encoding: 64415 64415 115
Width: 1590
VWidth: 2551
GlyphClass: 2
Flags: W
AnchorPoint: "Anchor-7" 691 -667.5 basechar 0
AnchorPoint: "Anchor-10" 644.402 805.573 basechar 0
LayerCount: 2
Fore
SplineSet
1594.9765625 0 m 2,0,-1
 1557.31738281 0 l 2,1,2
 1392.00097656 0 1392.00097656 0 1331.17285156 81.2666015625 c 2,3,-1
 1327.57128906 86.078125 l 1,4,-1
 1327.57128906 80.068359375 l 1,5,-1
 1327.57128906 51.861328125 l 2,6,7
 1327.99804688 -450.940429688 1327.99804688 -450.940429688 748.819335938 -450.940429688 c 2,8,-1
 694.1015625 -450.940429688 l 2,9,10
 103.31640625 -451 103.31640625 -451 103.12109375 101.27734375 c 2,11,-1
 103.000976562 442 l 1,12,-1
 279.877929688 442.033203125 l 1,13,-1
 279.877929688 102.448242188 l 2,14,15
 280.000976562 -269.639648438 280.000976562 -269.639648438 696.272460938 -269.639648438 c 2,16,-1
 747.383789062 -269.639648438 l 2,17,18
 1164.34960938 -270.001953125 1164.34960938 -270.001953125 1164.16210938 46.55859375 c 2,19,-1
 1163.81542969 630.819335938 l 1,20,-1
 1340.26757812 630.91015625 l 1,21,-1
 1340.26757812 417.296875 l 2,22,23
 1340.20019531 358.16015625 1340.20019531 358.16015625 1354.34960938 313.678710938 c 128,-1,24
 1368.49804688 269.197265625 1368.49804688 269.197265625 1396.78320312 239.497070312 c 128,-1,25
 1425.06933594 209.797851562 1425.06933594 209.797851562 1467.50878906 194.8984375 c 128,-1,26
 1509.94824219 180 1509.94824219 180 1566.40722656 180 c 2,27,-1
 1594.9765625 180 l 2,28,29
 1617.9765625 180 1617.9765625 180 1617.9765625 97 c 2,30,-1
 1617.9765625 85.9990234375 l 2,31,32
 1617.98828125 42.6611328125 1617.98828125 42.6611328125 1611.92773438 21.330078125 c 128,-1,33
 1605.86816406 -0 1605.86816406 -0 1594.9765625 0 c 2,0,-1
EndSplineSet
EndChar

StartChar: uniFBE8
Encoding: 64488 64488 118
Width: 707
VWidth: 2551
GlyphClass: 2
Flags: W
AnchorPoint: "Anchor-10" 399.938 1218.35 basechar 0
AnchorPoint: "Anchor-7" 417.497 -144.32 basechar 0
LayerCount: 2
Fore
SplineSet
-5.0224609375 -0 m 2,0,1
 -58.0234375 -0 -58.0234375 -0 -58.0234375 86 c 2,2,-1
 -58.0234375 96.9990234375 l 2,3,4
 -58.0009765625 179.947265625 -58.0009765625 179.947265625 -5.021484375 180 c 2,5,-1
 227.595703125 180.23046875 l 2,6,7
 429.56640625 179.998046875 429.56640625 179.998046875 429.56640625 372.623046875 c 2,8,-1
 429.56640625 666.689453125 l 1,9,-1
 604.322265625 666.689453125 l 1,10,-1
 604.322265625 372.490234375 l 2,11,12
 604.001953125 -0.1728515625 604.001953125 -0.1728515625 228.689453125 -0.06640625 c 2,13,-1
 -5.0224609375 -0 l 2,0,1
EndSplineSet
EndChar

StartChar: uniFBE9
Encoding: 64489 64489 119
Width: 857
VWidth: 2551
GlyphClass: 2
Flags: W
AnchorPoint: "Anchor-10" 369.939 1124.45 basechar 0
AnchorPoint: "Anchor-7" 368.812 -149.016 basechar 0
LayerCount: 2
Fore
SplineSet
862.2265625 0 m 2,0,-1
 841.33203125 0 l 2,1,2
 620.057418236 0 620.057418236 0 532.62890625 135.932617188 c 1,3,4
 430.055766179 8.52651282912e-14 430.055766179 8.52651282912e-14 176.1484375 0 c 6,5,-1
 -5.0234375 0 l 2,6,7
 -58.0234375 0 -58.0234375 0 -58.0234375 86 c 2,8,-1
 -58.0234375 96.9990234375 l 2,9,10
 -58.01171875 139.017578125 -58.01171875 139.017578125 -44.75 159.508789062 c 128,-1,11
 -31.4873046875 180 -31.4873046875 180 -5.0234375 180 c 2,12,-1
 181.162109375 180 l 2,13,14
 436.671875 180 436.671875 180 436.671875 375.358398438 c 2,15,-1
 436.671875 633.372070312 l 1,16,-1
 613.15625 633.372070312 l 1,17,-1
 613.15625 375.3828125 l 2,18,19
 612.998046875 180 612.998046875 180 840.405273438 180 c 2,20,-1
 862.2265625 180 l 2,21,22
 885.2265625 180 885.2265625 180 885.2265625 97 c 2,23,-1
 885.2265625 86.0048828125 l 2,24,25
 885.004882812 0 885.004882812 0 862.2265625 0 c 2,0,-1
EndSplineSet
EndChar

StartChar: uniFE73
Encoding: 65139 65139 127
Width: 683
VWidth: 2551
GlyphClass: 2
Flags: W
AnchorPoint: "Anchor-10" 252.404 1488.29 basechar 0
AnchorPoint: "Anchor-7" 252.404 -144.32 basechar 0
LayerCount: 2
Fore
SplineSet
340.298828125 398.2109375 m 2,0,1
 341.198242188 317.33203125 341.198242188 317.33203125 406.791992188 251.193359375 c 0,2,3
 440.083007812 217.903320312 440.083007812 217.903320312 490.678710938 201.301757812 c 128,-1,4
 541.2734375 184.700195312 541.2734375 184.700195312 609.067382812 184.700195312 c 2,5,-1
 675.61328125 184.700195312 l 1,6,-1
 675.61328125 8.9091796875 l 1,7,-1
 539.997070312 8.9091796875 l 2,8,9
 373.116210938 8.9091796875 373.116210938 8.9091796875 268.813476562 113.212890625 c 128,-1,10
 164.509765625 217.515625 164.509765625 217.515625 164.509765625 383.141601562 c 2,11,-1
 164.509765625 409.498046875 l 1,12,-1
 340.298828125 409.498046875 l 1,13,-1
 340.298828125 398.2109375 l 2,0,1
EndSplineSet
EndChar

StartChar: uniFE8E
Encoding: 65166 65166 153
Width: 557
VWidth: 2551
GlyphClass: 2
Flags: W
AnchorPoint: "Anchor-10" 246.923 1511.04 basechar 0
AnchorPoint: "Anchor-7" 273.009 -246.554 basechar 0
LayerCount: 2
Fore
SplineSet
562.901367188 0 m 2,0,-1
 487.231445312 0 l 2,1,2
 160.69140625 0 160.69140625 0 160.69140625 375.251953125 c 2,3,-1
 160.69140625 1333.18847656 l 5,4,-1
 330 1333.18847656 l 5,5,-1
 330 374.139648438 l 2,6,7
 330 180 330 180 490.014648438 180 c 2,8,-1
 562.901367188 180 l 2,9,10
 585.901367188 180 585.901367188 180 585.901367188 97 c 2,11,-1
 585.901367188 85.998046875 l 2,12,13
 586 42 586 42 579.890625 21.328125 c 0,14,15
 574 0 574 0 562.901367188 0 c 2,0,-1
EndSplineSet
EndChar

StartChar: uniFEA2
Encoding: 65186 65186 173
Width: 1359
VWidth: 2551
GlyphClass: 2
Flags: W
AnchorPoint: "Anchor-7" 471.334 -835.653 basechar 0
AnchorPoint: "Anchor-10" 631.761 1273.94 basechar 0
LayerCount: 2
Fore
SplineSet
924.999023438 466.732421875 m 1,0,-1
 806.702148438 534.927734375 l 2,1,2
 538.164900745 689.904833168 538.164900745 689.904833168 316.461914062 513.758789062 c 2,3,-1
 244.942382812 456.935546875 l 1,4,-1
 129.924804688 586.147460938 l 1,5,-1
 191.008789062 637.67578125 l 2,6,7
 504.966973948 902.972092813 504.966973948 902.972092813 845.700195312 706.46484375 c 2,8,-1
 1034.70214844 597.463867188 l 2,9,10
 1137 539 1137 539 1214.62890625 522.573242188 c 1,11,-1
 1214.63 344.018554688 l 1,12,13
 1137.18956831 336.791290568 1137.18956831 336.791290568 1077.61621094 325.419921875 c 2,14,-1
 1075.98828125 325.1015625 l 1,15,-1
 1076 323.443359375 l 2,16,17
 1077 180 1077 180 1313.16308594 180 c 2,18,-1
 1363.9765625 180 l 2,19,20
 1386.9765625 180 1386.9765625 180 1386.9765625 97 c 2,21,-1
 1386.9765625 85.9990234375 l 2,22,23
 1387 0 1387 0 1363.9765625 0 c 2,24,-1
 1311.75683594 0 l 2,25,26
 1136 0 1136 0 1040.15917969 70.7607421875 c 0,27,28
 943.818115644 142.134748514 943.818115644 142.134748514 925.984375 283.250976562 c 2,29,-1
 925.7265625 285.291015625 l 1,30,-1
 923.694335938 284.9765625 l 2,31,32
 600 235 600 235 437.055664062 118.770507812 c 0,33,34
 274 3 274 3 273.6875 -179.765625 c 0,35,36
 271.997513476 -519.499860449 271.997513476 -519.499860449 804.4765625 -519.172851562 c 2,37,-1
 1216.33007812 -518.919921875 l 1,38,-1
 1216.33007812 -695.470703125 l 1,39,-1
 792.451171875 -694.58203125 l 2,40,41
 403 -694 403 -694 242.442382812 -540.393554688 c 0,42,43
 99 -402 99 -402 102.109375 -185.67578125 c 0,44,45
 108.004193588 340.374233217 108.004193588 340.374233217 924.297851562 463.022460938 c 2,46,-1
 929.958984375 463.873046875 l 1,47,-1
 924.999023438 466.732421875 l 1,0,-1
EndSplineSet
EndChar

StartChar: uniFEA3
Encoding: 65187 65187 174
Width: 1282
VWidth: 2551
GlyphClass: 2
Flags: W
AnchorPoint: "Anchor-10" 470.912 1237.39 basechar 0
AnchorPoint: "Anchor-7" 425.185 -251.728 basechar 0
LayerCount: 2
Fore
SplineSet
-5.0234375 0 m 2,0,1
 -58.0234375 0 -58.0234375 0 -58.0234375 86 c 2,2,-1
 -58.0234375 96.9990234375 l 2,3,4
 -58 139 -58 139 -44.75 159.508789062 c 0,5,6
 -31 180 -31 180 -5.0234375 180 c 2,7,-1
 300 180 l 2,8,9
 509.104222791 180 509.104222791 180 685.924804688 272.2265625 c 2,10,-1
 963.924804688 417.2265625 l 1,11,-1
 967.149414062 418.908203125 l 1,12,-1
 964.001953125 420.73046875 l 1,13,-1
 774.00390625 530.729492188 l 2,14,15
 505.897058898 686.059639866 505.897058898 686.059639866 283.755859375 509.565429688 c 2,16,-1
 212.236328125 452.7421875 l 1,17,-1
 97.21875 581.954101562 l 1,18,-1
 158.303710938 633.483398438 l 2,19,20
 472.544196024 898.615427551 472.544196024 898.615427551 812.994140625 702.271484375 c 2,21,-1
 1001.98925781 593.274414062 l 2,22,23
 1102.99714844 535 1102.99714844 535 1181.92 518.37890625 c 1,24,-1
 1181.92 339.193359375 l 5,25,-1
 774.051757812 117.760742188 l 2,26,27
 558 0 558 0 302 0 c 2,28,-1
 -5.0234375 0 l 2,0,1
EndSplineSet
EndChar

StartChar: uniFEA4
Encoding: 65188 65188 175
Width: 1329
VWidth: 2551
GlyphClass: 2
Flags: W
AnchorPoint: "Anchor-7" 425.185 -251.728 basechar 0
AnchorPoint: "Anchor-10" 470.912 1237.39 basechar 0
LayerCount: 2
Fore
SplineSet
891.04296875 181.498046875 m 1,0,-1
 774.051757812 117.760742188 l 2,1,2
 558 0 558 0 302 0 c 2,3,-1
 -5.0234375 0 l 2,4,5
 -58.0234375 0 -58.0234375 0 -58.0234375 86 c 2,6,-1
 -58.0234375 96.9990234375 l 2,7,8
 -58 139 -58 139 -44.75 159.508789062 c 0,9,10
 -31 180 -31 180 -5.0234375 180 c 2,11,-1
 300 180 l 2,12,13
 509.104222791 180 509.104222791 180 685.924804688 272.2265625 c 2,14,-1
 963.924804688 417.2265625 l 1,15,-1
 967.149414062 418.908203125 l 1,16,-1
 964.001953125 420.73046875 l 1,17,-1
 774.00390625 530.729492188 l 2,18,19
 505.897058898 686.059639866 505.897058898 686.059639866 283.755859375 509.565429688 c 2,20,-1
 212.236328125 452.7421875 l 1,21,-1
 97.21875 581.954101562 l 1,22,-1
 158.303710938 633.483398438 l 6,23,24
 472.545388565 898.616433726 472.545388565 898.616433726 812.994140625 702.271484375 c 2,25,-1
 1001.99609375 593.26953125 l 2,26,27
 1101 536 1101 536 1181.92285156 518.3828125 c 1,28,-1
 1181.92 339.193359375 l 1,29,-1
 1028.04296875 256.13671875 l 1,30,-1
 1025.71777344 254.870117188 l 1,31,-1
 1027.57226562 252.98046875 l 2,32,33
 1099 180 1099 180 1213.06835938 180 c 2,34,-1
 1333.9765625 180 l 2,35,36
 1356.9765625 180 1356.9765625 180 1356.9765625 97 c 2,37,-1
 1356.9765625 85.9990234375 l 2,38,39
 1357 43 1357 43 1350.92773438 21.330078125 c 0,40,41
 1345 0 1345 0 1333.9765625 0 c 2,42,-1
 1216.07324219 0 l 2,43,44
 998.163152021 -1.13686837722e-13 998.163152021 -1.13686837722e-13 893.731445312 180.743164062 c 2,45,-1
 892.755859375 182.431640625 l 1,46,-1
 891.04296875 181.498046875 l 1,0,-1
EndSplineSet
EndChar

StartChar: uniFEAA
Encoding: 65194 65194 181
Width: 1204
VWidth: 2551
GlyphClass: 2
Flags: W
AnchorPoint: "Anchor-7" 428.382 -244.53 basechar 0
AnchorPoint: "Anchor-10" 403.659 1298.16 basechar 0
LayerCount: 2
Fore
SplineSet
1208.9765625 0 m 2,0,-1
 1193.35644531 0 l 2,1,2
 1006.96386719 0 1006.96386719 0 870.564453125 171.24609375 c 2,3,-1
 868.373046875 173.998046875 l 1,4,-1
 867.12890625 170.70703125 l 2,5,6
 802.618164062 0 802.618164062 0 482.64453125 0 c 2,7,-1
 103.899414062 0 l 1,8,-1
 103.899414062 180 l 1,9,-1
 469.596679688 180 l 2,10,11
 488.200195312 180 488.200195312 180 505.465820312 180.622070312 c 0,12,13
 732.752929688 188.811523438 732.752929688 188.811523438 728.509765625 305.069335938 c 0,14,15
 727.241210938 341.435546875 727.241210938 341.435546875 701.509765625 388.469726562 c 128,-1,16
 675.77734375 435.504882812 675.77734375 435.504882812 625.619140625 493.515625 c 2,17,-1
 352.438476562 809.461914062 l 1,18,-1
 475.516601562 944.2265625 l 1,19,-1
 1011.4609375 298.72265625 l 2,20,21
 1110.06152344 180 1110.06152344 180 1200.41015625 180 c 2,22,-1
 1208.9765625 180 l 2,23,24
 1231.9765625 180 1231.9765625 180 1231.9765625 97 c 2,25,-1
 1231.9765625 85.9990234375 l 2,26,27
 1231.98828125 42.6611328125 1231.98828125 42.6611328125 1225.92773438 21.330078125 c 128,-1,28
 1219.86816406 -0 1219.86816406 -0 1208.9765625 0 c 2,0,-1
EndSplineSet
EndChar

StartChar: uniFEAE
Encoding: 65198 65198 185
Width: 883
VWidth: 2551
GlyphClass: 2
Flags: W
AnchorPoint: "Anchor-10" 450.527 953.269 basechar 0
AnchorPoint: "Anchor-7" 297.433 -669.366 basechar 0
LayerCount: 2
Fore
SplineSet
888.022460938 0 m 2,0,-1
 871.923828125 0 l 2,1,2
 788 0 788 0 735.463867188 19.3212890625 c 0,3,4
 682.844400672 39.0583638674 682.844400672 39.0583638674 662.137695312 76.9658203125 c 2,5,-1
 658.388671875 83.8291015625 l 1,6,-1
 658.3828125 76.0078125 l 2,7,8
 658.000133552 -462.811955947 658.000133552 -462.811955947 95.3544921875 -462.412109375 c 6,9,-1
 23.8974609375 -462.361328125 l 5,10,-1
 23.900390625 -283.198242188 l 5,11,-1
 90.5703125 -283.265625 l 6,12,13
 483.584960938 -283.999225289 483.584960938 -283.999225289 483.584960938 79.4990234375 c 2,14,-1
 483.584960938 604.638671875 l 1,15,-1
 657.209960938 605.66796875 l 1,16,-1
 657.209960938 383.162109375 l 2,17,18
 657 180 657 180 871.923828125 180 c 2,19,-1
 888.022460938 180 l 2,20,21
 911.022460938 180 911.022460938 180 911.022460938 97 c 2,22,-1
 911.022460938 86.0009765625 l 2,23,24
 911 0 911 0 888.022460938 0 c 2,0,-1
EndSplineSet
PairPos2: "'kern' Horizontal Kerning lookup 15-2" uniFBFE dx=60 dy=0 dh=60 dv=0 dx=0 dy=0 dh=0 dv=0
PairPos2: "'kern' Horizontal Kerning lookup 15-2" uniFEF3 dx=60 dy=0 dh=60 dv=0 dx=0 dy=0 dh=0 dv=0
PairPos2: "'kern' Horizontal Kerning lookup 15-1" uniFEFB dx=-100 dy=0 dh=-100 dv=0 dx=0 dy=0 dh=0 dv=0
PairPos2: "'kern' Horizontal Kerning lookup 15-1" uniFEDF dx=-100 dy=0 dh=-100 dv=0 dx=0 dy=0 dh=0 dv=0
PairPos2: "'kern' Horizontal Kerning lookup 15-1" uni062F dx=-100 dy=0 dh=-100 dv=0 dx=0 dy=0 dh=0 dv=0
PairPos2: "'kern' Horizontal Kerning lookup 15-2" uniFB90 dx=-142 dy=0 dh=-142 dv=0 dx=0 dy=0 dh=0 dv=0
PairPos2: "'kern' Horizontal Kerning lookup 15-2" uniFB8E dx=-142 dy=0 dh=-142 dv=0 dx=0 dy=0 dh=0 dv=0
PairPos2: "'kern' Horizontal Kerning lookup 15-2" uni06A9 dx=-142 dy=0 dh=-142 dv=0 dx=0 dy=0 dh=0 dv=0
PairPos2: "'kern' Horizontal Kerning lookup 15-2" uniFEEB dx=-100 dy=0 dh=-100 dv=0 dx=0 dy=0 dh=0 dv=0
PairPos2: "'kern' Horizontal Kerning lookup 15-2" uni0647 dx=-100 dy=0 dh=-100 dv=0 dx=0 dy=0 dh=0 dv=0
PairPos2: "'kern' Horizontal Kerning lookup 15-2" uniFEE7 dx=-100 dy=0 dh=-100 dv=0 dx=0 dy=0 dh=0 dv=0
PairPos2: "'kern' Horizontal Kerning lookup 15-2" uniFEE3 dx=-100 dy=0 dh=-100 dv=0 dx=0 dy=0 dh=0 dv=0
PairPos2: "'kern' Horizontal Kerning lookup 15-2" uni0645 dx=-100 dy=0 dh=-100 dv=0 dx=0 dy=0 dh=0 dv=0
PairPos2: "'kern' Horizontal Kerning lookup 15-2" uniFEDB dx=-142 dy=0 dh=-142 dv=0 dx=0 dy=0 dh=0 dv=0
PairPos2: "'kern' Horizontal Kerning lookup 15-2" uni0643 dx=-100 dy=0 dh=-100 dv=0 dx=0 dy=0 dh=0 dv=0
PairPos2: "'kern' Horizontal Kerning lookup 15-2" uniFED7 dx=-100 dy=0 dh=-100 dv=0 dx=0 dy=0 dh=0 dv=0
PairPos2: "'kern' Horizontal Kerning lookup 15-2" uniFED3 dx=-100 dy=0 dh=-100 dv=0 dx=0 dy=0 dh=0 dv=0
PairPos2: "'kern' Horizontal Kerning lookup 15-2" uni0641 dx=-100 dy=0 dh=-100 dv=0 dx=0 dy=0 dh=0 dv=0
PairPos2: "'kern' Horizontal Kerning lookup 15-2" uniFECF dx=-100 dy=0 dh=-100 dv=0 dx=0 dy=0 dh=0 dv=0
PairPos2: "'kern' Horizontal Kerning lookup 15-2" uniFECB dx=-100 dy=0 dh=-100 dv=0 dx=0 dy=0 dh=0 dv=0
PairPos2: "'kern' Horizontal Kerning lookup 15-2" uniFEC7 dx=-100 dy=0 dh=-100 dv=0 dx=0 dy=0 dh=0 dv=0
PairPos2: "'kern' Horizontal Kerning lookup 15-2" uni0638 dx=-100 dy=0 dh=-100 dv=0 dx=0 dy=0 dh=0 dv=0
PairPos2: "'kern' Horizontal Kerning lookup 15-2" uniFEC3 dx=-100 dy=0 dh=-100 dv=0 dx=0 dy=0 dh=0 dv=0
PairPos2: "'kern' Horizontal Kerning lookup 15-2" uni0637 dx=-100 dy=0 dh=-100 dv=0 dx=0 dy=0 dh=0 dv=0
PairPos2: "'kern' Horizontal Kerning lookup 15-2" uniFEBF dx=-100 dy=0 dh=-100 dv=0 dx=0 dy=0 dh=0 dv=0
PairPos2: "'kern' Horizontal Kerning lookup 15-2" uni0636 dx=-100 dy=0 dh=-100 dv=0 dx=0 dy=0 dh=0 dv=0
PairPos2: "'kern' Horizontal Kerning lookup 15-2" uniFEBB dx=-100 dy=0 dh=-100 dv=0 dx=0 dy=0 dh=0 dv=0
PairPos2: "'kern' Horizontal Kerning lookup 15-2" uni0635 dx=-100 dy=0 dh=-100 dv=0 dx=0 dy=0 dh=0 dv=0
PairPos2: "'kern' Horizontal Kerning lookup 15-2" uniFEB7 dx=-100 dy=0 dh=-100 dv=0 dx=0 dy=0 dh=0 dv=0
PairPos2: "'kern' Horizontal Kerning lookup 15-2" uni0634 dx=-100 dy=0 dh=-100 dv=0 dx=0 dy=0 dh=0 dv=0
PairPos2: "'kern' Horizontal Kerning lookup 15-2" uniFEB3 dx=-100 dy=0 dh=-100 dv=0 dx=0 dy=0 dh=0 dv=0
PairPos2: "'kern' Horizontal Kerning lookup 15-2" uni0633 dx=-100 dy=0 dh=-100 dv=0 dx=0 dy=0 dh=0 dv=0
PairPos2: "'kern' Horizontal Kerning lookup 15-2" uniFEA7 dx=-100 dy=0 dh=-100 dv=0 dx=0 dy=0 dh=0 dv=0
PairPos2: "'kern' Horizontal Kerning lookup 15-2" uniFEA3 dx=-100 dy=0 dh=-100 dv=0 dx=0 dy=0 dh=0 dv=0
PairPos2: "'kern' Horizontal Kerning lookup 15-2" uniFE9F dx=-100 dy=0 dh=-100 dv=0 dx=0 dy=0 dh=0 dv=0
PairPos2: "'kern' Horizontal Kerning lookup 15-2" uniFE9B dx=-100 dy=0 dh=-100 dv=0 dx=0 dy=0 dh=0 dv=0
PairPos2: "'kern' Horizontal Kerning lookup 15-2" uni062B dx=-100 dy=0 dh=-100 dv=0 dx=0 dy=0 dh=0 dv=0
PairPos2: "'kern' Horizontal Kerning lookup 15-2" uniFE97 dx=-100 dy=0 dh=-100 dv=0 dx=0 dy=0 dh=0 dv=0
PairPos2: "'kern' Horizontal Kerning lookup 15-2" uni062A dx=-100 dy=0 dh=-100 dv=0 dx=0 dy=0 dh=0 dv=0
PairPos2: "'kern' Horizontal Kerning lookup 15-2" uni0629 dx=-100 dy=0 dh=-100 dv=0 dx=0 dy=0 dh=0 dv=0
PairPos2: "'kern' Horizontal Kerning lookup 15-2" uniFE91 dx=-47 dy=0 dh=-47 dv=0 dx=0 dy=0 dh=0 dv=0
PairPos2: "'kern' Horizontal Kerning lookup 15-2" uni0628 dx=-100 dy=0 dh=-100 dv=0 dx=0 dy=0 dh=0 dv=0
PairPos2: "'kern' Horizontal Kerning lookup 15-2" uni0627 dx=-160 dy=0 dh=-160 dv=0 dx=0 dy=0 dh=0 dv=0
PairPos2: "'kern' Horizontal Kerning lookup 15-2" uni0622 dx=-160 dy=0 dh=-160 dv=0 dx=0 dy=0 dh=0 dv=0
PairPos2: "'kern' Horizontal Kerning lookup 15-2" uni0621 dx=-100 dy=0 dh=-100 dv=0 dx=0 dy=0 dh=0 dv=0
PairPos2: "'kern' Horizontal Kerning lookup 15-2" uniFB94 dx=-142 dy=0 dh=-142 dv=0 dx=0 dy=0 dh=0 dv=0
PairPos2: "'kern' Horizontal Kerning lookup 15-2" uniFB92 dx=-142 dy=0 dh=-142 dv=0 dx=0 dy=0 dh=0 dv=0
PairPos2: "'kern' Horizontal Kerning lookup 15-2" afii57509 dx=-142 dy=0 dh=-142 dv=0 dx=0 dy=0 dh=0 dv=0
PairPos2: "'kern' Horizontal Kerning lookup 15-2" uniFB7C dx=-100 dy=0 dh=-100 dv=0 dx=0 dy=0 dh=0 dv=0
PairPos2: "'kern' Horizontal Kerning lookup 15-2" afii57506 dx=-100 dy=0 dh=-100 dv=0 dx=0 dy=0 dh=0 dv=0
PairPos2: "'kern' Horizontal Kerning lookup 15-2" afii57440 dx=-100 dy=0 dh=-100 dv=0 dx=0 dy=0 dh=0 dv=0
EndChar

StartChar: uniFEB2
Encoding: 65202 65202 189
Width: 2632
VWidth: 2551
GlyphClass: 2
Flags: W
AnchorPoint: "Anchor-10" 1778.4 1063.57 basechar 0
AnchorPoint: "Anchor-7" 691 -667.5 basechar 0
LayerCount: 2
Fore
SplineSet
1879.80957031 373.608398438 m 2,0,1
 1880.81531974 180.013898201 1880.81531974 180.013898201 2048.36621094 178.966796875 c 0,2,3
 2212.86425781 177.989257812 2212.86425781 177.989257812 2212.66210938 372.676757812 c 2,4,-1
 2212.390625 633.62109375 l 1,5,-1
 2385.51367188 633.62109375 l 1,6,-1
 2386.53027344 375.474609375 l 2,7,8
 2387.00591375 179.93359375 2387.00591375 179.93359375 2609.88574219 179.93359375 c 6,9,-1
 2637.32324219 179.93359375 l 2,10,11
 2648.21875 179.962890625 2648.21875 179.962890625 2654.26855469 159.405273438 c 128,-1,12
 2660.31738281 138.846679688 2660.31738281 138.846679688 2660.31738281 96.93359375 c 2,13,-1
 2660.31738281 85.9404296875 l 2,14,15
 2660.00683594 -0.06640625 2660.00683594 -0.06640625 2637.31738281 -0.06640625 c 2,16,-1
 2617.31445312 -0.06640625 l 2,17,18
 2399.07910156 -0 2399.07910156 -0 2309.61035156 136.208007812 c 2,19,-1
 2307.60644531 139.2578125 l 1,20,-1
 2306.11328125 135.928710938 l 2,21,22
 2243.43945312 -0.4560546875 2243.43945312 -0.4560546875 2056.42382812 -1.06640625 c 0,23,24
 1871.22753906 -1 1871.22753906 -1 1800.67285156 138.015625 c 2,25,-1
 1798.82226562 141.663085938 l 1,26,-1
 1797.08007812 137.961914062 l 2,27,28
 1730.73632812 -2.9873046875 1730.73632812 -2.9873046875 1533.37890625 -1.06640625 c 0,29,30
 1408.86080126 -0.00696828372916 1408.86080126 -0.00696828372916 1331.01757812 81.4501953125 c 2,31,-1
 1327.57128906 85.0556640625 l 1,32,-1
 1327.57128906 80.068359375 l 1,33,-1
 1327.57128906 51.861328125 l 2,34,35
 1327.99804688 -450.940429688 1327.99804688 -450.940429688 748.819335938 -450.940429688 c 2,36,-1
 694.1015625 -450.940429688 l 2,37,38
 103.31640625 -451 103.31640625 -451 103.12109375 101.27734375 c 2,39,-1
 103.000976562 442 l 1,40,-1
 279.877929688 442.033203125 l 1,41,-1
 279.877929688 102.448242188 l 2,42,43
 280.000976562 -269.639648438 280.000976562 -269.639648438 696.272460938 -269.639648438 c 2,44,-1
 747.383789062 -269.639648438 l 2,45,46
 1164.34960938 -270.001953125 1164.34960938 -270.001953125 1164.16210938 46.55859375 c 2,47,-1
 1163.81542969 630.819335938 l 1,48,-1
 1340.26757812 630.91015625 l 1,49,-1
 1340.26757812 397.297851562 l 2,50,51
 1339.99707031 180.010742188 1339.99707031 180.010742188 1533.96972656 178.93359375 c 0,52,53
 1702.07795315 177.988021682 1702.07795315 177.988021682 1702.61328125 371.668945312 c 2,54,-1
 1703.33398438 632.62109375 l 1,55,-1
 1878.46777344 632.62109375 l 1,56,-1
 1879.80957031 373.608398438 l 2,0,1
EndSplineSet
EndChar

StartChar: uniFEB3
Encoding: 65203 65203 190
Width: 1643
VWidth: 2551
GlyphClass: 2
Flags: W
AnchorPoint: "Anchor-10" 804.679 1111.53 basechar 0
AnchorPoint: "Anchor-7" 934.307 -329.179 basechar 0
LayerCount: 2
Fore
SplineSet
1038.34570312 374.674804688 m 2,0,1
 1039.34960938 181.009765625 1039.34960938 181.009765625 1216.98144531 180 c 0,2,3
 1365.484375 178.983398438 1365.484375 178.983398438 1365.484375 370.9921875 c 2,4,-1
 1365.484375 666.362304688 l 1,5,-1
 1540.2421875 666.362304688 l 1,6,-1
 1540.2421875 363.030273438 l 2,7,8
 1540.00097656 0 1540.00097656 0 1224.95898438 0 c 0,9,10
 1031.20898438 0 1031.20898438 0 959.196289062 137.106445312 c 2,11,-1
 957.319335938 140.680664062 l 1,12,-1
 955.61328125 137.021484375 l 2,13,14
 891.725585938 0 891.725585938 0 681.8984375 0 c 0,15,16
 491.204101562 0 491.204101562 0 418.274414062 137.82421875 c 2,17,-1
 416.627929688 140.935546875 l 1,18,-1
 414.797851562 137.928710938 l 2,19,20
 330.875976562 0 330.875976562 0 88.82421875 0 c 2,21,-1
 -5.0234375 0 l 2,22,23
 -58.0234375 0 -58.0234375 0 -58.0234375 86 c 2,24,-1
 -58.0234375 96.9990234375 l 2,25,26
 -58.01171875 139.017578125 -58.01171875 139.017578125 -44.75 159.508789062 c 128,-1,27
 -31.4873046875 180 -31.4873046875 180 -5.0234375 180 c 2,28,-1
 89.7529296875 180 l 2,29,30
 321.5078125 180 321.5078125 180 321.87890625 373.975585938 c 2,31,-1
 322.375976562 633.6875 l 1,32,-1
 498.4921875 633.6875 l 1,33,-1
 499.108398438 372.171875 l 2,34,35
 500.009765625 181.010742188 500.009765625 181.010742188 682.505859375 180 c 0,36,37
 860.614257812 178.991210938 860.614257812 178.991210938 861.149414062 372.735351562 c 2,38,-1
 861.870117188 633.6875 l 1,39,-1
 1037.00390625 633.6875 l 1,40,-1
 1038.34570312 374.674804688 l 2,0,1
EndSplineSet
EndChar

StartChar: uniFEB4
Encoding: 65204 65204 191
Width: 1791
VWidth: 2546
GlyphClass: 2
Flags: W
AnchorPoint: "Anchor-10" 880.65 1105.67 basechar 0
LayerCount: 2
Fore
SplineSet
1546.01757812 375.538085938 m 2,0,1
 1546.78808594 180 1546.78808594 180 1769.37304688 180 c 2,2,-1
 1796.8046875 180 l 2,3,4
 1819.8046875 180 1819.8046875 180 1819.8046875 97 c 2,5,-1
 1819.8046875 85.9951171875 l 2,6,7
 1819.85351562 64.0576171875 1819.85351562 64.0576171875 1818.26953125 47.533203125 c 128,-1,8
 1816.68652344 31.009765625 1816.68652344 31.009765625 1813.65234375 20.6396484375 c 128,-1,9
 1810.61914062 10.2705078125 1810.61914062 10.2705078125 1806.40234375 5.134765625 c 128,-1,10
 1802.18652344 0 1802.18652344 0 1796.8046875 0 c 2,11,-1
 1776.80078125 0 l 2,12,13
 1558.08300781 0 1558.08300781 0 1469.10058594 136.270507812 c 2,14,-1
 1467.09765625 139.337890625 l 1,15,-1
 1465.60058594 135.994140625 l 2,16,17
 1404.70410156 0 1404.70410156 0 1208.8984375 0 c 0,18,19
 1118.90625 0 1118.90625 0 1056.33789062 34.18359375 c 128,-1,20
 993.768554688 68.3662109375 993.768554688 68.3662109375 958.282226562 136.809570312 c 2,21,-1
 956.51953125 140.209960938 l 1,22,-1
 954.736328125 136.819335938 l 2,23,24
 882.791992188 0 882.791992188 0 681.8984375 0 c 0,25,26
 491.208007812 0 491.208007812 0 418.27734375 138.819335938 c 2,27,-1
 416.627929688 141.958007812 l 1,28,-1
 414.794921875 138.922851562 l 2,29,30
 330.872070312 0 330.872070312 0 88.82421875 0 c 2,31,-1
 -5.0234375 0 l 2,32,33
 -58.0234375 0 -58.0234375 0 -58.0234375 86 c 2,34,-1
 -58.0234375 96.9990234375 l 2,35,36
 -58.01171875 139.017578125 -58.01171875 139.017578125 -44.75 159.508789062 c 128,-1,37
 -31.4873046875 180 -31.4873046875 180 -5.0234375 180 c 2,38,-1
 89.7529296875 180 l 2,39,40
 321.5078125 180 321.5078125 180 321.87890625 373.975585938 c 2,41,-1
 322.375976562 633.6875 l 1,42,-1
 498.4921875 633.6875 l 1,43,-1
 499.108398438 372.171875 l 2,44,45
 500.009765625 181.010742188 500.009765625 181.010742188 682.505859375 180 c 0,46,47
 861.505859375 178.991210938 861.505859375 178.991210938 861.87890625 373.975585938 c 2,48,-1
 862.375976562 633.6875 l 1,49,-1
 1038.4921875 633.6875 l 1,50,-1
 1039.10839844 372.171875 l 2,51,52
 1040.00976562 181.01171875 1040.00976562 181.01171875 1209.50488281 180 c 0,53,54
 1372.35058594 178.985351562 1372.35058594 178.985351562 1372.14941406 372.743164062 c 2,55,-1
 1371.87792969 633.6875 l 1,56,-1
 1545.00097656 633.6875 l 1,57,-1
 1546.01757812 375.538085938 l 2,0,1
EndSplineSet
EndChar

StartChar: uniFEBA
Encoding: 65210 65210 197
Width: 2583
VWidth: 2551
GlyphClass: 2
Flags: W
AnchorPoint: "Anchor-7" 691 -667.5 basechar 0
AnchorPoint: "Anchor-10" 2006.4 1267.57 basechar 0
LayerCount: 2
Fore
SplineSet
1961.43945312 0 m 2,0,-1
 1616 0 l 2,1,2
 1383.09570312 0 1383.09570312 0 1331.25683594 81.1455078125 c 2,3,-1
 1327.57128906 86.9140625 l 1,4,-1
 1327.57128906 80.068359375 l 1,5,-1
 1327.57128906 51.861328125 l 2,6,7
 1327.99804688 -450.940429688 1327.99804688 -450.940429688 748.819335938 -450.940429688 c 2,8,-1
 694.1015625 -450.940429688 l 2,9,10
 103.31640625 -451 103.31640625 -451 103.12109375 101.27734375 c 2,11,-1
 103.000976562 442 l 1,12,-1
 279.877929688 442.033203125 l 1,13,-1
 279.877929688 102.448242188 l 2,14,15
 280.000976562 -269.639648438 280.000976562 -269.639648438 696.272460938 -269.639648438 c 2,16,-1
 747.383789062 -269.639648438 l 2,17,18
 1164.34960938 -270.001953125 1164.34960938 -270.001953125 1164.16210938 46.55859375 c 2,19,-1
 1163.81542969 630.819335938 l 1,20,-1
 1340.26757812 630.91015625 l 1,21,-1
 1340.26757812 417.297851562 l 2,22,23
 1339.99804688 231.438476562 1339.99804688 231.438476562 1437.69042969 207.059570312 c 2,24,-1
 1439.37402344 206.639648438 l 1,25,-1
 1440.02734375 208.247070312 l 2,26,27
 1670.34667969 775.000976562 1670.34667969 775.000976562 2017.67285156 775.200195312 c 0,28,29
 2225.66699219 774.999023438 2225.66699219 774.999023438 2329.56445312 633.921875 c 0,30,31
 2412.046875 521.920898438 2412.046875 521.920898438 2412.73730469 354.661132812 c 0,32,33
 2412.99891516 291.357256472 2412.99891516 291.357256472 2392.53515625 235.892578125 c 2,34,-1
 2392.11328125 234.75 l 1,35,-1
 2392.93457031 233.8515625 l 2,36,37
 2417.51855469 206.93359375 2417.51855469 206.93359375 2460.87207031 193.567382812 c 128,-1,38
 2504.22558594 180.200195312 2504.22558594 180.200195312 2566.29296875 180.200195312 c 2,39,-1
 2589.13574219 180.200195312 l 2,40,41
 2612.15136719 180.014648438 2612.15136719 180.014648438 2612.15136719 94.2001953125 c 2,42,-1
 2612.15136719 83.2041015625 l 2,43,44
 2612.07714844 41.2451171875 2612.07714844 41.2451171875 2606.02441406 20.6220703125 c 128,-1,45
 2599.97167969 0 2599.97167969 0 2589.15136719 0 c 2,46,-1
 2560.16699219 0 l 2,47,48
 2366.84765625 0 2366.84765625 0 2281.0546875 88.591796875 c 2,49,-1
 2279.80078125 89.88671875 l 1,50,-1
 2278.3828125 88.7734375 l 2,51,52
 2165.30859375 0 2165.30859375 0 1961.43945312 0 c 2,0,-1
2007.29589844 592.213867188 m 0,53,54
 1906.73144531 592.10546875 1906.73144531 592.10546875 1810.33789062 489.791015625 c 128,-1,55
 1713.94335938 387.4765625 1713.94335938 387.4765625 1621.35742188 183.353515625 c 2,56,-1
 1620.07421875 180.525390625 l 1,57,-1
 1623.1796875 180.52734375 l 1,58,-1
 1981.43945312 180.727539062 l 2,59,60
 2130.74316406 181.000976562 2130.74316406 181.000976562 2188.49023438 230.693359375 c 0,61,62
 2232.99804688 270.09765625 2232.99804688 270.09765625 2233.17480469 344.208007812 c 0,63,64
 2232.99902344 389.209960938 2232.99902344 389.209960938 2226.70507812 419.373046875 c 0,65,66
 2187.59765625 591.998046875 2187.59765625 591.998046875 2007.29589844 592.213867188 c 0,53,54
EndSplineSet
EndChar

StartChar: uniFEBB
Encoding: 65211 65211 198
Width: 1645
VWidth: 2551
GlyphClass: 2
Flags: W
AnchorPoint: "Anchor-10" 1002.11 1266.04 basechar 0
AnchorPoint: "Anchor-7" 654.109 -250.146 basechar 0
LayerCount: 2
Fore
SplineSet
1408.78613281 86.4619140625 m 0,0,1
 1295 0 1295 0 1091.26464844 0 c 2,2,-1
 751.32421875 0 l 2,3,4
 450.150509563 -2.84217094304e-14 450.150509563 -2.84217094304e-14 370.728515625 134.814453125 c 2,5,-1
 369.046875 137.668945312 l 1,6,-1
 367.303710938 134.8515625 l 2,7,8
 284 0 284 0 58.154296875 0 c 2,9,-1
 -5.0234375 0 l 2,10,11
 -58.0234375 0 -58.0234375 0 -58.0234375 86 c 2,12,-1
 -58.0234375 96.9990234375 l 2,13,14
 -58 139 -58 139 -44.75 159.508789062 c 0,15,16
 -31 180 -31 180 -5.0234375 180 c 2,17,-1
 51.2724609375 180 l 2,18,19
 269.774414062 180 269.774414062 180 269.774414062 385.534179688 c 2,20,-1
 269.774414062 633.1796875 l 1,21,-1
 442.7578125 633.1796875 l 1,22,-1
 443.829101562 381.984375 l 2,23,24
 445 207 445 207 568 207 c 2,25,-1
 569.345703125 207 l 1,26,-1
 569.852539062 208.24609375 l 2,27,28
 800 775 800 775 1147.5 775 c 0,29,30
 1353 775 1353 775 1459.40917969 633.6953125 c 0,31,32
 1542 525 1542 525 1542.5625 367.452148438 c 0,33,34
 1544 190 1544 190 1408.78613281 86.4619140625 c 0,0,1
1356.52734375 422.188476562 m 0,35,36
 1316.58398438 592 1316.58398438 592 1137.12109375 592.013671875 c 0,37,38
 935.70703125 592 935.70703125 592 751.180664062 182.348632812 c 2,39,-1
 749.909179688 179.52734375 l 1,40,-1
 753.00390625 179.52734375 l 1,41,-1
 1111.26757812 179.52734375 l 2,42,43
 1257.760008 180.00242897 1257.760008 180.00242897 1318.32617188 233.502929688 c 4,44,45
 1363 273.100585938 1363 273.100585938 1363 347 c 0,46,47
 1363 392.213867188 1363 392.213867188 1356.52734375 422.188476562 c 0,35,36
EndSplineSet
EndChar

StartChar: uniFEBC
Encoding: 65212 65212 199
Width: 1713
VWidth: 2551
GlyphClass: 2
Flags: W
AnchorPoint: "Anchor-7" 654.109 -250.146 basechar 0
AnchorPoint: "Anchor-10" 1002.11 1266.04 basechar 0
LayerCount: 2
Fore
SplineSet
1091.26464844 0 m 2,0,-1
 751.32421875 0 l 2,1,2
 450.143554688 0 450.143554688 0 370.728515625 134.814453125 c 2,3,-1
 369.046875 137.668945312 l 1,4,-1
 367.303710938 134.8515625 l 2,5,6
 283.612304688 -0.44140625 283.612304688 -0.44140625 58.1572265625 -0.0966796875 c 2,7,-1
 -5.0234375 0 l 2,8,9
 -58.0234375 0 -58.0234375 0 -58.0234375 86 c 2,10,-1
 -58.0234375 96.9990234375 l 2,11,12
 -58.01171875 139.017578125 -58.01171875 139.017578125 -44.75 159.508789062 c 128,-1,13
 -31.4873046875 180 -31.4873046875 180 -5.0234375 180 c 2,14,-1
 51.2724609375 180 l 2,15,16
 269.774414062 180.008789062 269.774414062 180.008789062 269.774414062 385.534179688 c 2,17,-1
 269.774414062 633.1796875 l 1,18,-1
 442.7578125 633.1796875 l 1,19,-1
 443.829101562 381.984375 l 2,20,21
 445.013671875 207 445.013671875 207 568 207 c 2,22,-1
 569.348632812 207 l 1,23,-1
 569.854492188 208.25 l 2,24,25
 799.34765625 775.997070312 799.34765625 775.997070312 1147.49804688 775.200195312 c 0,26,27
 1353.99707031 775.000976562 1353.99707031 775.000976562 1459.390625 633.919921875 c 0,28,29
 1541.00674886 523.33227197 1541.00674886 523.33227197 1542.5625 354.655273438 c 0,30,31
 1542.99680425 291.359088641 1542.99680425 291.359088641 1522.36230469 235.897460938 c 2,32,-1
 1521.93554688 234.750976562 l 1,33,-1
 1522.76171875 233.848632812 l 2,34,35
 1571.93652344 180.200195312 1571.93652344 180.200195312 1696.11816406 180.200195312 c 2,36,-1
 1718.9609375 180.200195312 l 2,37,38
 1741.9765625 180.016601562 1741.9765625 180.016601562 1741.9765625 94.2001953125 c 2,39,-1
 1741.9765625 83.19921875 l 2,40,41
 1741.99902344 0 1741.99902344 0 1718.9765625 0 c 2,42,-1
 1689.9921875 0 l 2,43,44
 1496.84762179 0 1496.84762179 0 1410.87890625 88.5927734375 c 2,45,-1
 1409.62402344 89.88671875 l 1,46,-1
 1408.20703125 88.7724609375 l 2,47,48
 1295.30761719 0 1295.30761719 0 1091.26464844 0 c 2,0,-1
1137.14746094 592.213867188 m 0,49,50
 935.712764125 595.018631916 935.712764125 595.018631916 751.177734375 182.34375 c 2,51,-1
 749.9140625 179.516601562 l 1,52,-1
 753.010742188 179.52734375 l 1,53,-1
 1111.26464844 180.727539062 l 2,54,55
 1260.74532867 181.001173593 1260.74532867 181.001173593 1318.31445312 230.693359375 c 4,56,57
 1363 270.096679688 1363 270.096679688 1363 344.200195312 c 0,58,59
 1363 389.211914062 1363 389.211914062 1356.52929688 419.380859375 c 0,60,61
 1317.59960938 589.98046875 1317.59960938 589.98046875 1137.14746094 592.213867188 c 0,49,50
EndSplineSet
EndChar

StartChar: uniFEC2
Encoding: 65218 65218 205
Width: 1437
VWidth: 2551
GlyphClass: 2
Flags: W
AnchorPoint: "Anchor-10" 468.72 1497.47 basechar 0
AnchorPoint: "Anchor-7" 609.72 -238 basechar 0
LayerCount: 2
Fore
SplineSet
815.263671875 -0.2001953125 m 2,0,-1
 103.770507812 -0.005859375 l 1,1,-1
 103.770507812 180.198242188 l 1,2,-1
 282.998046875 180 l 1,3,-1
 284.287109375 179.999023438 l 1,4,-1
 284.8203125 181.172851562 l 2,5,6
 321.74160258 261.803398194 321.74160258 261.803398194 392.673828125 396.185546875 c 2,7,-1
 392.905273438 396.624023438 l 1,8,-1
 392.905273438 1334.64355469 l 5,9,-1
 559 1334.64355469 l 5,10,-1
 559 630.859375 l 1,11,-1
 559 626.07421875 l 1,12,-1
 562.405273438 629.436523438 l 2,13,14
 710 775 710 775 871.5 775 c 0,15,16
 1078 775 1078 775 1183.39160156 633.717773438 c 0,17,18
 1265 523 1265 523 1266.5625 354.455078125 c 0,19,20
 1266.99754345 291.356298279 1266.99754345 291.356298279 1246.36132812 235.6953125 c 2,21,-1
 1245.93554688 234.546875 l 1,22,-1
 1246.76464844 233.645507812 l 2,23,24
 1296 180 1296 180 1420.11816406 180 c 2,25,-1
 1442.9765625 180 l 2,26,27
 1465.9765625 180 1465.9765625 180 1465.9765625 94 c 2,28,-1
 1465.9765625 82.9990234375 l 2,29,30
 1466.00005653 -0.2001953125 1466.00005653 -0.2001953125 1442.9765625 -0.2001953125 c 2,31,-1
 1413.99414062 -0.2001953125 l 2,32,33
 1220.86058307 0.000144618984365 1220.86058307 0.000144618984365 1134.87695312 88.39453125 c 2,34,-1
 1133.62304688 89.68359375 l 1,35,-1
 1132.20898438 88.5732421875 l 2,36,37
 1019 -0 1019 -0 815.263671875 -0.2001953125 c 2,0,-1
861.12109375 592.013671875 m 0,38,39
 658.712890625 592.013671875 658.712890625 592.013671875 474.85546875 183.34765625 c 2,40,-1
 473.586914062 180.52734375 l 1,41,-1
 476.6796875 180.52734375 l 1,42,-1
 835.267578125 180.52734375 l 2,43,44
 984.744140625 181.001953125 984.744140625 181.001953125 1042.31542969 230.493164062 c 0,45,46
 1087 270.100585938 1087 270.100585938 1087 344 c 0,47,48
 1087 389.208731856 1087 389.208731856 1080.52832031 419.184570312 c 0,49,50
 1040.58691406 592.013671875 1040.58691406 592.013671875 861.12109375 592.013671875 c 0,38,39
EndSplineSet
EndChar

StartChar: uniFEC3
Encoding: 65219 65219 206
Width: 1166
VWidth: 2551
GlyphClass: 2
Flags: W
AnchorPoint: "Anchor-10" 268.72 1494.47 basechar 0
AnchorPoint: "Anchor-7" 409.72 -238 basechar 0
LayerCount: 2
Fore
SplineSet
612.724609375 0 m 2,0,-1
 -5.0234375 0 l 2,1,2
 -58.0234375 0 -58.0234375 0 -58.0234375 86 c 2,3,-1
 -58.0234375 96.9990234375 l 2,4,5
 -58 139 -58 139 -44.75 159.508789062 c 0,6,7
 -31 180 -31 180 -5.0234375 180 c 2,8,-1
 80.7841796875 180 l 1,9,-1
 82.2158203125 180 l 1,10,-1
 82.677734375 181.35546875 l 2,11,12
 93.5626349634 212.615832256 93.5626349634 212.615832256 190.458007812 396.185546875 c 2,13,-1
 190.689453125 396.624023438 l 1,14,-1
 190.689453125 1334.64355469 l 5,15,-1
 356.784179688 1334.64355469 l 5,16,-1
 356.784179688 630.859375 l 1,17,-1
 356.784179688 626.079101562 l 1,18,-1
 360.188476562 629.435546875 l 2,19,20
 508 775 508 775 669.959960938 775 c 0,21,22
 873 775 873 775 980.875 633.6875 c 0,23,24
 1064 526 1064 526 1064.02246094 364.4453125 c 0,25,26
 1064 186 1064 186 930.252929688 85.4677734375 c 0,27,28
 817 0 817 0 612.724609375 0 c 2,0,-1
658.581054688 592.013671875 m 0,29,30
 456.713867188 592.013671875 456.713867188 592.013671875 272.640625 183.348632812 c 2,31,-1
 271.369140625 180.52734375 l 1,32,-1
 274.463867188 180.52734375 l 1,33,-1
 632.727539062 180.52734375 l 2,34,35
 781.739257812 181.001953125 781.739257812 181.001953125 839.766601562 230.485351562 c 0,36,37
 883.993826612 269.086601947 883.993826612 269.086601947 884.459960938 343.975585938 c 0,38,39
 885.00247172 389.212187734 885.00247172 389.212187734 877.986328125 419.192382812 c 0,40,41
 838.592773438 592.013671875 838.592773438 592.013671875 658.581054688 592.013671875 c 0,29,30
EndSplineSet
EndChar

StartChar: uniFEC4
Encoding: 65220 65220 207
Width: 1234
VWidth: 2551
GlyphClass: 2
Flags: W
AnchorPoint: "Anchor-10" 268.72 1494.47 basechar 0
AnchorPoint: "Anchor-7" 409.72 -238 basechar 0
LayerCount: 2
Fore
SplineSet
613.048828125 0 m 2,0,-1
 -5.0234375 0 l 2,1,2
 -58.0234375 0 -58.0234375 0 -58.0234375 86 c 2,3,-1
 -58.0234375 96.9990234375 l 2,4,5
 -58.0000349044 179.876390415 -58.0000349044 179.876390415 -5.0185546875 180 c 2,6,-1
 80.7890625 180.200195312 l 1,7,-1
 82.068359375 180.203125 l 1,8,-1
 82.6025390625 181.366210938 l 2,9,10
 114.763108353 252.08148025 114.763108353 252.08148025 190.459960938 396.388671875 c 2,11,-1
 190.689453125 396.826171875 l 1,12,-1
 190.689453125 1334.84375 l 5,13,-1
 356.784179688 1334.84375 l 5,14,-1
 356.784179688 631.059570312 l 1,15,-1
 356.784179688 626.283203125 l 1,16,-1
 360.1875 629.634765625 l 2,17,18
 508 775 508 775 669.282226562 775.200195312 c 0,19,20
 773 775 773 775 850.661132812 739.78515625 c 0,21,22
 929 704 929 704 981.1796875 633.913085938 c 0,23,24
 1062 525 1062 525 1064.34667969 354.6484375 c 0,25,26
 1065 300 1065 300 1049.66503906 251.903320312 c 0,27,28
 1045 239 1045 239 1044.1484375 235.904296875 c 2,29,-1
 1043.71484375 234.750976562 l 1,30,-1
 1044.54882812 233.845703125 l 2,31,32
 1093.81614331 180.200195312 1093.81614331 180.200195312 1217.90234375 180.200195312 c 2,33,-1
 1240.74511719 180.200195312 l 2,34,35
 1263.76074219 180.002059709 1263.76074219 180.002059709 1263.76074219 94.2001953125 c 2,36,-1
 1263.76074219 83.1943359375 l 2,37,38
 1264 0 1264 0 1240.76074219 0 c 2,39,-1
 1211.77636719 0 l 2,40,41
 1018.84329489 -7.1054273576e-14 1018.84329489 -7.1054273576e-14 932.661132812 88.5947265625 c 2,42,-1
 931.405273438 89.8857421875 l 1,43,-1
 929.990234375 88.771484375 l 2,44,45
 817 0 817 0 613.048828125 0 c 2,0,-1
658.905273438 592.213867188 m 0,46,47
 456.70703125 591.999023438 456.70703125 591.999023438 272.640625 183.548828125 c 2,48,-1
 271.369140625 180.727539062 l 1,49,-1
 274.463867188 180.727539062 l 1,50,-1
 633.048828125 180.727539062 l 2,51,52
 782.747070312 181.000976562 782.747070312 181.000976562 840.103515625 230.697265625 c 0,53,54
 885.002929688 270.096679688 885.002929688 270.096679688 884.784179688 344.190429688 c 0,55,56
 885.000959082 389.210236816 885.000959082 389.210236816 878.309570312 419.396484375 c 0,57,58
 838.592773438 591.998046875 838.592773438 591.998046875 658.905273438 592.213867188 c 0,46,47
EndSplineSet
EndChar

StartChar: uniFECA
Encoding: 65226 65226 213
Width: 1237
VWidth: 2551
GlyphClass: 2
Flags: W
AnchorPoint: "Anchor-7" 310.84 -844 basechar 0
AnchorPoint: "Anchor-10" 678.282 1142.27 basechar 0
LayerCount: 2
Fore
SplineSet
102.109375 -185.682617188 m 0,0,1
 104.543945312 -25.0341796875 104.543945312 -25.0341796875 202.821289062 88.6142578125 c 128,-1,2
 301.09765625 202.262695312 301.09765625 202.262695312 495.649414062 269.108398438 c 2,3,-1
 499.3125 270.3671875 l 1,4,-1
 496.166015625 272.625 l 2,5,6
 235.022460938 460.009765625 235.022460938 460.009765625 237.474609375 571.032226562 c 0,7,8
 239.973632812 689.727539062 239.973632812 689.727539062 374.349609375 754.110351562 c 0,9,10
 462.453125 796.000976562 462.453125 796.000976562 675.139648438 796.323242188 c 0,11,12
 953.217773438 796.000976562 953.217773438 796.000976562 1046.85644531 709.649414062 c 0,13,14
 1084.50683594 675.311523438 1084.50683594 675.311523438 1103.35644531 640.154296875 c 128,-1,15
 1122.20507812 604.998046875 1122.20507812 604.998046875 1122.40527344 568.993164062 c 0,16,17
 1122.99609375 396.245117188 1122.99609375 396.245117188 812.119140625 243.795898438 c 2,18,-1
 808.90625 242.219726562 l 1,19,-1
 811.931640625 240.30859375 l 2,20,21
 907.420898438 180 907.420898438 180 1149.4453125 180 c 2,22,-1
 1241.9765625 180 l 2,23,24
 1264.9765625 180 1264.9765625 180 1264.9765625 97 c 2,25,-1
 1264.9765625 85.9990234375 l 2,26,27
 1264.98828125 42.6611328125 1264.98828125 42.6611328125 1258.92773438 21.330078125 c 128,-1,28
 1252.86816406 -0 1252.86816406 -0 1241.9765625 0 c 2,29,-1
 1138.21679688 0 l 2,30,31
 855.651367188 0 855.651367188 0 650.177734375 149.6171875 c 2,32,-1
 649.362304688 150.209960938 l 1,33,-1
 648.400390625 149.908203125 l 2,34,35
 278.029296875 33.4775390625 278.029296875 33.4775390625 273.6875 -179.736328125 c 0,36,37
 273.602539062 -184.048828125 273.602539062 -184.048828125 273.60546875 -188.30859375 c 0,38,39
 273.814453125 -519.588867188 273.814453125 -519.588867188 804.477539062 -519.172851562 c 2,40,-1
 1126.33007812 -518.920898438 l 1,41,-1
 1126.33007812 -695.469726562 l 1,42,-1
 792.451171875 -694.58203125 l 2,43,44
 401.80859375 -694.000976562 401.80859375 -694.000976562 242.442382812 -540.393554688 c 0,45,46
 99.01171875 -402.162109375 99.01171875 -402.162109375 102.109375 -185.682617188 c 0,0,1
938.822265625 539.260742188 m 0,47,48
 936.959960938 630.993164062 936.959960938 630.993164062 671.806640625 631.885742188 c 0,49,50
 435.999023438 632.000976562 435.999023438 632.000976562 436.055664062 546.248046875 c 0,51,52
 435.997070312 525.0390625 435.997070312 525.0390625 533.131835938 447.51171875 c 0,53,54
 572.071289062 416.165039062 572.071289062 416.165039062 598.985351562 394.892578125 c 128,-1,55
 625.899414062 373.620117188 625.899414062 373.620117188 641.946289062 361.534179688 c 128,-1,56
 657.994140625 349.447265625 657.994140625 349.447265625 662.795898438 346.875 c 2,57,-1
 663.640625 346.421875 l 1,58,-1
 664.522460938 346.796875 l 2,59,60
 794.942382812 402.227539062 794.942382812 402.227539062 849.083007812 437.319335938 c 0,61,62
 940.030273438 495.9296875 940.030273438 495.9296875 938.822265625 539.260742188 c 0,47,48
EndSplineSet
EndChar

StartChar: uniFECB
Encoding: 65227 65227 214
Width: 1002
VWidth: 2551
GlyphClass: 2
Flags: W
AnchorPoint: "Anchor-10" 506.602 1251.91 basechar 0
AnchorPoint: "Anchor-7" 441.228 -246.038 basechar 0
LayerCount: 2
Fore
SplineSet
-5.0234375 0 m 2,0,1
 -58.0234375 0 -58.0234375 0 -58.0234375 86 c 2,2,-1
 -58.0234375 96.9990234375 l 2,3,4
 -58.01171875 139.017578125 -58.01171875 139.017578125 -44.75 159.508789062 c 128,-1,5
 -31.4873046875 180 -31.4873046875 180 -5.0234375 180 c 2,6,-1
 278.684570312 180 l 1,7,-1
 284.045898438 180 l 1,8,-1
 279.994140625 183.51171875 l 2,9,10
 148.001953125 297.911132812 148.001953125 297.911132812 148.352539062 451.19921875 c 0,11,12
 148.997070312 622.182617188 148.997070312 622.182617188 258.375 734.223632812 c 0,13,14
 367.841796875 846.000976562 367.841796875 846.000976562 544.3046875 846.165039062 c 0,15,16
 739.027755101 846.001393136 739.027755101 846.001393136 860.602539062 696.782226562 c 5,17,-1
 788.185546875 564.159179688 l 1,18,19
 686.473632812 661.999023438 686.473632812 661.999023438 548.623046875 661.75 c 0,20,21
 429.001953125 662.001953125 429.001953125 662.001953125 362.6953125 573.635742188 c 0,22,23
 323.00390625 520.671875 323.00390625 520.671875 322.584960938 452.03125 c 0,24,25
 323.00390625 356.034179688 323.00390625 356.034179688 417.5546875 280.586914062 c 0,26,27
 502.282226562 212.0078125 502.282226562 212.0078125 554.458984375 211.395507812 c 0,28,29
 591.186523438 210.998046875 591.186523438 210.998046875 688.255859375 234.213867188 c 2,30,-1
 900 284.856445312 l 1,31,-1
 900 104.491210938 l 1,32,33
 549.1484375 0 549.1484375 0 284.7578125 0 c 2,34,-1
 -5.0234375 0 l 2,0,1
EndSplineSet
EndChar

StartChar: uniFECC
Encoding: 65228 65228 215
Width: 1154
VWidth: 2551
GlyphClass: 2
Flags: W
AnchorPoint: "Anchor-10" 555.677 1206.6 basechar 0
AnchorPoint: "Anchor-7" 522.382 -241.212 basechar 0
LayerCount: 2
Fore
SplineSet
1158.9765625 0 m 2,0,-1
 1058.58203125 0 l 2,1,2
 917.553710938 0 917.553710938 0 805.022460938 30.1259765625 c 128,-1,3
 692.491210938 60.251953125 692.491210938 60.251953125 608.41015625 120.454101562 c 2,4,-1
 607.16796875 121.34375 l 1,5,-1
 605.982421875 120.377929688 l 2,6,7
 458.288085938 0 458.288085938 0 35.9580078125 0 c 2,8,-1
 -5.0234375 0 l 2,9,10
 -58.0234375 0 -58.0234375 0 -58.0234375 86 c 2,11,-1
 -58.0234375 96.9990234375 l 2,12,13
 -58.01171875 139.017578125 -58.01171875 139.017578125 -44.75 159.508789062 c 128,-1,14
 -31.4873046875 180 -31.4873046875 180 -5.0234375 180 c 2,15,-1
 35.330078125 180 l 2,16,17
 367.477539062 180 367.477539062 180 456.942382812 225.33984375 c 2,18,-1
 460.361328125 227.072265625 l 1,19,-1
 456.984375 228.885742188 l 2,20,21
 151.02734375 393.181640625 151.02734375 393.181640625 154.473632812 547.028320312 c 0,22,23
 155.721679688 600.833984375 155.721679688 600.833984375 190.853515625 644.333984375 c 128,-1,24
 225.984375 687.834960938 225.984375 687.834960938 295.352539062 721.112304688 c 0,25,26
 389.454101562 766.000976562 389.454101562 766.000976562 592.138671875 766.323242188 c 0,27,28
 791.599609375 766.000976562 791.599609375 766.000976562 903.23828125 719.666015625 c 0,29,30
 967.794921875 693.090820312 967.794921875 693.090820312 1000.23730469 650.479492188 c 128,-1,31
 1032.68066406 607.8671875 1032.68066406 607.8671875 1033.34667969 548.978515625 c 0,32,33
 1034.98730469 398.116210938 1034.98730469 398.116210938 746.959960938 222.708007812 c 2,34,-1
 743.229492188 220.436523438 l 1,35,-1
 747.38671875 219.096679688 l 2,36,37
 868.685546875 180 868.685546875 180 1065.32910156 180 c 2,38,-1
 1158.9765625 180 l 2,39,40
 1181.9765625 180 1181.9765625 180 1181.9765625 97 c 2,41,-1
 1181.9765625 85.9990234375 l 2,42,43
 1181.98242188 64.0625 1181.98242188 64.0625 1180.37597656 47.53515625 c 128,-1,44
 1178.77050781 31.0087890625 1178.77050781 31.0087890625 1175.73730469 20.6396484375 c 128,-1,45
 1172.703125 10.271484375 1172.703125 10.271484375 1168.50878906 5.1357421875 c 128,-1,46
 1164.31445312 -0 1164.31445312 -0 1158.9765625 0 c 2,0,-1
842.822265625 514.276367188 m 0,47,48
 840.958007812 600.993164062 840.958007812 600.993164062 598.806640625 601.885742188 c 0,49,50
 476.40625 601.943359375 476.40625 601.943359375 414.716796875 579.764648438 c 128,-1,51
 353.02734375 557.586914062 353.02734375 557.586914062 353.055664062 512.24609375 c 0,52,53
 353.025390625 497.563476562 353.025390625 497.563476562 377.202148438 474.208007812 c 128,-1,54
 401.377929688 450.852539062 401.377929688 450.852539062 450.264648438 417.413085938 c 0,55,56
 585.048828125 326.228515625 585.048828125 326.228515625 607.978515625 316.788085938 c 2,57,-1
 608.6015625 316.532226562 l 1,58,59
 625.251953125 320.939453125 625.251953125 320.939453125 751.200195312 415.400390625 c 0,60,61
 844.041992188 485.03125 844.041992188 485.03125 842.822265625 514.276367188 c 0,47,48
EndSplineSet
EndChar

StartChar: uniFEDA
Encoding: 65242 65242 229
Width: 1969
VWidth: 2551
GlyphClass: 2
Flags: W
AnchorPoint: "Anchor-10" 927.382 1477.15 basechar 0
AnchorPoint: "Anchor-7" 849.692 -232.794 basechar 0
LayerCount: 2
Fore
SplineSet
703.264648438 739.659179688 m 2,0,1
 768.076171875 731.491210938 768.076171875 731.491210938 832.82421875 731.491210938 c 0,2,3
 854.479492188 731.491210938 854.479492188 731.491210938 875.1328125 733.905273438 c 128,-1,4
 895.786132812 736.319335938 895.786132812 736.319335938 915.446289062 741.151367188 c 128,-1,5
 935.10546875 745.983398438 935.10546875 745.983398438 953.752929688 753.23046875 c 0,6,7
 1039.05957031 786.38671875 1039.05957031 786.38671875 1039.05957031 839.939453125 c 0,8,9
 1039.05957031 867.02734375 1039.05957031 867.02734375 1015.71191406 884.123046875 c 128,-1,10
 992.365234375 901.21875 992.365234375 901.21875 946.48828125 908.477539062 c 0,11,12
 856.395507812 922.731445312 856.395507812 922.731445312 820.8125 969.272460938 c 0,13,14
 766.743164062 1039.98828125 766.743164062 1039.98828125 790.8984375 1115.90917969 c 0,15,16
 814.237304688 1189.26855469 814.237304688 1189.26855469 891.549804688 1230.94726562 c 128,-1,17
 968.861328125 1272.625 968.861328125 1272.625 1100.59375 1282.41601562 c 2,18,-1
 1127.71484375 1284.43066406 l 1,19,-1
 1127.71484375 1188.00195312 l 1,20,-1
 1104.51269531 1186.11425781 l 2,21,22
 996.02734375 1177.29003906 996.02734375 1177.29003906 941.309570312 1148.74511719 c 128,-1,23
 886.592773438 1120.20019531 886.592773438 1120.20019531 886.592773438 1071.37695312 c 0,24,25
 886.592773438 1021.31835938 886.592773438 1021.31835938 941.919921875 1003.51660156 c 0,26,27
 969.919921875 994.508789062 969.919921875 994.508789062 1021.48925781 986.923828125 c 0,28,29
 1034.20605469 985.053710938 1034.20605469 985.053710938 1045.80957031 981.638671875 c 128,-1,30
 1057.41308594 978.223632812 1057.41308594 978.223632812 1067.90917969 973.262695312 c 128,-1,31
 1078.40625 968.301757812 1078.40625 968.301757812 1087.79980469 961.801757812 c 128,-1,32
 1097.19433594 955.30078125 1097.19433594 955.30078125 1105.50585938 947.249023438 c 0,33,34
 1138.609375 915.182617188 1138.609375 915.182617188 1138.609375 858.932617188 c 0,35,36
 1138.609375 802.413085938 1138.609375 802.413085938 1115.6171875 765.883789062 c 0,37,38
 1003.62207031 587.952148438 1003.62207031 587.952148438 696.20703125 636.000976562 c 2,39,-1
 674.857421875 639.33984375 l 1,40,-1
 674.857421875 743.239257812 l 1,41,-1
 703.264648438 739.659179688 l 2,0,1
1671.265625 146.99609375 m 2,42,43
 1586.82209786 1.70530256582e-13 1586.82209786 1.70530256582e-13 1346.62988281 0 c 2,44,-1
 534.767578125 0 l 2,45,46
 102.229582745 6.86895873514e-10 102.229582745 6.86895873514e-10 102.227539062 441.629882812 c 2,47,-1
 102.2265625 652.66015625 l 1,48,-1
 276.984375 652.66015625 l 1,49,-1
 276.984375 442.541015625 l 2,50,51
 277 180 277 180 537.549804688 180 c 2,52,-1
 1351.84667969 180 l 2,53,54
 1579.41601562 179.981414803 1579.41601562 179.981414803 1579.41601562 448.396484375 c 2,55,-1
 1579.41601562 1333.18847656 l 5,56,-1
 1746.17382812 1333.18847656 l 5,57,-1
 1746.17382812 445.392578125 l 2,58,59
 1746.00004414 191.064603546 1746.00004414 191.064603546 1948.05371094 182.11328125 c 2,60,-1
 1974.66015625 180.934570312 l 2,61,62
 1986 180 1986 180 1991.66796875 159.4375 c 0,63,64
 1997.734375 139.857341147 1997.734375 139.857341147 1997.734375 95.93359375 c 2,65,-1
 1997.734375 84.927734375 l 2,66,67
 1998.00020528 -1.06640625 1998.00020528 -1.06640625 1974.734375 -1.06640625 c 2,68,-1
 1942.75585938 -1.06640625 l 2,69,70
 1764.09951048 -1.00003696728 1764.09951048 -1.00003696728 1674.71191406 147.034179688 c 2,71,-1
 1672.95703125 149.940429688 l 1,72,-1
 1671.265625 146.99609375 l 2,42,43
EndSplineSet
EndChar

StartChar: uniFEDB
Encoding: 65243 65243 230
Width: 918
VWidth: 2551
GlyphClass: 2
Flags: W
AnchorPoint: "Anchor-10" 316.18 1444.67 basechar 0
AnchorPoint: "Anchor-7" 349.179 -220.565 basechar 0
LayerCount: 2
Fore
SplineSet
-5.0224609375 -0 m 2,0,1
 -58.0234375 0.0156964765984 -58.0234375 0.0156964765984 -58.0234375 86 c 2,2,-1
 -58.0234375 96.9990234375 l 2,3,4
 -58 139 -58 139 -44.75 159.508789062 c 0,5,6
 -31 180 -31 180 -5.0234375 180 c 2,7,-1
 322.91796875 180 l 6,8,9
 572 180 572 180 572.708007812 313.7578125 c 4,10,11
 573.000400598 369.075789412 573.000400598 369.075789412 461.150390625 496.635742188 c 6,12,-1
 140.506835938 862.315429688 l 6,13,14
 93 916 93 916 93.6220703125 998.388671875 c 4,15,16
 95.0008402341 1118.07293661 95.0008402341 1118.07293661 209.901367188 1155.90722656 c 6,17,-1
 834.5 1361.57421875 l 5,18,-1
 834.5 1181.39648438 l 5,19,-1
 266.590820312 995.883789062 l 5,20,-1
 263.802734375 994.97265625 l 5,21,-1
 265.668945312 992.709960938 l 5,22,-1
 572.41796875 638.203125 l 6,23,24
 738 447 738 447 739.338867188 307.983398438 c 4,25,26
 742.001911579 -0.221234613815 742.001911579 -0.221234613815 321.427734375 -0.0966796875 c 6,27,-1
 -5.0224609375 -0 l 2,0,1
EndSplineSet
EndChar

StartChar: uniFEDC
Encoding: 65244 65244 231
Width: 1086
VWidth: 2551
GlyphClass: 2
Flags: W
AnchorPoint: "Anchor-7" 340 -262 basechar 0
AnchorPoint: "Anchor-10" 414.1 1446.44 basechar 0
LayerCount: 2
Fore
SplineSet
834.911132812 335.310546875 m 6,0,1
 967.717844516 181.936478509 967.717844516 181.936478509 1066.51367188 180 c 6,2,-1
 1091.02636719 179.51953125 l 6,3,4
 1114.06835938 178.998454105 1114.06835938 178.998454105 1114.06835938 96.51953125 c 6,5,-1
 1114.06835938 85.521484375 l 6,6,7
 1113.99961595 -0.48046875 1113.99961595 -0.48046875 1091.06835938 -0.48046875 c 6,8,-1
 1076.45507812 -0.48046875 l 6,9,10
 873.03124229 -7.37801404114e-05 873.03124229 -7.37801404114e-05 726.119140625 201.1796875 c 6,11,-1
 723.834960938 204.307617188 l 5,12,-1
 722.607421875 200.633789062 l 6,13,14
 655.93501551 -0.195745220703 655.93501551 -0.195745220703 321.427734375 -0.0966796875 c 6,15,-1
 -5.0234375 0 l 2,16,17
 -58.0234375 0 -58.0234375 0 -58.0234375 86 c 2,18,-1
 -58.0234375 96.9990234375 l 2,19,20
 -58 139 -58 139 -44.75 159.508789062 c 0,21,22
 -31 180 -31 180 -5.0234375 180 c 2,23,-1
 322.91796875 180 l 6,24,25
 572 180 572 180 572.708007812 313.7578125 c 4,26,27
 573.000400598 369.075789412 573.000400598 369.075789412 461.150390625 496.635742188 c 6,28,-1
 140.506835938 862.315429688 l 6,29,30
 93 916 93 916 93.6220703125 998.388671875 c 4,31,32
 95.0008402341 1118.07293661 95.0008402341 1118.07293661 209.901367188 1155.90722656 c 6,33,-1
 834.5 1361.57421875 l 5,34,-1
 834.5 1181.39648438 l 5,35,-1
 266.590820312 995.883789062 l 5,36,-1
 263.70703125 994.94140625 l 5,37,-1
 265.709960938 992.662109375 l 5,38,-1
 834.911132812 335.310546875 l 6,0,1
EndSplineSet
EndChar

StartChar: uniFEDE
Encoding: 65246 65246 233
Width: 1437
VWidth: 2551
GlyphClass: 2
Flags: W
AnchorPoint: "Anchor-7" 691 -667.5 basechar 0
AnchorPoint: "Anchor-10" 604.754 1189.62 basechar 0
LayerCount: 2
Fore
SplineSet
1029.36523438 86.4189453125 m 2,0,-1
 1028.37890625 1332.63671875 l 5,1,-1
 1193.29882812 1332.63671875 l 5,2,-1
 1193.29882812 431.767578125 l 2,3,4
 1193 180 1193 180 1414.24902344 180 c 2,5,-1
 1441.9765625 180 l 2,6,7
 1464.9765625 180 1464.9765625 180 1464.9765625 97 c 2,8,-1
 1464.9765625 85.9990234375 l 2,9,10
 1465 64 1465 64 1463.37597656 47.53515625 c 0,11,12
 1462 31 1462 31 1458.73730469 20.6396484375 c 0,13,14
 1456 10 1456 10 1451.50878906 5.1357421875 c 0,15,16
 1447 0 1447 0 1441.9765625 0 c 2,17,-1
 1420.84960938 0 l 2,18,19
 1258.0073003 7.1054273576e-14 1258.0073003 7.1054273576e-14 1196.27636719 80.849609375 c 2,20,-1
 1192.77636719 85.43359375 l 1,21,-1
 1192.68652344 79.6669921875 l 1,22,-1
 1192.25488281 52.017578125 l 2,23,24
 1184.00281089 -446.830078125 1184.00281089 -446.830078125 690.430664062 -446.830078125 c 2,25,-1
 644.185546875 -446.830078125 l 2,26,27
 103.314381516 -446.99990129 103.314381516 -446.99990129 103.12109375 101.27734375 c 2,28,-1
 103.000976562 442 l 1,29,-1
 277.877929688 442.033203125 l 1,30,-1
 277.877929688 102.448242188 l 2,31,32
 277.999839255 -265.514820292 277.999839255 -265.514820292 644.356445312 -265.528320312 c 2,33,-1
 697.359375 -265.530273438 l 2,34,35
 1030 -266 1030 -266 1029.36523438 86.4189453125 c 2,0,-1
EndSplineSet
EndChar

StartChar: uniFEDF
Encoding: 65247 65247 234
Width: 600
VWidth: 2551
GlyphClass: 2
Flags: W
AnchorPoint: "Anchor-10" 361.682 1481.64 basechar 0
AnchorPoint: "Anchor-7" 181.01 -244.415 basechar 0
LayerCount: 2
Fore
SplineSet
-5.0234375 0 m 2,0,1
 -58.0234375 0 -58.0234375 0 -58.0234375 86 c 2,2,-1
 -58.0234375 96.9990234375 l 2,3,4
 -58 139 -58 139 -44.75 159.508789062 c 0,5,6
 -31 180 -31 180 -5.0234375 180 c 2,7,-1
 96.9697265625 180 l 2,8,9
 290.95703125 180 290.95703125 180 290.95703125 370.866210938 c 2,10,-1
 290.95703125 1334.15820312 l 5,11,-1
 457.71484375 1334.15820312 l 5,12,-1
 457.71484375 366.9375 l 2,13,14
 458 0 458 0 96.173828125 0 c 2,15,-1
 -5.0234375 0 l 2,0,1
EndSplineSet
EndChar

StartChar: uniFEE0
Encoding: 65248 65248 235
Width: 699
VWidth: 2551
GlyphClass: 2
Flags: W
AnchorPoint: "Anchor-10" 357.225 1501.2 basechar 0
AnchorPoint: "Anchor-7" 243.065 -240.554 basechar 0
LayerCount: 2
Fore
SplineSet
704.518554688 0 m 2,0,-1
 659.068359375 0 l 2,1,2
 484.258270816 0 484.258270816 0 372.74609375 128.767578125 c 2,3,-1
 371.149414062 130.611328125 l 1,4,-1
 369.654296875 128.684570312 l 2,5,6
 270 0 270 0 89.7177734375 0 c 2,7,-1
 -5.0234375 0 l 2,8,9
 -58.0234375 0 -58.0234375 0 -58.0234375 86 c 2,10,-1
 -58.0234375 96.9990234375 l 2,11,12
 -58 139 -58 139 -44.75 159.508789062 c 0,13,14
 -31 180 -31 180 -5.0234375 180 c 2,15,-1
 87.873046875 180 l 2,16,17
 290.931640625 180 290.931640625 180 290.931640625 367.43359375 c 2,18,-1
 290.931640625 1333.72753906 l 5,19,-1
 457.02734375 1333.72753906 l 5,20,-1
 457.02734375 366.258789062 l 2,21,22
 457 180 457 180 668.973632812 180 c 2,23,-1
 704.518554688 180 l 2,24,25
 727.518554688 180 727.518554688 180 727.518554688 97 c 2,26,-1
 727.518554688 85.9892578125 l 2,27,28
 728 0 728 0 704.518554688 0 c 2,0,-1
EndSplineSet
EndChar

StartChar: uniFEE2
Encoding: 65250 65250 237
Width: 1390
VWidth: 2551
GlyphClass: 2
Flags: W
AnchorPoint: "Anchor-7" 722.389 -325.648 basechar 0
AnchorPoint: "Anchor-10" 675.565 1148.03 basechar 0
LayerCount: 2
Fore
SplineSet
842.840820312 569.490234375 m 2,0,-1
 685.830078125 569.490234375 l 1,1,-1
 683.830078125 569.490234375 l 1,2,-1
 683.830078125 567.490234375 l 1,3,-1
 683.830078125 368.114257812 l 2,4,5
 684.001953125 139.000976562 684.001953125 139.000976562 868.741210938 138.890625 c 0,6,7
 1035.09082031 139.000976562 1035.09082031 139.000976562 1035.08984375 368 c 2,8,-1
 1035.08984375 409.823242188 l 2,9,10
 1034.99902344 568.995117188 1034.99902344 568.995117188 842.840820312 569.490234375 c 2,0,-1
1131.67480469 86.2392578125 m 2,11,12
 1047.03320312 -20.9970703125 1047.03320312 -20.9970703125 868.743164062 -20.4755859375 c 0,13,14
 510.889648438 -20.0029296875 510.889648438 -20.0029296875 510.889648438 366.30859375 c 2,15,-1
 510.889648438 551.943359375 l 1,16,-1
 510.889648438 554.149414062 l 1,17,-1
 508.694335938 553.93359375 l 2,18,19
 273.010742188 530.814453125 273.010742188 530.814453125 273.010742188 159.032226562 c 2,20,-1
 273.010742188 -496.416992188 l 1,21,-1
 102.94921875 -496.416992188 l 1,22,-1
 102.94921875 151.587890625 l 1,23,-1
 102.954101562 157.592773438 l 2,24,25
 102.00390625 740.500976562 102.00390625 740.500976562 583.255859375 740.525390625 c 2,26,-1
 858.193359375 740.5390625 l 2,27,28
 1207.76953125 740.997070312 1207.76953125 740.997070312 1207.76953125 411 c 2,29,-1
 1207.76953125 367.014648438 l 2,30,31
 1206.99121094 180 1206.99121094 180 1356.3671875 180 c 2,32,-1
 1394.9765625 180 l 2,33,34
 1417.9765625 180 1417.9765625 180 1417.9765625 97 c 2,35,-1
 1417.9765625 85.9990234375 l 2,36,37
 1417.98242188 64.0625 1417.98242188 64.0625 1416.37597656 47.53515625 c 128,-1,38
 1414.77050781 31.0087890625 1414.77050781 31.0087890625 1411.73730469 20.6396484375 c 128,-1,39
 1408.703125 10.271484375 1408.703125 10.271484375 1404.50878906 5.1357421875 c 128,-1,40
 1400.31445312 -0 1400.31445312 -0 1394.9765625 0 c 2,41,-1
 1360.15429688 0 l 2,42,43
 1211.89453125 0 1211.89453125 0 1134.73632812 86.3330078125 c 2,44,-1
 1133.15039062 88.107421875 l 1,45,-1
 1131.67480469 86.2392578125 l 2,11,12
EndSplineSet
EndChar

StartChar: uniFEE3
Encoding: 65251 65251 238
Width: 990
VWidth: 2551
GlyphClass: 2
Flags: W
AnchorPoint: "Anchor-10" 536.346 1086.25 basechar 0
AnchorPoint: "Anchor-7" 498.389 -245.648 basechar 0
LayerCount: 2
Fore
SplineSet
-5.0234375 0 m 2,0,1
 -58.0234375 0 -58.0234375 0 -58.0234375 86 c 2,2,-1
 -58.0234375 96.9990234375 l 2,3,4
 -58.01171875 139.017578125 -58.01171875 139.017578125 -44.75 159.508789062 c 128,-1,5
 -31.4873046875 180 -31.4873046875 180 -5.0234375 180 c 2,6,-1
 64.806640625 180 l 2,7,8
 202.997070312 180 202.997070312 180 203.111328125 260.426757812 c 0,9,10
 203 477.60546875 203 477.60546875 240.08203125 567.796875 c 0,11,12
 319.340820312 761 319.340820312 761 548.309570312 761.006835938 c 0,13,14
 887.997070312 761 887.997070312 761 887.5 363.002929688 c 0,15,16
 887.002929688 -14.9912109375 887.002929688 -14.9912109375 553.375 -13.58984375 c 0,17,18
 379.822265625 -13.0029296875 379.822265625 -13.0029296875 284.030273438 81.298828125 c 2,19,-1
 282.348632812 82.9541015625 l 1,20,-1
 280.991210938 81.025390625 l 2,21,22
 223.961914062 0 223.961914062 0 67.23046875 0 c 2,23,-1
 -5.0234375 0 l 2,0,1
551.029296875 583.109375 m 0,24,25
 383.032226562 582.999023438 383.032226562 582.999023438 379.678710938 377.721679688 c 0,26,27
 375.965820312 161.013671875 375.965820312 161.013671875 552.577148438 159.83984375 c 0,28,29
 714.002929688 158.989257812 714.002929688 158.989257812 713.700195312 376.73046875 c 0,30,31
 714.002929688 582.999023438 714.002929688 582.999023438 551.029296875 583.109375 c 0,24,25
EndSplineSet
EndChar

StartChar: uniFEE4
Encoding: 65252 65252 239
Width: 1048
VWidth: 2551
GlyphClass: 2
Flags: W
AnchorPoint: "Anchor-7" 498.389 -245.648 basechar 0
AnchorPoint: "Anchor-10" 536.346 1086.25 basechar 0
LayerCount: 2
Fore
SplineSet
1053.24023438 0 m 2,0,-1
 1024.50195312 0 l 2,1,2
 864.143554688 0 864.143554688 0 815.723632812 82.310546875 c 2,3,-1
 814.14453125 84.9951171875 l 1,4,-1
 812.360351562 82.4423828125 l 2,5,6
 744.958984375 -13.998046875 744.958984375 -13.998046875 553.374023438 -13.58984375 c 0,7,8
 350.043945312 -13.0029296875 350.043945312 -13.0029296875 284.265625 81.0205078125 c 2,9,-1
 282.631835938 83.35546875 l 1,10,-1
 280.991210938 81.025390625 l 2,11,12
 223.961914062 0 223.961914062 0 57.23046875 0 c 2,13,-1
 -5.0234375 0 l 2,14,15
 -58.0234375 0 -58.0234375 0 -58.0234375 86 c 2,16,-1
 -58.0234375 96.9990234375 l 2,17,18
 -58.01171875 139.017578125 -58.01171875 139.017578125 -44.75 159.508789062 c 128,-1,19
 -31.4873046875 180 -31.4873046875 180 -5.0234375 180 c 2,20,-1
 54.806640625 180 l 2,21,22
 202.997070312 180 202.997070312 180 203.111328125 260.426757812 c 0,23,24
 203 478.6015625 203 478.6015625 240.08203125 567.796875 c 0,25,26
 319.340820312 761 319.340820312 761 548.309570312 761.006835938 c 0,27,28
 792.517578125 761 792.517578125 761 854.057617188 558.426757812 c 0,29,30
 877.006835938 481.68359375 877.006835938 481.68359375 882.184570312 266.40625 c 0,31,32
 884.04296875 180 884.04296875 180 1018.97363281 180 c 2,33,-1
 1053.24023438 180 l 2,34,35
 1076.24023438 180 1076.24023438 180 1076.24023438 97 c 2,36,-1
 1076.24023438 86.005859375 l 2,37,38
 1076.00585938 0 1076.00585938 0 1053.24023438 0 c 2,0,-1
552.029296875 583.109375 m 0,39,40
 378.993164062 582.999023438 378.993164062 582.999023438 379.678710938 368.684570312 c 0,41,42
 379.83984375 265.239257812 379.83984375 265.239257812 423.900390625 212.833007812 c 128,-1,43
 467.9609375 160.42578125 467.9609375 160.42578125 555.577148438 159.83984375 c 0,44,45
 715.002929688 158.989257812 715.002929688 158.989257812 714.700195312 372.73046875 c 0,46,47
 715.002929688 582.999023438 715.002929688 582.999023438 552.029296875 583.109375 c 0,39,40
EndSplineSet
EndChar

StartChar: uniFEEA
Encoding: 65258 65258 245
Width: 1084
VWidth: 2551
GlyphClass: 2
Flags: W
AnchorPoint: "Anchor-10" 667.183 1183.91 basechar 0
AnchorPoint: "Anchor-7" 449.281 -261.565 basechar 0
LayerCount: 2
Fore
SplineSet
1089 0 m 2,0,-1
 1043 0 l 2,1,2
 796 0 796 0 732 187 c 1,3,4
 627 168 627 168 501 168 c 0,5,6
 94 167 94 167 94 437 c 0,7,8
 94 753 94 753 597 831 c 1,9,-1
 584 896 l 1,10,-1
 753 928 l 1,11,-1
 851 368 l 6,12,13
 884 180 884 180 1054 180 c 2,14,-1
 1089 180 l 2,15,16
 1114 180 1114 180 1114 99 c 2,17,-1
 1114 88 l 2,18,19
 1114 0 1114 0 1089 0 c 2,0,-1
688 360 m 1,20,-1
 633 656 l 1,21,22
 261 609 261 609 261 450 c 0,23,24
 261 342 261 342 488 343 c 0,25,26
 595 343 595 343 688 360 c 1,20,-1
EndSplineSet
EndChar

StartChar: uniFEEB
Encoding: 65259 65259 246
Width: 1301
VWidth: 2551
GlyphClass: 2
Flags: W
AnchorPoint: "Anchor-10" 592.837 1440.83 basechar 0
AnchorPoint: "Anchor-7" 538.543 -281.197 basechar 0
LayerCount: 2
Fore
SplineSet
-5.0234375 0 m 2,0,1
 -58.0234375 0 -58.0234375 0 -58.0234375 86 c 2,2,-1
 -58.0234375 96.9990234375 l 2,3,4
 -58.01171875 139.017578125 -58.01171875 139.017578125 -44.75 159.508789062 c 128,-1,5
 -31.4873046875 180 -31.4873046875 180 -5.0234375 180 c 2,6,-1
 263.69140625 180 l 1,7,-1
 270.544921875 180 l 1,8,-1
 264.767578125 183.686523438 l 2,9,10
 145.001953125 260.094726562 145.001953125 260.094726562 145.353515625 421.331054688 c 0,11,12
 145.001953125 543.4140625 145.001953125 543.4140625 206.8125 639.2578125 c 0,13,14
 311.086914062 800.000976562 311.086914062 800.000976562 485.568359375 800.140625 c 0,15,16
 577.463867188 800.000976562 577.463867188 800.000976562 643.001953125 762.266601562 c 2,17,-1
 644.600585938 761.346679688 l 1,18,-1
 645.646484375 762.865234375 l 1,19,-1
 733.26953125 889.98828125 l 1,20,21
 1194.99707031 518.424804688 1194.99707031 518.424804688 1194.48828125 259.899414062 c 0,22,23
 1194.24316406 170.934570312 1194.24316406 170.934570312 1162.34375 104.177734375 c 128,-1,24
 1130.4453125 37.421875 1130.4453125 37.421875 1066.85351562 -7.361328125 c 0,25,26
 997.3671875 -56.001953125 997.3671875 -56.001953125 906.282226562 -56.2421875 c 0,27,28
 676.492889943 -56.0000058865 676.492889943 -56.0000058865 461.024414062 57.099609375 c 6,29,-1
 460.302734375 57.478515625 l 1,30,31
 267.708007812 0 267.708007812 0 70.302734375 0 c 2,32,-1
 -5.0234375 0 l 2,0,1
478.346679688 241.24609375 m 2,33,34
 643.99609375 360.974609375 643.99609375 360.974609375 644.576171875 508.643554688 c 0,35,36
 645.006835938 587.235351562 645.006835938 587.235351562 576.603515625 621.265625 c 0,37,38
 546.472367762 635.995236437 546.472367762 635.995236437 513.098632812 636.301757812 c 0,39,40
 474.588867188 635.997070312 474.588867188 635.997070312 445.059570312 623.57421875 c 0,41,42
 365.39207824 588.478820096 365.39207824 588.478820096 332.55859375 492.232421875 c 0,43,44
 318.99609375 452.319335938 318.99609375 452.319335938 319.375 417.8984375 c 0,45,46
 318.995117188 359.25390625 318.995117188 359.25390625 351.01171875 322.663085938 c 0,47,48
 392.817235183 277.333023704 392.817235183 277.333023704 476.377929688 241.033203125 c 2,49,-1
 477.422851562 240.579101562 l 1,50,-1
 478.346679688 241.24609375 l 2,33,34
632.888671875 172.521484375 m 2,51,52
 773.602539062 113.999023438 773.602539062 113.999023438 881.095703125 114.20703125 c 0,53,54
 930.739257812 113.997070312 930.739257812 113.997070312 960.315429688 139.493164062 c 0,55,56
 1024.00292969 195.09375 1024.00292969 195.09375 1023.7890625 258.927734375 c 0,57,58
 1024.00097656 384.858398438 1024.00097656 384.858398438 773.375976562 622.451171875 c 2,59,-1
 764.95703125 630.432617188 l 1,60,-1
 770.217773438 620.092773438 l 2,61,62
 798.999023438 563.521484375 798.999023438 563.521484375 798.8515625 458.909179688 c 0,63,64
 798.999023438 280.107421875 798.999023438 280.107421875 632.595703125 176.064453125 c 2,65,-1
 629.310546875 174.009765625 l 1,66,-1
 632.888671875 172.521484375 l 2,51,52
EndSplineSet
EndChar

StartChar: uniFEEC
Encoding: 65260 65260 247
Width: 941
VWidth: 2551
GlyphClass: 2
Flags: W
AnchorPoint: "Anchor-7" 138.183 -654.715 basechar 0
AnchorPoint: "Anchor-10" 395.514 1174.02 basechar 0
LayerCount: 2
Fore
SplineSet
946.715820312 0 m 2,0,-1
 750.204101562 0 l 1,1,-1
 746.237304688 0 l 1,2,-1
 748.596679688 -3.189453125 l 2,3,4
 782.807617188 -49.4375 782.807617188 -49.4375 799.97265625 -102.096679688 c 128,-1,5
 817.137695312 -154.755859375 817.137695312 -154.755859375 817.274414062 -213.893554688 c 0,6,7
 817.001953125 -335.303710938 817.001953125 -335.303710938 766.928710938 -398.771484375 c 0,8,9
 736.494140625 -437.861328125 736.494140625 -437.861328125 688.309570312 -457.54296875 c 128,-1,10
 640.125 -477.223632812 640.125 -477.223632812 574.004882812 -477.444335938 c 0,11,12
 390.0859375 -477.002929688 390.0859375 -477.002929688 289.081054688 -321.905273438 c 0,13,14
 208.94140625 -199.314453125 208.94140625 -199.314453125 189.200195312 -1.80078125 c 2,15,-1
 189.020507812 0 l 1,16,-1
 187.209960938 0 l 1,17,-1
 -5.0234375 0 l 2,18,19
 -58.0234375 0 -58.0234375 0 -58.0234375 86 c 2,20,-1
 -58.0234375 96.9990234375 l 2,21,22
 -58.01171875 139.017578125 -58.01171875 139.017578125 -44.75 159.508789062 c 128,-1,23
 -31.4873046875 180 -31.4873046875 180 -5.0234375 180 c 2,24,-1
 187.209960938 180 l 1,25,-1
 189.059570312 180 l 1,26,-1
 189.204101562 181.84375 l 2,27,28
 213.952148438 498.313476562 213.952148438 498.313476562 316.625 648.870117188 c 0,29,30
 407.057617188 781.00390625 407.057617188 781.00390625 543.791015625 781.532226562 c 0,31,32
 599.470703125 781.764648438 599.470703125 781.764648438 647.997070312 758.333007812 c 128,-1,33
 696.524414062 734.901367188 696.524414062 734.901367188 738.072265625 687.666015625 c 0,34,35
 818.999023438 597.236328125 818.999023438 597.236328125 818.818359375 433.12109375 c 0,36,37
 818.999023438 279.639648438 818.999023438 279.639648438 750.061523438 183.163085938 c 2,38,-1
 747.80078125 180 l 1,39,-1
 751.688476562 180 l 1,40,-1
 946.715820312 180 l 2,41,42
 969.715820312 180 969.715820312 180 969.715820312 97 c 2,43,-1
 969.715820312 85.9931640625 l 2,44,45
 969.85546875 42.6455078125 969.85546875 42.6455078125 963.797851562 21.3232421875 c 128,-1,46
 957.739257812 0 957.739257812 0 946.715820312 0 c 2,0,-1
347.490234375 -1.1826171875 m 2,47,48
 354.42578125 -69.4169921875 354.42578125 -69.4169921875 368.765625 -122.353515625 c 128,-1,49
 383.104492188 -175.2890625 383.104492188 -175.2890625 404.915039062 -213.006835938 c 0,50,51
 460.8515625 -309.000976562 460.8515625 -309.000976562 559.704101562 -308.889648438 c 0,52,53
 663 -309.001953125 663 -309.001953125 663.010742188 -194.9296875 c 0,54,55
 663.004882812 -97.19921875 663.004882812 -97.19921875 610.08203125 -48.08984375 c 128,-1,56
 557.158203125 1.01953125 557.158203125 1.01953125 452 1.01953125 c 2,57,-1
 349.48046875 1.01953125 l 1,58,-1
 347.266601562 1.01953125 l 1,59,-1
 347.490234375 -1.1826171875 l 2,47,48
662.015625 406.970703125 m 0,60,61
 662.015625 467.79296875 662.015625 467.79296875 648.534179688 511.4296875 c 128,-1,62
 635.052734375 555.067382812 635.052734375 555.067382812 607.962890625 581.427734375 c 0,63,64
 577.8203125 610.99609375 577.8203125 610.99609375 536.426757812 611.168945312 c 0,65,66
 505.853515625 611.052734375 505.853515625 611.052734375 479.083007812 587.88671875 c 128,-1,67
 452.311523438 564.720703125 452.311523438 564.720703125 429.28125 518.8984375 c 0,68,69
 371.34375 403.626953125 371.34375 403.626953125 347.4921875 182.298828125 c 2,70,-1
 347.250976562 180.065429688 l 1,71,-1
 349.497070312 180.084960938 l 1,72,-1
 467.525390625 181.092773438 l 2,73,74
 662.015625 183.01953125 662.015625 183.01953125 662.015625 406.970703125 c 0,60,61
EndSplineSet
EndChar

StartChar: uniFEEE
Encoding: 65262 65262 249
Width: 933
VWidth: 2551
GlyphClass: 2
Flags: W
AnchorPoint: "Anchor-7" 367.433 -669.366 basechar 0
AnchorPoint: "Anchor-10" 438.019 1059.88 basechar 0
LayerCount: 2
Fore
SplineSet
782.66015625 354.944335938 m 2,0,-1
 783.094726562 181.995117188 l 1,1,-1
 783.099609375 180 l 1,2,-1
 785.094726562 180 l 1,3,-1
 938.352539062 180 l 2,4,5
 961.352539062 180 961.352539062 180 961.352539062 97 c 2,6,-1
 961.352539062 86.0078125 l 2,7,8
 961 43 961 43 955.116210938 21.341796875 c 0,9,10
 949 0 949 0 938.352539062 0 c 2,11,-1
 785.920898438 0 l 1,12,-1
 783.956054688 0 l 1,13,-1
 783.920898438 -1.96484375 l 2,14,15
 776.003602594 -460.791220984 776.003602594 -460.791220984 214.754882812 -460.412109375 c 6,16,-1
 141.022460938 -460.362304688 l 5,17,-1
 140.921875 -281.197265625 l 5,18,-1
 208.879882812 -281.265625 l 6,19,20
 611.944327184 -281.999898579 611.944327184 -281.999898579 612.8984375 -1.900390625 c 2,21,-1
 612.905273438 0.1064453125 l 1,22,-1
 610.8984375 0.1064453125 l 1,23,-1
 451.038085938 0.1064453125 l 2,24,25
 102 0 102 0 103.076171875 341.71875 c 0,26,27
 104 526 104 526 190.793945312 623.671875 c 0,28,29
 280 724 280 724 449.576171875 724.58984375 c 0,30,31
 599 725 599 725 687.807617188 638.564453125 c 0,32,33
 735 593 735 593 758.594726562 522.026367188 c 128,-1,34
 782 451 782 451 782.66015625 354.944335938 c 2,0,-1
269.859375 343.225585938 m 0,35,36
 270.001953125 180 270.001953125 180 450 180 c 2,37,-1
 611.709960938 180 l 1,38,-1
 613.715820312 180 l 1,39,-1
 613.709960938 182.005859375 l 1,40,-1
 613.258789062 349.002929688 l 2,41,42
 612.997070312 554.0078125 612.997070312 554.0078125 445.608398438 553.374023438 c 0,43,44
 357.97265625 553.185546875 357.97265625 553.185546875 313.951171875 500.447265625 c 128,-1,45
 269.9296875 447.708984375 269.9296875 447.708984375 269.859375 343.225585938 c 0,35,36
EndSplineSet
EndChar

StartChar: uniFEF0
Encoding: 65264 65264 251
Width: 1433
VWidth: 2551
GlyphClass: 2
Flags: W
AnchorPoint: "Anchor-7" 641 -667.5 basechar 0
AnchorPoint: "Anchor-10" 646.973 751.354 basechar 0
LayerCount: 2
Fore
SplineSet
1437.9765625 0 m 2,0,-1
 1335.71484375 0 l 1,1,-1
 1333.74023438 0 l 1,2,-1
 1333.71484375 -1.9736328125 l 1,3,-1
 1332.71484375 -78.837890625 l 2,4,5
 1328.02539062 -451 1328.02539062 -451 780.879882812 -451 c 2,6,-1
 692.252929688 -451 l 2,7,8
 102.635380536 -451 102.635380536 -451 102.243164062 98.6708984375 c 6,9,-1
 102.000976562 439.989257812 l 1,10,-1
 277.000976562 439.010742188 l 1,11,-1
 277.000976562 99.841796875 l 2,12,13
 277 -270.884765625 277 -270.884765625 689.427734375 -270.880859375 c 2,14,-1
 784.69140625 -270.879882812 l 2,15,16
 909.744140625 -270.919921875 909.744140625 -270.919921875 993.345703125 -249.025390625 c 128,-1,17
 1076.94726562 -227.129882812 1076.94726562 -227.129882812 1119.12597656 -182.947265625 c 128,-1,18
 1161.30566406 -138.763671875 1161.30566406 -138.763671875 1161.30566406 -72.384765625 c 2,19,-1
 1161.30566406 -2.1826171875 l 1,20,-1
 1161.30566406 -0.181640625 l 1,21,-1
 1159.3046875 -0.1826171875 l 1,22,-1
 907.579101562 -0.2578125 l 2,23,24
 857.540039062 -0.0078125 857.540039062 -0.0078125 834.04296875 88.3603515625 c 0,25,26
 811.575869994 172.114899515 811.575869994 172.114899515 838.9921875 180 c 1,27,-1
 1437.9765625 180 l 2,28,29
 1460.9765625 180 1460.9765625 180 1460.9765625 97 c 2,30,-1
 1460.9765625 85.9990234375 l 2,31,32
 1460.98242188 64.0625 1460.98242188 64.0625 1459.37597656 47.53515625 c 128,-1,33
 1457.77050781 31.0087890625 1457.77050781 31.0087890625 1454.73730469 20.6396484375 c 128,-1,34
 1451.703125 10.271484375 1451.703125 10.271484375 1447.50878906 5.1357421875 c 128,-1,35
 1443.31445312 -0 1443.31445312 -0 1437.9765625 0 c 2,0,-1
EndSplineSet
EndChar

StartChar: uniFEFB
Encoding: 65275 65275 262
Width: 1133
VWidth: 2551
GlyphClass: 3
Flags: W
AnchorPoint: "Anchor-9" 906.69 1525 baselig 0
AnchorPoint: "Anchor-6" 847.69 -208.5 baselig 0
AnchorPoint: "Anchor-9" 247.5 1464.9 baselig 1
AnchorPoint: "Anchor-6" 243.087 -214.797 baselig 1
LayerCount: 2
Fore
SplineSet
158.5859375 1284.69726562 m 5,0,-1
 324.681640625 1284.69726562 l 5,1,-1
 324.681640625 280.924804688 l 1,2,-1
 158.5859375 280.924804688 l 1,3,-1
 158.5859375 1284.69726562 l 5,0,-1
1001.70898438 391.971679688 m 2,4,5
 1001.70898438 -0.0918847826806 1001.70898438 -0.0918847826806 620.16796875 -0.0966796875 c 2,6,-1
 157.650390625 -0.0966796875 l 1,7,-1
 157.650390625 180.200195312 l 1,8,-1
 627.3828125 180.200195312 l 2,9,10
 834.951171875 180.000047083 834.951171875 180.000047083 834.951171875 409.596679688 c 2,11,-1
 834.951171875 1334.15820312 l 5,12,-1
 1001.70898438 1334.15820312 l 5,13,-1
 1001.70898438 391.971679688 l 2,4,5
EndSplineSet
LCarets2: 1 0
Ligature2: "'rlig' Required Ligatures in Arabic lookup 16 subtable" uniFEDF uniFE8E
EndChar

StartChar: arabic_dot
Encoding: 65536 -1 263
Width: 204
VWidth: 2629
GlyphClass: 2
Flags: W
LayerCount: 2
Fore
SplineSet
-24.8725481589 121.518751303 m 2,0,-1
 66.364936307 212.757225679 l 2,1,2
 101.106986096 247.286266466 101.106986096 247.286266466 129.992029363 218.401223201 c 2,3,-1
 227.58693447 120.805357278 l 2,4,5
 259.286635806 88.8933832435 259.286635806 88.8933832435 224.743997131 54.3507445685 c 2,6,-1
 133.512289843 -36.8800012553 l 2,7,8
 100.893285207 -69.2865377697 100.893285207 -69.2865377697 69.1798456374 -37.5730982002 c 2,9,-1
 -28.4156020996 60.023307311 l 2,10,11
 -57.1812713297 88.9994411482 -57.1812713297 88.9994411482 -24.8725481589 121.518751303 c 2,0,-1
EndSplineSet
EndChar

StartChar: arabic_2dots
Encoding: 65537 -1 264
Width: 527
VWidth: 2629
GlyphClass: 2
Flags: W
LayerCount: 2
Fore
SplineSet
314.262329652 119.410988575 m 2,0,-1
 405.47972358 210.629392323 l 2,1,2
 438.100473053 243.050138822 438.100473053 243.050138822 464.870698577 216.279913299 c 2,3,-1
 562.458547113 118.69112757 l 2,4,5
 592.051062172 88.9004502964 592.051062172 88.9004502964 559.622687965 56.4720760901 c 2,6,-1
 468.397912108 -34.7517609508 l 2,7,8
 437.881891954 -65.0690110459 437.881891954 -65.0690110459 408.30117639 -35.4517882657 c 2,9,-1
 310.70335425 62.146982302 l 1,10,11
 285.722205123 89.8516728867 285.722205123 89.8516728867 314.262329652 119.410988575 c 2,0,-1
-32.7477765312 119.400882282 m 2,12,-1
 58.4797381315 210.629406786 l 2,13,14
 91.100473953 243.05040578 91.100473953 243.05040578 117.870698577 216.2799133 c 2,15,-1
 215.458559717 118.691114882 l 2,16,17
 245.051341347 88.9003823657 245.051341347 88.9003823657 212.622687966 56.4720760905 c 2,18,-1
 121.397898878 -34.751774095 l 2,19,20
 90.900170028 -65.0510780625 90.900170028 -65.0510780625 61.3011763899 -35.4517882657 c 2,21,-1
 -36.2865638427 62.1368815587 l 2,22,23
 -62.9531783243 88.9986028705 -62.9531783243 88.9986028705 -32.7477765312 119.400882282 c 2,12,-1
EndSplineSet
EndChar

StartChar: arabic_3dots
Encoding: 65538 -1 265
Width: 527
VWidth: 2629
GlyphClass: 2
Flags: W
LayerCount: 2
Fore
SplineSet
316.376995331 117.283013497 m 2,0,-1
 407.594510853 208.501558967 l 2,1,2
 438.475889489 239.193598987 438.475889489 239.193598987 462.738446507 214.169524786 c 2,3,-1
 560.330159756 116.576897862 l 2,4,5
 587.815488538 88.9075173491 587.815488538 88.9075173491 557.5013788 58.5934076117 c 2,6,-1
 466.283534373 -32.6235206462 l 2,7,8
 437.830687105 -60.8910365994 437.830687105 -60.8910365994 410.422507142 -33.330478331 c 2,9,-1
 312.842474414 64.2504558064 l 2,10,11
 288.274914681 88.9977645927 288.274914681 88.9977645927 316.376995331 117.283013497 c 2,0,-1
-30.6230046707 117.283013495 m 2,12,-1
 60.5945341353 208.501582107 l 2,13,14
 91.0939589748 238.814258911 91.0939589748 238.814258911 115.749367791 214.158603398 c 2,15,-1
 213.338585706 116.568465715 l 2,16,17
 241.05144785 89.1431496644 241.05144785 89.1431496644 210.501378801 58.5934076125 c 2,18,-1
 119.283513205 -32.623541677 l 2,19,20
 90.9070927518 -60.8153389431 90.9070927518 -60.8153389431 63.4225071424 -33.330478331 c 2,21,-1
 -34.3208112148 64.413761715 l 2,22,23
 -58.4802753183 89.2441702552 -58.4802753183 89.2441702552 -30.6230046707 117.283013495 c 2,12,-1
142.479534394 403.283013497 m 2,24,-1
 233.697049915 494.501558967 l 2,25,26
 264.758468005 525.372534591 264.758468005 525.372534591 288.840985569 500.169524786 c 2,27,-1
 386.432698818 402.576897862 l 2,28,29
 413.9180276 374.90751735 413.9180276 374.90751735 383.603917862 344.593407612 c 2,30,-1
 292.386073436 253.376479354 l 2,31,32
 264.009664265 225.184903609 264.009664265 225.184903609 236.525046205 252.669521669 c 2,33,-1
 138.945013477 350.250455806 l 2,34,35
 114.377453743 374.997764593 114.377453743 374.997764593 142.479534394 403.283013497 c 2,24,-1
EndSplineSet
EndChar

StartChar: arabic_3dots_a
Encoding: 65539 -1 266
Width: 527
VWidth: 2629
GlyphClass: 2
Flags: W
LayerCount: 2
Fore
SplineSet
316.376994657 78.545112181 m 2,0,1
 288.274877328 106.830398003 288.274877328 106.830398003 312.821921612 131.557041239 c 2,2,-1
 410.422479249 229.158575438 l 2,3,4
 437.896849625 256.653490038 437.896849625 256.653490038 466.265051025 228.470068601 c 2,5,-1
 557.501348876 137.234747313 l 2,6,7
 587.815519939 106.920576249 587.815519939 106.920576249 560.348976826 79.2701071989 c 2,8,-1
 462.738617797 -18.3412284993 l 2,9,10
 438.676670893 -43.1478486063 438.676670893 -43.1478486063 407.7916756 -12.8705471494 c 2,11,-1
 316.376994657 78.545112181 l 2,0,1
-30.6230053428 78.545112181 m 2,12,13
 -58.7251226715 106.830398003 -58.7251226715 106.830398003 -34.1780783878 131.557041239 c 2,14,-1
 63.4224792495 229.158575438 l 2,15,16
 90.9071553009 256.64325149 90.9071553009 256.64325149 119.265051025 228.470068601 c 2,17,-1
 210.501348876 137.234747313 l 2,18,19
 240.815519939 106.920576249 240.815519939 106.920576249 213.348976826 79.2701071989 c 2,20,-1
 115.749395751 -18.330450438 l 2,21,22
 91.0939331725 -42.9859130161 91.0939331725 -42.9859130161 60.6119626462 -12.6908322724 c 2,23,-1
 -30.6230053428 78.545112181 l 2,12,13
142.479533719 -207.454887819 m 2,24,25
 114.272927719 -179.064432272 114.272927719 -179.064432272 138.924460674 -154.442958761 c 2,26,-1
 236.525018312 -56.841424562 l 2,27,28
 263.999388688 -29.3465099628 263.999388688 -29.3465099628 292.367590087 -57.5299313991 c 2,29,-1
 383.603887938 -148.765252687 l 2,30,31
 414.088260399 -179.249625148 414.088260399 -179.249625148 386.451515888 -206.729892801 c 2,32,-1
 288.851934813 -304.330450438 l 2,33,34
 264.196472235 -328.985913016 264.196472235 -328.985913016 233.714501708 -298.690832273 c 2,35,-1
 142.479533719 -207.454887819 l 2,24,25
EndSplineSet
EndChar

StartChar: uni066E.fina
Encoding: 65540 -1 267
Width: 2050
VWidth: 2551
GlyphClass: 2
Flags: W
AnchorPoint: "Anchor-10" 682.312 1237.13 basechar 0
AnchorPoint: "Anchor-7" 682.312 -217.677 basechar 0
LayerCount: 2
Fore
SplineSet
536.549804688 180 m 2,0,-1
 1351.46484375 180 l 2,1,2
 1627.5546875 180 1627.5546875 180 1627.41796875 400.29296875 c 2,3,-1
 1627.27441406 631.71875 l 1,4,-1
 1804.01269531 631.71875 l 1,5,-1
 1804.18847656 397.940429688 l 2,6,7
 1803.99804688 180 1803.99804688 180 2038.51269531 180 c 2,8,-1
 2055.89453125 180 l 2,9,10
 2078.89453125 180 2078.89453125 180 2078.89453125 97 c 2,11,-1
 2078.89453125 85.998046875 l 2,12,13
 2078.99804688 -0 2078.99804688 -0 2055.89453125 0 c 2,14,-1
 2036.70898438 0 l 2,15,16
 1818.1171875 0 1818.1171875 0 1725.93359375 149.703125 c 2,17,-1
 1724.13671875 152.62109375 l 1,18,-1
 1722.47949219 149.62109375 l 2,19,20
 1639.83886719 0.0341796875 1639.83886719 0.0341796875 1348.95996094 -0 c 2,21,-1
 533.767578125 -0.0966796875 l 2,22,23
 102.229492188 -0.0009765625 102.229492188 -0.0009765625 102.227539062 441.977539062 c 2,24,-1
 102.2265625 642.66015625 l 1,25,-1
 276.984375 642.66015625 l 1,26,-1
 276.984375 442.541015625 l 2,27,28
 277 180 277 180 536.549804688 180 c 2,0,-1
EndSplineSet
EndChar

StartChar: uni06A1.fina
Encoding: 65543 -1 268
Width: 2044
VWidth: 2551
GlyphClass: 2
Flags: W
AnchorPoint: "Anchor-10" 474.606 1362.71 basechar 0
AnchorPoint: "Anchor-7" 600.192 -269.906 basechar 0
LayerCount: 2
Fore
SplineSet
1374.2265625 430.081054688 m 0,0,1
 1374.44140625 355.157226562 1374.44140625 355.157226562 1428.546875 302.080078125 c 128,-1,2
 1482.62207031 248.999023438 1482.62207031 248.999023438 1559.7578125 248.994140625 c 0,3,4
 1636.25 248.999023438 1636.25 248.999023438 1691.02832031 302.137695312 c 0,5,6
 1745.44140625 355.157226562 1745.44140625 355.157226562 1745.28808594 430.077148438 c 0,7,8
 1745.44140625 504.838867188 1745.44140625 504.838867188 1691.0234375 558.022460938 c 0,9,10
 1663.66210938 584.485351562 1663.66210938 584.485351562 1630.81542969 597.783203125 c 128,-1,11
 1597.96777344 611.081054688 1597.96777344 611.081054688 1559.75390625 611.1640625 c 0,12,13
 1521.23046875 611.081054688 1521.23046875 611.081054688 1488.37890625 597.78125 c 128,-1,14
 1455.52734375 584.481445312 1455.52734375 584.481445312 1428.47949219 558.010742188 c 128,-1,15
 1401.49414062 531.458007812 1401.49414062 531.458007812 1387.9140625 499.438476562 c 128,-1,16
 1374.33398438 467.418945312 1374.33398438 467.418945312 1374.2265625 430.081054688 c 0,0,1
1556.52148438 80.12890625 m 2,17,18
 1515.22265625 53.46484375 1515.22265625 53.46484375 1462.04003906 35.66796875 c 128,-1,19
 1408.85644531 17.8701171875 1408.85644531 17.8701171875 1343.67285156 8.9404296875 c 128,-1,20
 1278.48925781 0.0107421875 1278.48925781 0.0107421875 1201.42871094 -0 c 2,21,-1
 533.767578125 -0.0966796875 l 2,22,23
 102.229492188 -0.0009765625 102.229492188 -0.0009765625 102.227539062 441.977539062 c 2,24,-1
 102.2265625 642.66015625 l 1,25,-1
 276.984375 642.66015625 l 1,26,-1
 276.984375 442.541015625 l 2,27,28
 277 179.915039062 277 179.915039062 538.302734375 180 c 2,29,-1
 1309.53027344 180.25 l 1,30,-1
 1314.41601562 180.251953125 l 1,31,-1
 1310.93164062 183.676757812 l 2,32,33
 1207.99707031 284.840820312 1207.99707031 284.840820312 1207.5703125 431.379882812 c 0,34,35
 1207.00292969 584.157226562 1207.00292969 584.157226562 1310.92285156 685.044921875 c 128,-1,36
 1414.81347656 786.001953125 1414.81347656 786.001953125 1561.16699219 786.354492188 c 0,37,38
 1707.18847656 786.001953125 1707.18847656 786.001953125 1811.41503906 685.045898438 c 0,39,40
 1912.00292969 587.15234375 1912.00292969 587.15234375 1912.6171875 431.543945312 c 0,41,42
 1912.99804688 282.840820312 1912.99804688 282.840820312 1811.41210938 183.681640625 c 2,43,-1
 1807.90234375 180.254882812 l 1,44,-1
 1812.80761719 180.25 l 1,45,-1
 2049.54882812 179.999023438 l 2,46,47
 2072.54882812 180 2072.54882812 180 2072.54882812 96.9990234375 c 2,48,-1
 2072.54882812 85.9892578125 l 2,49,50
 2072.98925781 -0.0009765625 2072.98925781 -0.0009765625 2049.54882812 -0.0009765625 c 2,51,-1
 1913.59570312 -0.0009765625 l 2,52,53
 1710.49511719 -0 1710.49511719 -0 1558.54003906 80.216796875 c 2,54,-1
 1557.50488281 80.763671875 l 1,55,-1
 1556.52148438 80.12890625 l 2,17,18
EndSplineSet
EndChar

StartChar: uni06A1.init
Encoding: 65544 -1 269
Width: 870
VWidth: 2551
GlyphClass: 2
Flags: W
AnchorPoint: "Anchor-10" 436.999 1390.33 basechar 0
AnchorPoint: "Anchor-7" 471.628 -207.113 basechar 0
LayerCount: 2
Fore
SplineSet
-5.0234375 0 m 2,0,1
 -58.0234375 0 -58.0234375 0 -58.0234375 86 c 2,2,-1
 -58.0234375 96.9990234375 l 2,3,4
 -58.01171875 139.017578125 -58.01171875 139.017578125 -44.75 159.508789062 c 128,-1,5
 -31.4873046875 180 -31.4873046875 180 -5.0234375 180 c 2,6,-1
 275.087890625 180 l 2,7,8
 604.928710938 180 604.928710938 180 604.928710938 327.958007812 c 2,9,-1
 604.928710938 350.875976562 l 1,10,-1
 604.928710938 353.0859375 l 1,11,-1
 602.73046875 352.866210938 l 2,12,13
 523.890625 344.999023438 523.890625 344.999023438 451.998046875 344.33984375 c 0,14,15
 273.568359375 344.170898438 273.568359375 344.170898438 184.774414062 414.595703125 c 128,-1,16
 95.98046875 485.020507812 95.98046875 485.020507812 95.9619140625 626.303710938 c 0,17,18
 96 796.19140625 96 796.19140625 183.436523438 886.609375 c 0,19,20
 273.849609375 980.001953125 273.849609375 980.001953125 436.334960938 980.389648438 c 0,21,22
 768.002929688 980.001953125 768.002929688 980.001953125 767.86328125 653.658203125 c 2,23,-1
 767.727539062 335.3984375 l 2,24,25
 767.998046875 0 767.998046875 0 272.553710938 0 c 2,26,-1
 -5.0234375 0 l 2,0,1
605 656.502929688 m 2,27,28
 604.893554688 733.016601562 604.893554688 733.016601562 562.958007812 771.359375 c 128,-1,29
 521.021484375 809.703125 521.021484375 809.703125 437.954101562 809.401367188 c 0,30,31
 342.038085938 808.99609375 342.038085938 808.99609375 299.435546875 755.982421875 c 0,32,33
 261.001953125 707.701171875 261.001953125 707.701171875 260.833007812 636.987304688 c 0,34,35
 261.002929688 516.993164062 261.002929688 516.993164062 460.008789062 517.682617188 c 0,36,37
 533.135742188 518.000976562 533.135742188 518.000976562 603.448242188 527.627929688 c 2,38,-1
 605.178710938 527.865234375 l 1,39,-1
 605.176757812 529.612304688 l 1,40,-1
 605 656.502929688 l 2,27,28
EndSplineSet
EndChar

StartChar: uni06A1.medi
Encoding: 65545 -1 270
Width: 1022
VWidth: 2551
GlyphClass: 2
Flags: W
AnchorPoint: "Anchor-10" 534.997 1174.33 basechar 0
AnchorPoint: "Anchor-7" 504.997 -207.113 basechar 0
LayerCount: 2
Fore
SplineSet
1027.109375 0 m 2,0,-1
 891.15625 0 l 2,1,2
 688.494140625 0 688.494140625 0 536.098632812 80.21875 c 2,3,-1
 535.219726562 80.681640625 l 1,4,-1
 534.3203125 80.2607421875 l 2,5,6
 362.555664062 0 362.555664062 0 179.987304688 0 c 2,7,-1
 -5.0234375 0 l 2,8,9
 -58.0234375 0 -58.0234375 0 -58.0234375 86 c 2,10,-1
 -58.0234375 96.9990234375 l 2,11,12
 -58.0009765625 179.954101562 -58.0009765625 179.954101562 -5.021484375 180 c 2,13,-1
 287.091796875 180.250976562 l 1,14,-1
 291.958984375 180.254882812 l 1,15,-1
 288.495117188 183.674804688 l 2,16,17
 185.000976562 285.834960938 185.000976562 285.834960938 185.130859375 431.375 c 0,18,19
 185.000976562 584.157226562 185.000976562 584.157226562 288.48046875 685.04296875 c 0,20,21
 392.811034395 786.002112752 392.811034395 786.002112752 538.727539062 786.35546875 c 4,22,23
 685.183089222 786.004151088 685.183089222 786.004151088 788.978515625 685.043945312 c 0,24,25
 890.000976562 587.15234375 890.000976562 587.15234375 890.177734375 431.5390625 c 0,26,27
 890.995117188 282.840820312 890.995117188 282.840820312 788.9765625 183.685546875 c 2,28,-1
 785.448242188 180.255859375 l 1,29,-1
 790.368164062 180.250976562 l 1,30,-1
 1027.109375 180 l 2,31,32
 1050.109375 180 1050.109375 180 1050.109375 97 c 2,33,-1
 1050.109375 86.0029296875 l 2,34,35
 1050.00292969 0 1050.00292969 0 1027.109375 0 c 2,0,-1
351.787109375 430.08203125 m 0,36,37
 352.001953125 355.158203125 352.001953125 355.158203125 406.107421875 302.081054688 c 128,-1,38
 460.182617188 249 460.182617188 249 537.318359375 248.995117188 c 0,39,40
 613.810546875 249 613.810546875 249 668.588867188 302.138671875 c 0,41,42
 723.001953125 355.158203125 723.001953125 355.158203125 722.848632812 430.078125 c 0,43,44
 723.001953125 504.83984375 723.001953125 504.83984375 668.583984375 558.0234375 c 0,45,46
 613.810546875 610.998046875 613.810546875 610.998046875 537.314453125 611.165039062 c 0,47,48
 460.182617188 610.998046875 460.182617188 610.998046875 406.040039062 558.01171875 c 0,49,50
 352.419921875 504.090820312 352.419921875 504.090820312 351.787109375 430.08203125 c 0,36,37
EndSplineSet
EndChar

StartChar: uni066F.fina
Encoding: 65546 -1 271
Width: 1476
VWidth: 2551
GlyphClass: 2
Flags: W
AnchorPoint: "Anchor-10" 398.276 1049.72 basechar 0
AnchorPoint: "Anchor-7" 515.229 -700.06 basechar 0
LayerCount: 2
Fore
SplineSet
1328.96777344 357.805664062 m 2,0,-1
 1330.40234375 181.983398438 l 1,1,-1
 1330.41894531 180 l 1,2,-1
 1332.40234375 180 l 1,3,-1
 1481.9765625 180 l 2,4,5
 1504.9765625 180 1504.9765625 180 1504.9765625 97 c 2,6,-1
 1504.9765625 85.9990234375 l 2,7,8
 1504.98242188 64.0625 1504.98242188 64.0625 1503.37597656 47.53515625 c 128,-1,9
 1501.77050781 31.0087890625 1501.77050781 31.0087890625 1498.73730469 20.6396484375 c 128,-1,10
 1495.703125 10.271484375 1495.703125 10.271484375 1491.50878906 5.1357421875 c 128,-1,11
 1487.31445312 -0 1487.31445312 -0 1481.9765625 0 c 2,12,-1
 1333.27929688 0 l 1,13,-1
 1331.28320312 0 l 1,14,-1
 1331.27929688 -1.99609375 l 1,15,-1
 1331.15039062 -66.45703125 l 2,16,17
 1330.578125 -259.279296875 1330.578125 -259.279296875 1195.37597656 -355.639648438 c 128,-1,18
 1060.17285156 -452 1060.17285156 -452 789.385742188 -452 c 2,19,-1
 691.184570312 -452 l 2,20,21
 104.311523438 -450.116210938 104.311523438 -450.116210938 103.12109375 101.919921875 c 2,22,-1
 103.000976562 442.0078125 l 1,23,-1
 277.877929688 442.666992188 l 1,24,-1
 277.877929688 103.091796875 l 2,25,26
 278.000976562 -269.293945312 278.000976562 -269.293945312 693.369140625 -266.711914062 c 2,27,-1
 787.782226562 -266.125 l 2,28,29
 1162.01757812 -263.98828125 1162.01757812 -263.98828125 1160.20996094 -63.064453125 c 2,30,-1
 1160.20996094 0.98046875 l 1,31,-1
 1160.20996094 2.98046875 l 1,32,-1
 1158.20996094 2.98046875 l 1,33,-1
 997.346679688 2.98046875 l 2,34,35
 648.0078125 3 648.0078125 3 649.383789062 344.595703125 c 0,36,37
 649.997070312 529.232421875 649.997070312 529.232421875 737.104492188 626.549804688 c 0,38,39
 825.903320312 727.002929688 825.903320312 727.002929688 995.884765625 727.463867188 c 0,40,41
 1045.71289062 727.641601562 1045.71289062 727.641601562 1088.79101562 718.130859375 c 128,-1,42
 1131.86816406 708.620117188 1131.86816406 708.620117188 1168.17382812 689.454101562 c 128,-1,43
 1204.47851562 670.287109375 1204.47851562 670.287109375 1234.10644531 641.447265625 c 0,44,45
 1327.00878906 550.153320312 1327.00878906 550.153320312 1328.96777344 357.805664062 c 2,0,-1
816.166992188 346.099609375 m 0,46,47
 815.998046875 180 815.998046875 180 996.307617188 180 c 2,48,-1
 1158.01757812 180 l 1,49,-1
 1160.02246094 180 l 1,50,-1
 1160.01757812 182.004882812 l 1,51,-1
 1159.56640625 351.879882812 l 2,52,53
 1158.99414062 557.008789062 1158.99414062 557.008789062 991.916992188 556.248046875 c 0,54,55
 815.998046875 555.997070312 815.998046875 555.997070312 816.166992188 346.099609375 c 0,46,47
EndSplineSet
EndChar

StartChar: arabic_gaf_bar
Encoding: 65550 -1 272
Width: 657
VWidth: 2389
GlyphClass: 2
Flags: W
LayerCount: 2
Fore
SplineSet
605.461914062 1775.77246094 m 1,0,-1
 17.3857421875 1571.01953125 l 1,1,-1
 17.3857421875 1681.32714844 l 1,2,-1
 605.461914062 1886.078125 l 1,3,-1
 605.461914062 1775.77246094 l 1,0,-1
EndSplineSet
EndChar

StartChar: guillemotleft
Encoding: 171 171 281
Width: 995
VWidth: 2046
Flags: W
LayerCount: 2
Fore
SplineSet
450.611328125 947.09765625 m 1,0,-1
 418.319335938 890.3125 l 2,1,2
 300.0546875 682.374023438 300.0546875 682.374023438 300.0546875 476.6171875 c 0,3,4
 300.0546875 269.056640625 300.0546875 269.056640625 418.26953125 62.0185546875 c 2,5,-1
 450.724609375 5.177734375 l 1,6,-1
 298.521484375 5.177734375 l 1,7,-1
 287.326171875 22.8115234375 l 2,8,9
 140.0546875 254.775390625 140.0546875 254.775390625 140.0546875 476.6171875 c 0,10,11
 140.0546875 586.543945312 140.0546875 586.543945312 176.853515625 699.734375 c 128,-1,12
 213.651367188 812.923828125 213.651367188 812.923828125 287.294921875 929.404296875 c 2,13,-1
 298.482421875 947.09765625 l 1,14,-1
 450.611328125 947.09765625 l 1,0,-1
826.611328125 947.09765625 m 1,15,-1
 794.319335938 890.3125 l 2,16,17
 735.202148438 786.369140625 735.202148438 786.369140625 705.62890625 682.936523438 c 128,-1,18
 676.0546875 579.50390625 676.0546875 579.50390625 676.0546875 476.6171875 c 0,19,20
 676.0546875 269.506835938 676.0546875 269.506835938 794.0078125 62.4765625 c 2,21,-1
 826.724609375 5.177734375 l 1,22,-1
 674.521484375 5.177734375 l 1,23,-1
 663.328125 22.8076171875 l 2,24,25
 614.216796875 100.479492188 614.216796875 100.479492188 581.485351562 176.806640625 c 128,-1,26
 548.754882812 253.133789062 548.754882812 253.133789062 532.404296875 328.071289062 c 128,-1,27
 516.0546875 403.008789062 516.0546875 403.008789062 516.0546875 476.6171875 c 0,28,29
 516.0546875 586.543945312 516.0546875 586.543945312 552.853515625 699.734375 c 128,-1,30
 589.651367188 812.923828125 589.651367188 812.923828125 663.294921875 929.404296875 c 2,31,-1
 674.482421875 947.09765625 l 1,32,-1
 826.611328125 947.09765625 l 1,15,-1
EndSplineSet
EndChar

StartChar: guillemotright
Encoding: 187 187 282
Width: 992
VWidth: 2046
Flags: W
LayerCount: 2
Fore
SplineSet
544.388671875 947.09765625 m 1,0,-1
 696.517578125 947.09765625 l 1,1,-1
 707.705078125 929.404296875 l 2,2,3
 854.9453125 696.517578125 854.9453125 696.517578125 854.9453125 475.861328125 c 128,-1,4
 854.9453125 255.206054688 854.9453125 255.206054688 707.982421875 23.2978515625 c 2,5,-1
 696.478515625 5.177734375 l 1,6,-1
 544.275390625 5.177734375 l 1,7,-1
 576.731445312 62.01953125 l 2,8,9
 694.9453125 269.0546875 694.9453125 269.0546875 694.9453125 475.71484375 c 128,-1,10
 694.9453125 682.372070312 694.9453125 682.372070312 576.680664062 890.3125 c 2,11,-1
 544.388671875 947.09765625 l 1,0,-1
168.388671875 947.09765625 m 1,12,-1
 320.517578125 947.09765625 l 1,13,-1
 331.705078125 929.404296875 l 2,14,15
 478.9453125 696.517578125 478.9453125 696.517578125 478.9453125 475.64453125 c 128,-1,16
 478.9453125 254.7734375 478.9453125 254.7734375 331.673828125 22.8125 c 2,17,-1
 320.478515625 5.177734375 l 1,18,-1
 168.275390625 5.177734375 l 1,19,-1
 200.731445312 62.01953125 l 2,20,21
 318.9453125 269.0546875 318.9453125 269.0546875 318.9453125 475.71484375 c 128,-1,22
 318.9453125 682.372070312 318.9453125 682.372070312 200.680664062 890.3125 c 2,23,-1
 168.388671875 947.09765625 l 1,12,-1
EndSplineSet
EndChar

